<?xml version="1.0" standalone="no"?><!-- Generator: Gravit.io --><svg xmlns="http://www.w3.org/2000/svg" xmlns:xlink="http://www.w3.org/1999/xlink" style="isolation:isolate" viewBox="0 0 185 124" width="185" height="124"><defs><clipPath id="_clipPath_ttk6klo3V2zpCyd6CA3mJfX29s7IGaFL"><rect width="185" height="124"/></clipPath></defs><g clip-path="url(#_clipPath_ttk6klo3V2zpCyd6CA3mJfX29s7IGaFL)"><clipPath id="_clipPath_yCwjNxp1r0aJ4UWarJdUl70kkbJWSON6"><rect x="36.5" y="0" width="112" height="124" transform="matrix(1,0,0,1,0,0)" fill="rgb(255,255,255)"/></clipPath><g clip-path="url(#_clipPath_yCwjNxp1r0aJ4UWarJdUl70kkbJWSON6)"><g><g><path d=" M 48.051 111.331 L 38.167 0.388 L 146.833 0.388 L 136.949 111.271 L 92.41 123.612" fill="rgb(166,198,234)"/><path d=" M 92.5 114.177 L 92.5 9.494 L 136.919 9.494 L 128.443 104.143" fill="rgb(206,228,253)"/><path d=" M 58.354 23.062 L 92.5 23.062 L 92.5 36.66 L 73.271 36.66 L 74.529 50.588 L 92.5 50.588 L 92.5 64.157 L 62.069 64.157 M 62.668 70.986 L 76.326 70.986 L 77.284 81.858 L 92.5 85.932 L 92.5 100.129 L 64.585 92.342" fill="rgb(235,235,235)"/><path d=" M 126.526 23.062 L 92.44 23.062 L 92.44 36.66 L 125.268 36.66 M 124.04 50.588 L 92.44 50.588 L 92.44 64.187 L 109.213 64.187 L 107.626 81.858 L 92.44 85.932 L 92.44 100.069 L 120.296 92.342" fill="rgb(255,255,255)"/></g></g></g></g></svg>