<?xml version="1.0" standalone="no"?><!-- Generator: Gravit.io --><svg xmlns="http://www.w3.org/2000/svg" xmlns:xlink="http://www.w3.org/1999/xlink" style="isolation:isolate" viewBox="0 0 112 124" width="112" height="124"><defs><clipPath id="_clipPath_DziEpsZUMBouqfR7868BgufUuXQeWoD4"><rect width="112" height="124"/></clipPath></defs><g clip-path="url(#_clipPath_DziEpsZUMBouqfR7868BgufUuXQeWoD4)"><g><path d=" M 11.551 111.331 L 1.667 0.388 L 110.333 0.388 L 100.449 111.271 L 55.91 123.612" fill="rgb(166,198,234)"/><path d=" M 56 114.177 L 56 9.494 L 100.419 9.494 L 91.943 104.143" fill="rgb(206,228,253)"/><path d=" M 21.854 23.062 L 56 23.062 L 56 36.66 L 36.771 36.66 L 38.029 50.588 L 56 50.588 L 56 64.157 L 25.569 64.157 M 26.168 70.986 L 39.826 70.986 L 40.784 81.858 L 56 85.932 L 56 100.129 L 28.085 92.342" fill="rgb(235,235,235)"/><path d=" M 90.026 23.062 L 55.94 23.062 L 55.94 36.66 L 88.768 36.66 M 87.54 50.588 L 55.94 50.588 L 55.94 64.187 L 72.713 64.187 L 71.126 81.858 L 55.94 85.932 L 55.94 100.069 L 83.796 92.342" fill="rgb(255,255,255)"/></g></g></svg>