<?xml version="1.0" standalone="no"?><!-- Generator: Gravit.io --><svg xmlns="http://www.w3.org/2000/svg" xmlns:xlink="http://www.w3.org/1999/xlink" style="isolation:isolate" viewBox="0 0 185 124" width="185" height="124"><defs><clipPath id="_clipPath_4tOKcQHvgTTRLX2QNiyRZ16LIjg6EGBP"><rect width="185" height="124"/></clipPath></defs><g clip-path="url(#_clipPath_4tOKcQHvgTTRLX2QNiyRZ16LIjg6EGBP)"><clipPath id="_clipPath_tdcPSSfWYiOuxjD4B1S5JcO9ujIFHZqH"><rect x="36.5" y="0" width="112" height="124" transform="matrix(1,0,0,1,0,0)" fill="rgb(255,255,255)"/></clipPath><g clip-path="url(#_clipPath_tdcPSSfWYiOuxjD4B1S5JcO9ujIFHZqH)"><g><g><g><path d=" M 146.867 0.334 L 136.964 111.271 L 92.45 123.612 L 48.059 111.288 L 38.167 0.334 L 146.867 0.334 Z " fill="rgb(166,198,234)"/><path d=" M 128.486 104.207 L 136.949 9.406 L 92.517 9.406 L 92.517 114.179 L 128.486 104.207 Z " fill="rgb(206,228,253)"/><path d=" M 60.845 50.558 L 62.064 64.166 L 92.517 64.166 L 92.517 50.558 L 60.845 50.558 Z " fill="rgb(235,235,235)"/><path d=" M 92.517 23.014 L 92.47 23.014 L 58.394 23.014 L 59.631 36.623 L 92.517 36.623 L 92.517 23.014 Z " fill="rgb(235,235,235)"/><path d=" M 92.517 100.057 L 92.517 85.899 L 92.457 85.915 L 77.302 81.823 L 76.333 70.97 L 68.968 70.97 L 62.672 70.97 L 64.579 92.337 L 92.454 100.075 L 92.517 100.057 Z " fill="rgb(235,235,235)"/><path d=" M 109.226 64.166 L 107.647 81.814 L 92.47 85.911 L 92.47 100.068 L 120.367 92.337 L 120.572 90.037 L 123.769 54.212 L 124.101 50.558 L 126.558 23.014 L 92.47 23.014 L 92.47 36.623 L 111.645 36.623 L 110.407 50.558 L 92.47 50.558 L 92.47 64.166 L 109.226 64.166 Z " fill="rgb(255,255,255)"/></g></g></g></g></g></svg>