<?xml version="1.0" standalone="no"?><!-- Generator: Gravit.io --><svg xmlns="http://www.w3.org/2000/svg" xmlns:xlink="http://www.w3.org/1999/xlink" style="isolation:isolate" viewBox="0 0 112 124" width="112" height="124"><defs><clipPath id="_clipPath_p6lInF0LMJ8Mozk8oDj3e2PQvkvMrRq5"><rect width="112" height="124"/></clipPath></defs><g clip-path="url(#_clipPath_p6lInF0LMJ8Mozk8oDj3e2PQvkvMrRq5)"><g><g><path d=" M 110.367 0.334 L 100.464 111.271 L 55.95 123.612 L 11.559 111.288 L 1.667 0.334 L 110.367 0.334 Z " fill="rgb(166,198,234)"/><path d=" M 91.986 104.207 L 100.449 9.406 L 56.017 9.406 L 56.017 114.179 L 91.986 104.207 Z " fill="rgb(206,228,253)"/><path d=" M 24.345 50.558 L 25.564 64.166 L 56.017 64.166 L 56.017 50.558 L 24.345 50.558 Z " fill="rgb(235,235,235)"/><path d=" M 56.017 23.014 L 55.97 23.014 L 21.894 23.014 L 23.131 36.623 L 56.017 36.623 L 56.017 23.014 Z " fill="rgb(235,235,235)"/><path d=" M 56.017 100.057 L 56.017 85.899 L 55.957 85.915 L 40.802 81.823 L 39.833 70.97 L 32.468 70.97 L 26.172 70.97 L 28.079 92.337 L 55.954 100.075 L 56.017 100.057 Z " fill="rgb(235,235,235)"/><path d=" M 72.726 64.166 L 71.147 81.814 L 55.97 85.911 L 55.97 100.068 L 83.867 92.337 L 84.072 90.037 L 87.269 54.212 L 87.601 50.558 L 90.058 23.014 L 55.97 23.014 L 55.97 36.623 L 75.145 36.623 L 73.907 50.558 L 55.97 50.558 L 55.97 64.166 L 72.726 64.166 Z " fill="rgb(255,255,255)"/></g></g></g></svg>