<?xml version="1.0" standalone="no"?><!-- Generator: Gravit.io --><svg xmlns="http://www.w3.org/2000/svg" xmlns:xlink="http://www.w3.org/1999/xlink" style="isolation:isolate" viewBox="0 0 112 124" width="112" height="124"><defs><clipPath id="_clipPath_x2dz9eftDRVdGvMhg1nuRwN4bYb5bSuy"><rect width="112" height="124"/></clipPath></defs><g clip-path="url(#_clipPath_x2dz9eftDRVdGvMhg1nuRwN4bYb5bSuy)"><path d=" M 58.5 18.422 L 59.344 100.688 L 91.266 95.063 L 98.156 17.719 L 58.5 18.422 Z " fill="rgb(255,255,255)"/><g><path d=" M 11.757 111.148 L 1.667 0.074 L 110.367 0.116 L 100.362 111.063 L 55.932 123.612 L 11.757 111.148 Z  M 92.179 105.085 L 100.616 9.952 L 84.371 9.952 L 70.236 9.952 L 56.101 9.952 L 56.441 114.878 L 92.179 105.085 L 92.179 105.085 Z  M 51.947 23.899 L 41.136 23.899 L 41.009 80.835 L 20.024 75.112 L 20.066 88.127 L 51.947 96.733 L 51.947 23.899 L 51.947 23.899 Z " fill="rgb(166,198,234)"/><g opacity="0.986"><path d=" M 41.227 95.144 C 39.828 94.72 32.918 92.854 25.88 90.947 L 13.119 87.513 L 13.119 81.111 C 13.119 74.837 13.119 74.709 13.755 74.921 C 14.094 75.049 18.758 76.32 24.1 77.804 L 33.808 80.475 L 33.893 52.071 L 33.978 23.666 L 44.576 23.666 L 44.576 59.787 C 44.576 88.488 44.491 95.907 44.195 95.907 C 43.983 95.864 42.626 95.525 41.227 95.144 L 41.227 95.144 Z " fill="none"/></g><path d=" M 56.017 9.952 L 100.531 9.952 L 92.095 105.085 L 56.017 114.878 L 56.017 9.952 Z  M 89.805 89.145 L 92.73 53.576 L 71.109 55.992 L 71.109 36.999 L 94.172 36.915 L 95.105 23.942 L 60.299 24.111 L 60.765 71.339 L 81.793 67.736 L 81.496 78.249 L 60.299 83.888 L 60.511 96.776 L 89.805 89.145 Z " fill="rgb(206,228,253)"/></g></g></svg>