<?xml version="1.0" standalone="no"?><!-- Generator: Gravit.io --><svg xmlns="http://www.w3.org/2000/svg" xmlns:xlink="http://www.w3.org/1999/xlink" style="isolation:isolate" viewBox="0 0 185 124" width="185" height="124"><defs><clipPath id="_clipPath_ltD7UMjivtODuAZcsInpiPHTEazXk7oe"><rect width="185" height="124"/></clipPath></defs><g clip-path="url(#_clipPath_ltD7UMjivtODuAZcsInpiPHTEazXk7oe)"><clipPath id="_clipPath_Y0BWn6o9kqqaBBCyucz9PR2GkG97tWhd"><rect x="36.5" y="0" width="112" height="124" transform="matrix(1,0,0,1,0,0)" fill="rgb(255,255,255)"/></clipPath><g clip-path="url(#_clipPath_Y0BWn6o9kqqaBBCyucz9PR2GkG97tWhd)"><g><path d=" M 95 18.422 L 95.844 100.688 L 127.766 95.063 L 134.656 17.719 L 95 18.422 Z " fill="rgb(255,255,255)"/><g><path d=" M 48.257 111.148 L 38.167 0.074 L 146.867 0.116 L 136.862 111.063 L 92.432 123.612 L 48.257 111.148 Z  M 128.679 105.085 L 137.116 9.952 L 120.871 9.952 L 106.736 9.952 L 92.601 9.952 L 92.941 114.878 L 128.679 105.085 L 128.679 105.085 Z  M 88.447 23.899 L 77.636 23.899 L 77.509 80.835 L 56.524 75.112 L 56.566 88.127 L 88.447 96.733 L 88.447 23.899 L 88.447 23.899 Z " fill="rgb(166,198,234)"/><g style="opacity:0.986;"><g opacity="0.986"><path d=" M 77.727 95.144 C 76.328 94.72 69.418 92.854 62.38 90.947 L 49.619 87.513 L 49.619 81.111 C 49.619 74.837 49.619 74.709 50.255 74.921 C 50.594 75.049 55.258 76.32 60.6 77.804 L 70.308 80.475 L 70.393 52.071 L 70.478 23.666 L 81.076 23.666 L 81.076 59.787 C 81.076 88.488 80.991 95.907 80.695 95.907 C 80.483 95.864 79.126 95.525 77.727 95.144 L 77.727 95.144 Z " fill="none"/></g></g><path d=" M 92.517 9.952 L 137.031 9.952 L 128.595 105.085 L 92.517 114.878 L 92.517 9.952 Z  M 126.305 89.145 L 129.23 53.576 L 107.609 55.992 L 107.609 36.999 L 130.672 36.915 L 131.605 23.942 L 96.799 24.111 L 97.265 71.339 L 118.293 67.736 L 117.996 78.249 L 96.799 83.888 L 97.011 96.776 L 126.305 89.145 Z " fill="rgb(206,228,253)"/></g></g></g></g></svg>