<?xml version="1.0" standalone="no"?><!-- Generator: Gravit.io --><svg xmlns="http://www.w3.org/2000/svg" xmlns:xlink="http://www.w3.org/1999/xlink" style="isolation:isolate" viewBox="0 0 185 124" width="185" height="124"><defs><clipPath id="_clipPath_pVTvNDYmbMYcwfn81EnjbggwwEcO27oA"><rect width="185" height="124"/></clipPath></defs><g clip-path="url(#_clipPath_pVTvNDYmbMYcwfn81EnjbggwwEcO27oA)"><g><path d=" M 152.864 70.841 C 147.37 70.87 142.595 72.193 138.596 74.149 C 137.129 71.244 135.662 68.655 135.404 66.757 C 135.116 64.542 134.771 63.19 135.116 60.543 C 135.461 57.897 137.014 54.129 136.986 53.841 C 136.957 53.554 136.64 52.202 133.476 52.173 C 130.312 52.144 127.579 52.777 127.263 53.611 C 126.947 54.445 126.343 56.344 125.94 58.3 C 125.393 61.176 119.612 71.445 116.304 76.824 C 115.239 74.725 114.319 72.884 114.117 71.417 C 113.83 69.202 113.485 67.85 113.83 65.203 C 114.175 62.557 115.728 58.789 115.7 58.501 C 115.671 58.213 115.354 56.862 112.19 56.833 C 109.026 56.804 106.293 57.437 105.977 58.271 C 105.661 59.105 105.315 61.061 104.654 62.96 C 103.992 64.858 96.312 82.002 94.298 86.432 C 93.263 88.704 92.371 90.517 91.738 91.753 C 91.738 91.753 91.738 91.753 91.738 91.753 C 91.738 91.753 91.71 91.84 91.623 91.984 C 91.077 93.048 90.76 93.623 90.76 93.623 C 90.76 93.623 90.76 93.623 90.76 93.652 C 90.329 94.429 89.869 95.148 89.638 95.148 C 89.466 95.148 89.149 93.077 89.696 90.258 C 90.847 84.303 93.579 75.041 93.551 74.725 C 93.551 74.552 94.068 72.941 91.767 72.107 C 89.523 71.273 88.718 72.654 88.517 72.654 C 88.315 72.654 88.171 73.143 88.171 73.143 C 88.171 73.143 90.674 62.73 83.396 62.73 C 78.852 62.73 72.581 67.706 69.474 72.193 C 67.518 73.258 63.347 75.53 58.889 77.975 C 57.192 78.924 55.437 79.874 53.797 80.765 C 53.682 80.65 53.567 80.506 53.452 80.391 C 44.65 70.985 28.369 64.34 29.059 51.713 C 29.318 47.11 30.9 35.029 60.327 20.359 C 84.547 8.421 103.82 11.729 107.156 19.064 C 111.931 29.535 96.83 48.98 71.804 51.799 C 62.254 52.863 57.249 49.181 55.983 47.801 C 54.66 46.362 54.459 46.276 53.97 46.564 C 53.164 46.995 53.682 48.29 53.97 49.037 C 54.718 50.993 57.796 54.445 63.002 56.142 C 67.604 57.638 78.794 58.472 92.342 53.237 C 107.502 47.369 119.353 31.059 115.872 17.396 C 112.392 3.531 89.38 -1.042 67.604 6.695 C 54.66 11.298 40.623 18.547 30.526 27.981 C 18.531 39.2 16.633 48.951 17.41 53.036 C 20.2 67.533 40.191 76.968 48.188 83.958 C 47.785 84.188 47.411 84.39 47.095 84.562 C 43.097 86.547 27.851 94.515 24.054 102.943 C 19.74 112.493 24.745 119.339 28.053 120.26 C 38.322 123.107 48.878 117.987 54.545 109.53 C 60.212 101.073 59.522 90.085 56.904 85.051 C 56.875 84.994 56.846 84.936 56.789 84.879 C 57.824 84.275 58.889 83.642 59.924 83.038 C 61.967 81.83 63.98 80.708 65.706 79.787 C 64.728 82.462 64.009 85.655 63.664 90.258 C 63.232 95.665 65.447 102.684 68.352 105.446 C 69.647 106.654 71.171 106.682 72.149 106.682 C 75.544 106.682 77.068 103.864 78.765 100.527 C 80.836 96.442 82.706 91.696 82.706 91.696 C 82.706 91.696 80.376 104.525 86.704 104.525 C 89.006 104.525 91.336 101.534 92.371 100.009 C 92.371 100.038 92.371 100.038 92.371 100.038 C 92.371 100.038 92.429 99.951 92.544 99.75 C 92.774 99.376 92.918 99.146 92.918 99.146 C 92.918 99.146 92.918 99.117 92.918 99.089 C 93.838 97.478 95.909 93.825 98.987 87.755 C 102.957 79.931 106.782 70.151 106.782 70.151 C 106.782 70.151 107.128 72.538 108.307 76.508 C 108.997 78.838 110.436 81.398 111.586 83.872 C 110.666 85.166 110.09 85.885 110.09 85.885 C 110.09 85.885 110.09 85.885 110.119 85.914 C 109.371 86.892 108.566 87.956 107.674 88.992 C 104.539 92.731 100.799 97.017 100.282 98.254 C 99.677 99.721 99.821 100.786 100.972 101.649 C 101.806 102.281 103.302 102.368 104.826 102.281 C 107.645 102.08 109.63 101.39 110.608 100.958 C 112.133 100.412 113.916 99.578 115.584 98.341 C 118.662 96.068 120.532 92.818 120.359 88.532 C 120.273 86.173 119.497 83.814 118.547 81.599 C 118.835 81.197 119.094 80.794 119.381 80.391 C 124.243 73.286 128.011 65.491 128.011 65.491 C 128.011 65.491 128.356 67.879 129.535 71.848 C 130.111 73.862 131.29 76.048 132.326 78.176 C 127.752 81.887 124.933 86.202 123.926 89.021 C 122.114 94.256 123.524 96.615 126.199 97.161 C 127.407 97.42 129.133 96.845 130.398 96.298 C 132.009 95.781 133.908 94.889 135.72 93.566 C 138.798 91.293 141.761 88.129 141.588 83.843 C 141.502 81.887 140.984 79.96 140.265 78.09 C 144.148 76.479 149.153 75.588 155.539 76.335 C 169.231 77.946 171.935 86.489 171.417 90.085 C 170.9 93.681 168.023 95.637 167.074 96.241 C 166.125 96.845 165.808 97.046 165.894 97.478 C 166.009 98.111 166.47 98.082 167.275 97.967 C 168.397 97.765 174.466 95.061 174.725 88.445 C 175.157 79.989 167.103 70.755 152.864 70.841 Z  M 47.239 106.452 C 42.694 111.4 36.366 113.27 33.633 111.688 C 30.699 109.99 31.85 102.684 37.43 97.449 C 40.824 94.256 45.197 91.293 48.102 89.481 C 48.763 89.078 49.741 88.503 50.921 87.784 C 51.122 87.669 51.237 87.611 51.237 87.611 L 51.237 87.611 C 51.467 87.467 51.697 87.324 51.928 87.18 C 53.97 94.659 52.014 101.246 47.239 106.452 Z  M 80.319 83.958 C 78.737 87.813 75.429 97.679 73.415 97.133 C 71.689 96.672 70.625 89.193 73.07 81.801 C 74.307 78.09 76.924 73.66 78.449 71.934 C 80.923 69.173 83.655 68.252 84.317 69.374 C 85.151 70.841 81.297 81.542 80.319 83.958 Z  M 107.617 97.017 C 106.955 97.363 106.322 97.593 106.035 97.42 C 105.833 97.305 106.322 96.845 106.322 96.845 C 106.322 96.845 109.745 93.163 111.097 91.495 C 111.874 90.517 112.794 89.366 113.772 88.072 C 113.772 88.187 113.772 88.33 113.772 88.445 C 113.772 92.847 109.515 95.809 107.617 97.017 Z  M 128.673 92.214 C 128.184 91.869 128.27 90.718 129.909 87.122 C 130.542 85.713 132.038 83.354 134.598 81.082 C 134.886 82.002 135.087 82.894 135.058 83.728 C 135.03 89.28 131.06 91.351 128.673 92.214 Z " fill="rgb(166,198,234)"/></g></g></svg>