<?xml version="1.0" standalone="no"?><!-- Generator: Gravit.io --><svg xmlns="http://www.w3.org/2000/svg" xmlns:xlink="http://www.w3.org/1999/xlink" style="isolation:isolate" viewBox="0 0 185 124" width="185" height="124"><defs><clipPath id="_clipPath_rwu4HCdPCWz6qEXVdOGH1x6EQCGm7ZVU"><rect width="185" height="124"/></clipPath></defs><g clip-path="url(#_clipPath_rwu4HCdPCWz6qEXVdOGH1x6EQCGm7ZVU)"><clipPath id="_clipPath_EnEtWWgpu9w4JSapYlqLZ8KZM9VY3ziO"><rect x="0" y="0" width="185" height="124" transform="matrix(1,0,0,1,0,0)" fill="rgb(255,255,255)"/></clipPath><g clip-path="url(#_clipPath_EnEtWWgpu9w4JSapYlqLZ8KZM9VY3ziO)"><g><clipPath id="_clipPath_x565HWJDEbpuiO6QAku6pCV9aIXydq43"><rect x="0" y="0" width="185" height="124" transform="matrix(1,0,0,1,0,0)" fill="rgb(255,255,255)"/></clipPath><g clip-path="url(#_clipPath_x565HWJDEbpuiO6QAku6pCV9aIXydq43)"><g><g><g><g><path d=" M 23.928 6.254 L 163.917 6.254 C 164.907 6.254 165.71 7.057 165.71 8.047 L 165.71 93.531 C 165.71 94.52 164.907 95.323 163.917 95.323 L 23.928 95.323 C 22.939 95.323 22.136 94.52 22.136 93.531 L 22.136 8.047 C 22.136 7.057 22.939 6.254 23.928 6.254 L 23.928 6.254 L 23.928 6.254 Z  M 22.214 0 L 165.519 0 C 169.621 0 172.952 3.331 172.952 7.433 L 172.952 94.145 C 172.952 98.247 169.621 101.577 165.519 101.577 L 22.214 101.577 C 18.112 101.577 14.781 98.247 14.781 94.145 L 14.781 7.433 C 14.781 3.331 18.112 0 22.214 0 L 22.214 0 L 22.214 0 Z  M 90.993 3.142 C 90.993 2.349 91.637 1.705 92.43 1.705 C 93.223 1.705 93.867 2.349 93.867 3.142 C 93.867 3.935 93.223 4.578 92.43 4.578 C 91.637 4.578 90.993 3.935 90.993 3.142 Z " fill-rule="evenodd" fill="rgb(166,198,234)"/><path d=" M 76.225 102.506 L 6.408 102.506 C 4.495 102.506 2.942 103.23 2.942 104.121 L 2.942 104.121 C 2.942 108.78 11.061 112.562 21.062 112.562 L 165.709 112.562 C 174.655 112.562 181.918 108.85 181.918 104.277 L 181.918 104.277 C 181.918 103.3 180.365 102.506 178.452 102.506 L 110.344 102.506 L 110.344 104.182 L 76.225 104.182 L 76.225 102.506 L 76.225 102.506 Z " fill-rule="evenodd" fill="rgb(166,198,234)"/></g><g><path d=" M 6.234 21.271 L 88.94 21.271 C 92.381 21.271 95.174 24.064 95.174 27.505 L 95.174 80.402 C 95.174 83.842 92.381 86.636 88.94 86.636 L 6.234 86.636 C 2.793 86.636 0 83.842 0 80.402 L 0 27.505 C 0 24.064 2.793 21.271 6.234 21.271 Z  M 8.006 26.299 L 87.168 26.299 C 87.788 26.299 88.291 26.802 88.291 27.421 L 88.291 80.485 C 88.291 81.105 87.788 81.608 87.168 81.608 L 8.006 81.608 C 7.387 81.608 6.884 81.105 6.884 80.485 L 6.884 27.421 C 6.884 26.802 7.387 26.299 8.006 26.299 Z " fill-rule="evenodd" fill="rgb(166,198,234)"/><path d=" M 49.458 84.163 L 49.458 84.559 C 49.458 84.97 49.124 85.304 48.713 85.304 L 45.22 85.304 C 44.808 85.304 44.475 84.97 44.475 84.559 L 44.475 84.163 C 44.475 83.752 44.808 83.418 45.22 83.418 L 48.713 83.418 C 49.124 83.418 49.458 83.752 49.458 84.163 Z " fill="rgb(255,255,255)"/><circle vector-effect="non-scaling-stroke" cx="47.587205886678454" cy="23.93440556795597" r="0.6210280013499627" fill="rgb(255,255,255)"/><path d=" M 6.809 26.142 L 88.725 26.142 C 88.915 26.142 89.069 26.296 89.069 26.486 L 89.069 81.585 C 89.069 81.775 88.915 81.929 88.725 81.929 L 6.809 81.929 C 6.619 81.929 6.465 81.775 6.465 81.585 L 6.465 26.486 C 6.465 26.296 6.619 26.142 6.809 26.142 Z " fill="rgb(255,255,255)"/></g><g><path d=" M 134.755 61.258 L 157.073 61.258 C 159.537 61.258 161.537 63.259 161.537 65.722 L 161.537 119.167 C 161.537 121.63 159.537 123.631 157.073 123.631 L 134.755 123.631 C 132.291 123.631 130.291 121.63 130.291 119.167 L 130.291 65.722 C 130.291 63.259 132.291 61.258 134.755 61.258 Z " fill="rgb(166,198,234)"/><clipPath id="_clipPath_bmt2ibJVi2GwHSDJgXydqvvhNU5tCLvv"><path d=" M -370 -248 L 370 -248 L 370 248 L -370 248 L -370 -248 Z  M 134.755 61.258 L 157.073 61.258 C 159.537 61.258 161.537 63.259 161.537 65.722 L 161.537 119.167 C 161.537 121.63 159.537 123.631 157.073 123.631 L 134.755 123.631 C 132.291 123.631 130.291 121.63 130.291 119.167 L 130.291 65.722 C 130.291 63.259 132.291 61.258 134.755 61.258 Z " fill-rule="evenodd" fill="rgb(255,255,255)"/></clipPath><g clip-path="url(#_clipPath_bmt2ibJVi2GwHSDJgXydqvvhNU5tCLvv)"><mask id="_mask_rHtfCz0VwQM0JTLAd44sy58kH016XxJl" x="-200%" y="-200%" width="400%" height="400%"><rect x="-200%" y="-200%" width="400%" height="400%" style="fill:white;"/><path d=" M 134.755 61.258 L 157.073 61.258 C 159.537 61.258 161.537 63.259 161.537 65.722 L 161.537 119.167 C 161.537 121.63 159.537 123.631 157.073 123.631 L 134.755 123.631 C 132.291 123.631 130.291 121.63 130.291 119.167 L 130.291 65.722 C 130.291 63.259 132.291 61.258 134.755 61.258 Z " fill="black" stroke="none"/></mask><path d=" M 134.755 61.258 L 157.073 61.258 C 159.537 61.258 161.537 63.259 161.537 65.722 L 161.537 119.167 C 161.537 121.63 159.537 123.631 157.073 123.631 L 134.755 123.631 C 132.291 123.631 130.291 121.63 130.291 119.167 L 130.291 65.722 C 130.291 63.259 132.291 61.258 134.755 61.258 Z " fill="none" mask="url(#_mask_rHtfCz0VwQM0JTLAd44sy58kH016XxJl)" vector-effect="non-scaling-stroke" stroke-width="2" stroke="rgb(166,198,234)" stroke-opacity="100" stroke-linejoin="miter" stroke-linecap="square" stroke-miterlimit="2"/></g><rect x="130.291" y="67.663" width="31.246" height="49.563" transform="matrix(1,0,0,1,0,0)" fill="rgb(255,255,255)"/><path d=" M 142.346 64.345 L 149.483 64.345 C 149.793 64.345 150.044 64.47 150.044 64.624 L 150.044 64.624 C 150.044 64.777 149.793 64.902 149.483 64.902 L 142.346 64.902 C 142.036 64.902 141.784 64.777 141.784 64.624 L 141.784 64.624 C 141.784 64.47 142.036 64.345 142.346 64.345 Z " fill="rgb(235,235,235)"/><circle vector-effect="non-scaling-stroke" cx="137.87819265342424" cy="64.51509373256246" r="0.47886496489738306" fill="rgb(235,235,235)"/><circle vector-effect="non-scaling-stroke" cx="136.56505513249488" cy="64.51509373256246" r="0.47886496489738306" fill="rgb(235,235,235)"/><path d=" M 162.001 77.981 L 162.001 77.981 C 162.224 77.981 162.405 78.18 162.405 78.424 L 162.405 83.554 C 162.405 83.799 162.224 83.997 162.001 83.997 L 162.001 83.997 L 162.001 77.981 L 162.001 77.981 Z " fill="rgb(166,198,234)"/></g></g></g></g></g></g></g></g></svg>