<?xml version="1.0" standalone="no"?><!-- Generator: Gravit.io --><svg xmlns="http://www.w3.org/2000/svg" xmlns:xlink="http://www.w3.org/1999/xlink" style="isolation:isolate" viewBox="0 0 185 124" width="185" height="124"><defs><clipPath id="_clipPath_KUAenRIZJg4sAKYRYDSBTk2MacKlFmNX"><rect width="185" height="124"/></clipPath></defs><g clip-path="url(#_clipPath_KUAenRIZJg4sAKYRYDSBTk2MacKlFmNX)"><g><path d=" M 110.398 49.982 C 106.446 49.982 103.503 51.923 103.503 56.593 C 103.503 60.112 105.443 62.555 110.185 62.555 C 114.205 62.555 116.935 60.186 116.935 56.448 C 116.935 52.211 114.492 49.982 110.398 49.982 L 110.398 49.982 Z  M 102.494 82.959 C 101.559 84.107 100.627 85.326 100.627 86.765 C 100.627 89.637 104.288 90.501 109.318 90.501 C 113.485 90.501 119.16 90.209 119.16 86.335 C 119.16 84.033 116.43 83.89 112.98 83.674 L 102.494 82.959 L 102.494 82.959 Z  M 123.757 50.199 C 125.048 51.852 126.415 54.151 126.415 57.456 C 126.415 65.429 120.165 70.098 111.116 70.098 C 108.815 70.098 106.731 69.812 105.439 69.453 L 103.068 73.26 L 110.107 73.69 C 122.536 74.482 129.861 74.841 129.861 84.392 C 129.861 92.656 122.607 97.322 110.107 97.322 C 97.105 97.322 92.149 94.017 92.149 88.343 C 92.149 85.109 93.586 83.389 96.1 81.015 C 93.729 80.012 92.94 78.217 92.94 76.277 C 92.94 74.696 93.729 73.259 95.024 71.893 C 96.316 70.53 97.753 69.163 99.477 67.583 C 95.957 65.859 93.299 62.124 93.299 56.807 C 93.299 48.547 98.759 42.874 109.748 42.874 C 112.837 42.874 114.706 43.159 116.358 43.592 L 130.367 43.592 L 130.367 49.697 L 123.757 50.2" fill="rgb(166,198,234)"/><path d=" M 143.012 37.145 C 138.916 37.145 136.546 34.773 136.546 30.676 C 136.546 26.585 138.916 24.357 143.012 24.357 C 147.178 24.357 149.549 26.585 149.549 30.676 C 149.549 34.772 147.178 37.145 143.012 37.145 Z  M 133.743 80.315 L 133.743 74.643 L 137.408 74.141 C 138.414 73.996 138.557 73.782 138.557 72.702 L 138.557 51.582 C 138.557 50.794 138.342 50.289 137.622 50.075 L 133.743 48.709 L 134.533 42.892 L 149.404 42.892 L 149.404 72.702 C 149.404 73.854 149.474 73.996 150.554 74.142 L 154.218 74.643 L 154.218 80.315 L 133.743 80.315" fill="rgb(166,198,234)"/><path d=" M 182.625 77.531 C 179.534 79.038 175.01 80.403 170.913 80.403 C 162.365 80.403 159.134 76.958 159.134 68.837 L 159.134 50.018 C 159.134 49.588 159.134 49.299 158.557 49.299 L 153.529 49.299 L 153.529 42.906 C 159.852 42.186 162.365 39.024 163.155 31.194 L 169.98 31.194 L 169.98 41.398 C 169.98 41.9 169.98 42.117 170.556 42.117 L 180.684 42.117 L 180.684 49.299 L 169.981 49.299 L 169.981 66.467 C 169.981 70.706 170.988 72.357 174.864 72.357 C 176.879 72.357 178.959 71.855 180.684 71.208 L 182.625 77.531" fill="rgb(166,198,234)"/><path d=" M 76.186 58.679 L 43.338 25.835 C 41.448 23.943 38.381 23.943 36.488 25.835 L 29.668 32.656 L 38.319 41.308 C 40.331 40.629 42.636 41.084 44.238 42.687 C 45.849 44.3 46.301 46.625 45.605 48.643 L 53.944 56.982 C 55.961 56.286 58.289 56.735 59.9 58.349 C 62.152 60.601 62.152 64.249 59.9 66.501 C 57.647 68.754 53.999 68.754 51.745 66.501 C 50.052 64.806 49.633 62.318 50.491 60.232 L 42.714 52.455 L 42.713 72.919 C 43.262 73.191 43.78 73.554 44.238 74.009 C 46.489 76.261 46.489 79.908 44.238 82.163 C 41.986 84.414 38.336 84.414 36.086 82.163 C 33.834 79.908 33.834 76.261 36.086 74.009 C 36.643 73.454 37.287 73.033 37.974 72.752 L 37.974 52.097 C 37.286 51.816 36.643 51.399 36.086 50.839 C 34.38 49.135 33.969 46.632 34.844 44.537 L 26.315 36.007 L 3.794 58.527 C 1.902 60.421 1.902 63.489 3.794 65.38 L 36.64 98.224 C 38.531 100.116 41.598 100.116 43.492 98.224 L 76.186 65.536 C 78.078 63.643 78.078 60.574 76.186 58.682" fill="rgb(166,198,234)"/></g></g></svg>