<?xml version="1.0" standalone="no"?><!-- Generator: Gravit.io --><svg xmlns="http://www.w3.org/2000/svg" xmlns:xlink="http://www.w3.org/1999/xlink" style="isolation:isolate" viewBox="0 0 970 1065" width="970" height="1065"><defs><clipPath id="_clipPath_T4LXgObj0x7AcY7tvrhS4E3JlcnRRmv0"><rect width="970" height="1065"/></clipPath></defs><g clip-path="url(#_clipPath_T4LXgObj0x7AcY7tvrhS4E3JlcnRRmv0)"><linearGradient id="_lgradient_0" x1="-0.508330871248605" y1="0.6510846231534836" x2="0.6473122277907204" y2="0.4548464641083565" gradientTransform="matrix(1820,0,0,1408.735,-52.108,-171.867)" gradientUnits="userSpaceOnUse"><stop offset="30.869565217391305%" stop-opacity="1" style="stop-color:rgb(170,202,237)"/><stop offset="100%" stop-opacity="0" style="stop-color:rgb(255,255,255)"/></linearGradient><path d=" M 1247.892 1236.867 L 62.638 552.561 C -0.692 515.997 -0.692 456.627 62.638 420.063 L 1087.892 -171.867 L 1767.892 266.919 L 1247.892 1236.867 Z " fill="url(#_lgradient_0)"/><g><defs><filter id="lkupOchwej9GxiTz29m3NOEkVFQsudpH" x="-200%" y="-200%" width="400%" height="400%" filterUnits="objectBoundingBox" color-interpolation-filters="sRGB"><feGaussianBlur xmlns="http://www.w3.org/2000/svg" stdDeviation="7.728496313110251"/></filter></defs><g filter="url(#lkupOchwej9GxiTz29m3NOEkVFQsudpH)"><path d=" M 849.789 550.224 L 923.803 507.124 C 938.279 498.694 938.255 485.047 923.749 476.668 L 708.887 352.557 L 849.789 550.224 Z " fill="rgb(102,145,204)" fill-opacity="0.56"/></g><path d=" M 860.555 541.587 L 703.524 632.249 C 696.181 636.488 684.248 636.507 676.891 632.291 L 440.105 496.58 C 426.923 489.025 428.528 483.726 443.687 484.754 L 832.22 511.108 L 860.885 529.89 C 866.037 533.266 865.889 538.508 860.555 541.587 Z " fill="rgb(102,145,204)"/><defs><filter id="zMVUvslXvuUweIDDNybsLDt5GmHJnfXw" x="-200%" y="-200%" width="400%" height="400%" filterUnits="objectBoundingBox" color-interpolation-filters="sRGB"><feGaussianBlur xmlns="http://www.w3.org/2000/svg" stdDeviation="2.0609323501627337"/></filter></defs><g filter="url(#zMVUvslXvuUweIDDNybsLDt5GmHJnfXw)"><path d=" M 861.194 544.073 L 703.369 634.497 C 696.006 638.715 684.038 638.734 676.662 634.539 L 438.673 499.181 C 425.453 491.662 427.039 486.387 442.214 487.408 L 832.705 513.693 L 861.521 532.43 C 866.69 535.791 866.543 541.008 861.194 544.073 Z " fill="rgb(45,74,126)"/></g><linearGradient id="_lgradient_1" x1="0.32545045045045107" y1="1.1284579194441644" x2="0.7173423423423436" y2="0.3175431264234876" gradientTransform="matrix(444,0,0,254.034,425.22,382.224)" gradientUnits="userSpaceOnUse"><stop offset="0%" stop-opacity="1" style="stop-color:rgb(139,175,217)"/><stop offset="100%" stop-opacity="1" style="stop-color:rgb(188,218,249)"/></linearGradient><path d=" M 858.835 538.331 L 702.524 628.577 C 695.181 632.816 683.236 632.855 675.865 628.665 L 435.743 492.131 C 429.935 488.828 429.943 483.479 435.761 480.194 L 602.151 386.217 C 606.052 384.013 612.37 384.043 616.251 386.283 L 858.835 526.339 C 864.567 529.648 864.567 535.022 858.835 538.331 Z " fill="url(#_lgradient_1)"/><clipPath id="_clipPath_DJCS7QmechbWo7ghijt9R7DjmAQyT0aQ"><path d=" M 858.835 538.331 L 702.524 628.577 C 695.181 632.816 683.236 632.855 675.865 628.665 L 435.743 492.131 C 429.935 488.828 429.943 483.479 435.761 480.194 L 602.151 386.217 C 606.052 384.013 612.37 384.043 616.251 386.283 L 858.835 526.339 C 864.567 529.648 864.567 535.022 858.835 538.331 Z " fill="url(#_lgradient_1)"/></clipPath><g clip-path="url(#_clipPath_DJCS7QmechbWo7ghijt9R7DjmAQyT0aQ)"><path d=" M 537.345 550.031 L 538.376 549.42 C 539.014 549.041 540.054 549.035 540.697 549.406 L 577.885 570.877 C 578.794 571.402 578.796 572.259 577.89 572.789 L 577.329 573.117 L 537.345 550.031 Z " fill="rgb(45,74,126)"/><defs><filter id="F5w43LzlniWqgqE0BPyTtU8ZmwLfHrd2" x="-200%" y="-200%" width="400%" height="400%" filterUnits="objectBoundingBox" color-interpolation-filters="sRGB"><feOffset xmlns="http://www.w3.org/2000/svg" in="SourceGraphic" dx="1" dy="1"/><feGaussianBlur xmlns="http://www.w3.org/2000/svg" stdDeviation="0.42936090628390283" result="pf_100_offsetBlur"/><feComposite xmlns="http://www.w3.org/2000/svg" in="SourceGraphic" in2="pf_100_offsetBlur" result="pf_100_inverse" operator="out"/><feFlood xmlns="http://www.w3.org/2000/svg" flood-color="#000000" flood-opacity="0.5" result="pf_100_color"/><feComposite xmlns="http://www.w3.org/2000/svg" in="pf_100_color" in2="pf_100_inverse" operator="in" result="pf_100_shadow"/><feComposite xmlns="http://www.w3.org/2000/svg" in="pf_100_shadow" in2="SourceGraphic" operator="over"/></filter></defs><g filter="url(#F5w43LzlniWqgqE0BPyTtU8ZmwLfHrd2)"><linearGradient id="_lgradient_2" x1="0.22187500000000251" y1="0.6647869040783698" x2="0.9781250000000024" y2="0.09104504008067915" gradientTransform="matrix(160,0,0,92.376,516.22,493.48)" gradientUnits="userSpaceOnUse"><stop offset="0%" stop-opacity="1" style="stop-color:rgb(201,227,255)"/><stop offset="98.69565217391305%" stop-opacity="1" style="stop-color:rgb(90,115,162)"/></linearGradient><path d=" M 524.395 532.841 L 606.897 580.474 C 612.043 583.445 620.397 583.445 625.542 580.474 L 664.859 557.775 C 671.129 554.154 671.129 548.276 664.858 544.656 L 584.904 498.494 C 580.111 495.727 572.328 495.727 567.535 498.494 L 524.395 523.401 C 519.883 526.006 519.883 530.236 524.395 532.841 Z " fill="url(#_lgradient_2)"/></g></g><g><g><path d=" M 795.438 539.719 L 807.099 546.444 C 807.839 546.876 809.073 546.814 809.875 546.32 L 820.981 539.904 C 821.783 539.41 821.906 538.732 821.166 538.3 L 809.567 531.575 C 808.888 531.143 807.592 531.204 806.79 531.698 L 795.685 538.115 C 794.821 538.546 794.759 539.287 795.438 539.719 Z " fill="rgb(45,74,126)"/><path d=" M 779.705 530.649 L 791.304 537.374 C 792.045 537.806 793.279 537.744 794.081 537.251 L 805.186 530.834 C 805.988 530.341 806.112 529.662 805.371 529.23 L 793.772 522.505 C 793.032 522.073 791.798 522.135 790.996 522.629 L 779.89 529.045 C 779.088 529.477 779.027 530.217 779.705 530.649 Z " fill="rgb(45,74,126)"/><path d=" M 763.973 521.518 L 775.633 528.243 C 776.374 528.675 777.608 528.613 778.41 528.12 L 789.515 521.703 C 790.317 521.21 790.441 520.531 789.7 520.099 L 778.101 513.374 C 777.361 512.942 776.127 513.004 775.325 513.497 L 764.158 519.914 C 763.356 520.407 763.294 521.148 763.973 521.518 Z " fill="rgb(45,74,126)"/><path d=" M 748.302 512.449 L 759.901 519.174 C 760.641 519.605 761.875 519.544 762.677 519.05 L 773.782 512.634 C 774.584 512.14 774.708 511.461 773.968 511.03 L 762.368 504.305 C 761.69 503.873 760.394 503.934 759.592 504.428 L 748.487 510.844 C 747.623 511.338 747.561 512.078 748.302 512.449 Z " fill="rgb(45,74,126)"/><path d=" M 732.569 503.379 L 744.168 510.104 C 744.908 510.536 746.142 510.474 746.944 509.981 L 758.05 503.564 C 758.852 503.071 758.975 502.392 758.235 501.96 L 746.636 495.235 C 745.957 494.803 744.661 494.865 743.859 495.358 L 732.754 501.775 C 731.952 502.269 731.828 503.009 732.569 503.379 Z " fill="rgb(45,74,126)"/><path d=" M 716.836 494.31 L 728.435 501.035 C 729.175 501.466 730.409 501.405 731.211 500.911 L 742.317 494.495 C 743.119 494.001 743.242 493.322 742.502 492.891 L 730.903 486.166 C 730.163 485.734 728.929 485.795 728.127 486.289 L 717.021 492.705 C 716.219 493.199 716.096 493.878 716.836 494.31 Z " fill="rgb(45,74,126)"/><path d=" M 701.103 485.24 L 712.702 491.965 C 713.443 492.397 714.677 492.335 715.479 491.842 L 726.584 485.425 C 727.386 484.932 727.51 484.253 726.769 483.821 L 715.17 477.096 C 714.43 476.664 713.196 476.726 712.394 477.22 L 701.288 483.636 C 700.486 484.13 700.363 484.808 701.103 485.24 Z " fill="rgb(45,74,126)"/><path d=" M 685.37 476.171 L 696.97 482.896 C 697.71 483.328 698.944 483.266 699.746 482.772 L 710.913 476.356 C 711.715 475.862 711.839 475.184 711.098 474.752 L 699.499 468.027 C 698.82 467.595 697.525 467.656 696.723 468.15 L 685.617 474.567 C 684.753 474.998 684.692 475.739 685.37 476.171 Z " fill="rgb(45,74,126)"/><path d=" M 669.638 467.101 L 681.237 473.826 C 681.915 474.258 683.211 474.196 684.013 473.703 L 695.119 467.286 C 695.921 466.793 696.044 466.114 695.304 465.682 L 683.705 458.957 C 683.026 458.525 681.73 458.587 680.928 459.081 L 669.823 465.497 C 669.021 465.929 668.959 466.669 669.638 467.101 Z " fill="rgb(45,74,126)"/><path d=" M 653.905 457.97 L 665.504 464.695 C 666.244 465.127 667.478 465.065 668.28 464.572 L 679.386 458.155 C 680.188 457.662 680.311 456.983 679.571 456.551 L 667.972 449.826 C 667.293 449.394 665.998 449.456 665.196 449.949 L 654.09 456.366 C 653.288 456.859 653.226 457.6 653.905 457.97 Z " fill="rgb(45,74,126)"/><path d=" M 638.172 448.901 L 649.771 455.626 C 650.512 456.057 651.746 455.996 652.548 455.502 L 663.653 449.086 C 664.455 448.592 664.579 447.913 663.838 447.482 L 652.239 440.757 C 651.499 440.325 650.265 440.386 649.463 440.88 L 638.296 447.296 C 637.555 447.79 637.493 448.53 638.172 448.901 Z " fill="rgb(45,74,126)"/><path d=" M 622.501 439.831 L 634.1 446.556 C 634.841 446.988 636.074 446.926 636.877 446.433 L 647.982 440.016 C 648.784 439.523 648.907 438.844 648.167 438.412 L 636.568 431.687 C 635.828 431.255 634.594 431.317 633.792 431.81 L 622.686 438.227 C 621.884 438.721 621.761 439.461 622.501 439.831 Z " fill="rgb(45,74,126)"/><path d=" M 606.768 430.762 L 618.367 437.487 C 619.108 437.918 620.342 437.857 621.144 437.363 L 632.249 430.947 C 633.051 430.453 633.175 429.774 632.434 429.343 L 620.835 422.618 C 620.095 422.186 618.861 422.247 618.059 422.741 L 606.953 429.157 C 606.151 429.651 606.028 430.33 606.768 430.762 Z " fill="rgb(45,74,126)"/><path d=" M 583.94 417.558 L 602.635 428.417 C 603.375 428.849 604.609 428.787 605.411 428.294 L 616.516 421.877 C 617.319 421.384 617.442 420.705 616.702 420.273 L 597.946 409.476 C 597.267 409.044 595.971 409.106 595.169 409.599 L 584.064 416.016 C 583.323 416.448 583.2 417.188 583.94 417.558 Z " fill="rgb(45,74,126)"/></g><g><path d=" M 593.997 425.147 L 582.398 418.422 C 581.719 417.99 580.424 418.052 579.622 418.546 L 568.516 424.962 C 567.714 425.456 567.591 426.134 568.331 426.566 L 579.93 433.291 C 580.609 433.723 581.904 433.661 582.706 433.168 L 593.874 426.751 C 594.614 426.319 594.737 425.579 593.997 425.147 Z " fill="rgb(45,74,126)"/><path d=" M 609.73 434.217 L 598.131 427.492 C 597.452 427.06 596.156 427.121 595.354 427.615 L 584.249 434.032 C 583.447 434.525 583.323 435.204 584.064 435.636 L 595.663 442.361 C 596.342 442.793 597.637 442.731 598.439 442.237 L 609.545 435.821 C 610.347 435.389 610.47 434.649 609.73 434.217 Z " fill="rgb(45,74,126)"/><path d=" M 625.463 443.348 L 613.863 436.623 C 613.123 436.191 611.889 436.253 611.087 436.746 L 599.92 443.163 C 599.118 443.656 598.995 444.335 599.735 444.767 L 611.334 451.492 C 612.074 451.924 613.308 451.862 614.11 451.368 L 625.216 444.952 C 626.08 444.458 626.203 443.718 625.463 443.348 Z " fill="rgb(45,74,126)"/><path d=" M 641.195 452.417 L 629.596 445.692 C 628.918 445.26 627.622 445.322 626.82 445.816 L 615.714 452.232 C 614.912 452.726 614.789 453.404 615.529 453.836 L 627.128 460.561 C 627.869 460.993 629.103 460.931 629.905 460.438 L 641.072 454.021 C 641.812 453.528 641.936 452.787 641.195 452.417 Z " fill="rgb(45,74,126)"/><path d=" M 656.928 461.487 L 645.329 454.762 C 644.589 454.33 643.355 454.392 642.553 454.885 L 631.385 461.302 C 630.583 461.795 630.46 462.474 631.2 462.906 L 642.799 469.631 C 643.54 470.063 644.774 470.001 645.576 469.507 L 656.681 463.091 C 657.545 462.597 657.607 461.919 656.928 461.487 Z " fill="rgb(45,74,126)"/><path d=" M 672.661 470.556 L 661.062 463.831 C 660.321 463.399 659.087 463.461 658.285 463.955 L 647.18 470.371 C 646.378 470.865 646.254 471.543 646.995 471.975 L 658.594 478.7 C 659.334 479.132 660.568 479.07 661.37 478.577 L 672.537 472.16 C 673.278 471.667 673.34 470.988 672.661 470.556 Z " fill="rgb(45,74,126)"/><path d=" M 688.394 479.626 L 676.795 472.901 C 676.054 472.469 674.82 472.531 674.018 473.024 L 662.913 479.441 C 662.111 479.934 661.987 480.613 662.728 481.045 L 674.327 487.77 C 675.067 488.202 676.301 488.14 677.103 487.646 L 688.209 481.23 C 689.011 480.736 689.072 480.058 688.394 479.626 Z " fill="rgb(45,74,126)"/><path d=" M 704.126 488.695 L 692.527 481.97 C 691.787 481.538 690.553 481.6 689.751 482.094 L 678.645 488.51 C 677.843 489.004 677.72 489.682 678.46 490.114 L 690.059 496.839 C 690.8 497.271 692.034 497.209 692.836 496.716 L 703.941 490.299 C 704.743 489.867 704.805 489.127 704.126 488.695 Z " fill="rgb(45,74,126)"/><path d=" M 719.797 497.765 L 708.198 491.04 C 707.458 490.608 706.224 490.67 705.422 491.163 L 694.317 497.58 C 693.514 498.073 693.391 498.752 694.131 499.184 L 705.731 505.909 C 706.409 506.341 707.705 506.279 708.507 505.785 L 719.612 499.369 C 720.414 498.937 720.538 498.197 719.797 497.765 Z " fill="rgb(45,74,126)"/><path d=" M 735.53 506.896 L 723.931 500.171 C 723.191 499.739 721.957 499.801 721.155 500.294 L 709.988 506.711 C 709.186 507.204 709.062 507.883 709.803 508.315 L 721.402 515.04 C 722.08 515.472 723.376 515.41 724.178 514.916 L 735.283 508.5 C 736.147 508.006 736.271 507.266 735.53 506.896 Z " fill="rgb(45,74,126)"/><path d=" M 751.263 515.965 L 739.664 509.24 C 738.924 508.808 737.69 508.87 736.888 509.364 L 725.782 515.78 C 724.98 516.274 724.857 516.952 725.597 517.384 L 737.196 524.109 C 737.936 524.541 739.17 524.48 739.972 523.986 L 751.14 517.569 C 751.88 517.076 752.003 516.335 751.263 515.965 Z " fill="rgb(45,74,126)"/><path d=" M 766.996 525.035 L 755.397 518.31 C 754.656 517.878 753.422 517.94 752.62 518.433 L 741.515 524.85 C 740.713 525.343 740.589 526.022 741.33 526.454 L 752.929 533.179 C 753.669 533.611 754.903 533.549 755.705 533.055 L 766.811 526.639 C 767.613 526.145 767.736 525.467 766.996 525.035 Z " fill="rgb(45,74,126)"/><path d=" M 782.729 534.104 L 771.129 527.379 C 770.389 526.947 769.155 527.009 768.353 527.503 L 757.248 533.919 C 756.446 534.413 756.322 535.091 757.063 535.523 L 768.662 542.248 C 769.402 542.68 770.636 542.618 771.438 542.125 L 782.543 535.708 C 783.345 535.215 783.407 534.536 782.729 534.104 Z " fill="rgb(45,74,126)"/><path d=" M 805.556 547.307 L 786.801 536.51 C 786.122 536.079 784.826 536.14 784.024 536.634 L 772.919 543.05 C 772.117 543.544 771.993 544.223 772.734 544.654 L 778.369 547.899 L 791.49 555.451 C 792.23 555.883 793.464 555.822 794.266 555.328 L 805.433 548.912 C 806.173 548.418 806.235 547.678 805.556 547.307 Z " fill="rgb(45,74,126)"/></g><g><path d=" M 589.74 440.757 L 566.789 427.492 C 566.048 427.06 564.814 427.121 564.012 427.615 L 552.907 434.032 C 552.105 434.525 551.981 435.204 552.722 435.636 L 575.673 448.901 C 576.413 449.332 577.647 449.271 578.449 448.777 L 589.617 442.361 C 590.357 441.867 590.48 441.127 589.74 440.757 Z " fill="rgb(45,74,126)"/><path d=" M 789.762 556.254 L 766.811 542.989 C 766.07 542.557 764.836 542.618 764.034 543.112 L 752.929 549.529 C 752.127 550.022 752.003 550.701 752.744 551.133 L 775.695 564.398 C 776.435 564.829 777.669 564.768 778.471 564.274 L 789.577 557.858 C 790.441 557.364 790.502 556.624 789.762 556.254 Z " fill="rgb(45,74,126)"/><path d=" M 605.473 449.826 L 593.874 443.101 C 593.133 442.669 591.899 442.731 591.097 443.224 L 579.992 449.641 C 579.19 450.134 579.066 450.813 579.807 451.245 L 591.406 457.97 C 592.084 458.402 593.38 458.34 594.182 457.847 L 605.349 451.43 C 606.09 450.937 606.213 450.258 605.473 449.826 Z " fill="rgb(45,74,126)"/><path d=" M 621.205 458.895 L 609.606 452.17 C 608.866 451.739 607.632 451.8 606.83 452.294 L 595.663 458.71 C 594.861 459.204 594.737 459.883 595.478 460.315 L 607.077 467.039 C 607.817 467.471 609.051 467.41 609.853 466.916 L 620.959 460.5 C 621.822 460.006 621.884 459.327 621.205 458.895 Z " fill="rgb(45,74,126)"/><path d=" M 636.938 467.965 L 625.339 461.24 C 624.599 460.808 623.365 460.87 622.563 461.363 L 611.457 467.78 C 610.655 468.273 610.532 468.952 611.272 469.384 L 622.871 476.109 C 623.55 476.541 624.846 476.479 625.648 475.986 L 636.753 469.569 C 637.555 469.075 637.617 468.397 636.938 467.965 Z " fill="rgb(45,74,126)"/><path d=" M 652.671 477.034 L 641.072 470.309 C 640.393 469.878 639.098 469.939 638.296 470.433 L 627.128 476.849 C 626.326 477.343 626.203 478.022 626.943 478.453 L 638.542 485.178 C 639.221 485.61 640.517 485.549 641.319 485.055 L 652.424 478.639 C 653.288 478.207 653.35 477.466 652.671 477.034 Z " fill="rgb(45,74,126)"/><path d=" M 668.342 486.166 L 656.743 479.441 C 656.003 479.009 654.769 479.07 653.967 479.564 L 642.799 485.98 C 641.997 486.474 641.874 487.153 642.614 487.585 L 654.213 494.31 C 654.954 494.741 656.188 494.68 656.99 494.186 L 668.157 487.77 C 669.021 487.276 669.082 486.536 668.342 486.166 Z " fill="rgb(45,74,126)"/><path d=" M 684.075 495.235 L 672.476 488.51 C 671.735 488.078 670.501 488.14 669.699 488.633 L 658.594 495.05 C 657.792 495.544 657.668 496.222 658.409 496.654 L 670.008 503.379 C 670.748 503.811 671.982 503.749 672.784 503.256 L 683.89 496.839 C 684.692 496.346 684.815 495.605 684.075 495.235 Z " fill="rgb(45,74,126)"/><path d=" M 699.808 504.305 L 688.209 497.58 C 687.53 497.148 686.234 497.209 685.432 497.703 L 674.327 504.119 C 673.525 504.613 673.401 505.292 674.142 505.724 L 685.741 512.449 C 686.481 512.88 687.715 512.819 688.517 512.325 L 699.622 505.909 C 700.425 505.415 700.548 504.675 699.808 504.305 Z " fill="rgb(45,74,126)"/><path d=" M 715.54 513.374 L 703.941 506.649 C 703.201 506.217 701.967 506.279 701.165 506.772 L 690.059 513.189 C 689.257 513.683 689.134 514.361 689.874 514.793 L 701.473 521.518 C 702.214 521.95 703.448 521.888 704.25 521.395 L 715.355 514.978 C 716.157 514.485 716.281 513.806 715.54 513.374 Z " fill="rgb(45,74,126)"/><path d=" M 731.273 522.444 L 719.674 515.719 C 718.995 515.287 717.7 515.348 716.898 515.842 L 705.792 522.258 C 704.99 522.752 704.867 523.431 705.607 523.863 L 717.206 530.588 C 717.947 531.019 719.18 530.958 719.983 530.464 L 731.088 524.048 C 731.89 523.554 731.952 522.875 731.273 522.444 Z " fill="rgb(45,74,126)"/><path d=" M 747.006 531.513 L 735.407 524.788 C 734.666 524.356 733.433 524.418 732.63 524.911 L 721.463 531.328 C 720.661 531.821 720.538 532.5 721.278 532.932 L 732.877 539.657 C 733.618 540.089 734.852 540.027 735.654 539.534 L 746.759 533.117 C 747.623 532.624 747.685 531.945 747.006 531.513 Z " fill="rgb(45,74,126)"/><path d=" M 762.739 540.582 L 751.14 533.857 C 750.399 533.426 749.165 533.487 748.363 533.981 L 737.258 540.397 C 736.456 540.891 736.332 541.57 737.073 542.001 L 748.61 548.726 C 749.35 549.158 750.584 549.097 751.386 548.603 L 762.492 542.187 C 763.356 541.755 763.417 541.014 762.739 540.582 Z " fill="rgb(45,74,126)"/></g><g><path d=" M 581.904 454.268 L 551.118 436.499 C 550.377 436.068 549.143 436.129 548.341 436.623 L 537.236 443.039 C 536.434 443.533 536.31 444.212 537.051 444.643 L 567.837 462.412 C 568.516 462.844 569.812 462.782 570.614 462.289 L 581.719 455.872 C 582.521 455.379 582.645 454.7 581.904 454.268 Z " fill="rgb(45,74,126)"/><path d=" M 597.637 463.338 L 586.038 456.613 C 585.298 456.181 584.064 456.243 583.262 456.736 L 572.156 463.153 C 571.354 463.646 571.231 464.325 571.971 464.757 L 583.57 471.482 C 584.249 471.914 585.545 471.852 586.347 471.358 L 597.452 464.942 C 598.254 464.448 598.378 463.77 597.637 463.338 Z " fill="rgb(45,74,126)"/><path d=" M 613.37 472.407 L 601.771 465.682 C 601.031 465.25 599.797 465.312 598.995 465.806 L 587.889 472.222 C 587.087 472.716 586.964 473.394 587.704 473.826 L 599.303 480.551 C 599.982 480.983 601.277 480.921 602.079 480.428 L 613.185 474.011 C 613.987 473.579 614.11 472.839 613.37 472.407 Z " fill="rgb(45,74,126)"/><path d=" M 629.103 481.477 L 617.504 474.752 C 616.825 474.32 615.529 474.381 614.727 474.875 L 603.622 481.292 C 602.82 481.785 602.696 482.464 603.437 482.896 L 615.036 489.621 C 615.776 490.053 617.01 489.991 617.812 489.497 L 628.918 483.081 C 629.72 482.649 629.781 481.909 629.103 481.477 Z " fill="rgb(45,74,126)"/><path d=" M 644.835 490.608 L 633.236 483.883 C 632.496 483.451 631.262 483.513 630.46 484.006 L 619.355 490.423 C 618.553 490.916 618.429 491.595 619.169 492.027 L 630.707 498.752 C 631.447 499.184 632.681 499.122 633.483 498.628 L 644.589 492.212 C 645.452 491.718 645.514 490.978 644.835 490.608 Z " fill="rgb(45,74,126)"/><path d=" M 660.568 499.677 L 648.969 492.952 C 648.29 492.52 646.995 492.582 646.193 493.076 L 635.087 499.492 C 634.285 499.986 634.162 500.664 634.902 501.096 L 646.501 507.821 C 647.18 508.253 648.476 508.191 649.278 507.698 L 660.383 501.281 C 661.185 500.788 661.247 500.047 660.568 499.677 Z " fill="rgb(45,74,126)"/><path d=" M 676.301 508.747 L 664.702 502.022 C 664.023 501.59 662.728 501.652 661.926 502.145 L 650.82 508.562 C 650.018 509.055 649.895 509.734 650.635 510.166 L 662.234 516.891 C 662.974 517.323 664.208 517.261 665.01 516.767 L 676.116 510.351 C 676.918 509.857 676.98 509.179 676.301 508.747 Z " fill="rgb(45,74,126)"/><path d=" M 691.972 517.816 L 680.373 511.091 C 679.633 510.659 678.399 510.721 677.597 511.215 L 666.491 517.631 C 665.689 518.125 665.566 518.803 666.306 519.235 L 677.905 525.96 C 678.645 526.392 679.879 526.33 680.681 525.837 L 691.787 519.42 C 692.651 518.927 692.712 518.248 691.972 517.816 Z " fill="rgb(45,74,126)"/><path d=" M 707.705 526.886 L 696.106 520.161 C 695.365 519.729 694.131 519.791 693.329 520.284 L 682.224 526.701 C 681.422 527.194 681.298 527.873 682.039 528.305 L 693.638 535.03 C 694.378 535.462 695.612 535.4 696.414 534.906 L 707.52 528.49 C 708.322 527.996 708.445 527.318 707.705 526.886 Z " fill="rgb(45,74,126)"/><path d=" M 723.438 535.955 L 711.839 529.23 C 711.098 528.798 709.864 528.86 709.062 529.354 L 697.957 535.77 C 697.155 536.264 697.031 536.942 697.772 537.374 L 709.371 544.099 C 710.111 544.531 711.345 544.469 712.147 543.976 L 723.252 537.559 C 724.055 537.127 724.178 536.387 723.438 535.955 Z " fill="rgb(45,74,126)"/><path d=" M 739.17 545.086 L 727.571 538.361 C 726.831 537.929 725.597 537.991 724.795 538.485 L 713.689 544.901 C 712.887 545.395 712.764 546.074 713.504 546.505 L 725.042 553.23 C 725.72 553.662 727.016 553.601 727.818 553.107 L 738.924 546.69 C 739.787 546.197 739.911 545.457 739.17 545.086 Z " fill="rgb(45,74,126)"/><path d=" M 774.153 565.261 L 743.242 547.431 C 742.502 546.999 741.268 547.061 740.466 547.554 L 729.361 553.971 C 728.558 554.464 728.435 555.143 729.175 555.575 L 760.086 573.405 C 760.826 573.837 762.06 573.775 762.862 573.282 L 774.029 566.865 C 774.77 566.372 774.893 565.693 774.153 565.261 Z " fill="rgb(45,74,126)"/></g><g><path d=" M 692.095 535.893 L 617.565 492.891 C 616.825 492.459 615.591 492.52 614.789 493.014 L 603.683 499.43 C 602.881 499.924 602.758 500.603 603.498 501.035 L 678.028 544.038 C 678.769 544.469 680.003 544.408 680.805 543.914 L 691.91 537.498 C 692.712 537.066 692.836 536.325 692.095 535.893 Z " fill="rgb(45,74,126)"/><path d=" M 594.306 479.441 L 582.706 472.716 C 582.028 472.284 580.732 472.345 579.93 472.839 L 568.825 479.256 C 568.023 479.749 567.899 480.428 568.64 480.86 L 580.239 487.585 C 580.979 488.017 582.213 487.955 583.015 487.461 L 594.12 481.045 C 594.922 480.613 595.046 479.872 594.306 479.441 Z " fill="rgb(45,74,126)"/><path d=" M 613.493 490.546 L 598.439 481.847 C 597.699 481.415 596.465 481.477 595.663 481.97 L 584.557 488.387 C 583.755 488.88 583.632 489.559 584.372 489.991 L 599.426 498.69 C 600.105 499.122 601.401 499.06 602.203 498.567 L 613.308 492.15 C 614.11 491.657 614.172 490.916 613.493 490.546 Z " fill="rgb(45,74,126)"/><path d=" M 715.355 549.343 L 726.954 556.068 C 727.633 556.5 727.571 557.179 726.769 557.673 L 715.664 564.089 C 714.862 564.583 713.628 564.644 712.887 564.212 L 701.288 557.487 C 700.61 557.056 700.671 556.377 701.473 555.883 L 712.641 549.467 C 713.381 548.973 714.677 548.912 715.355 549.343 Z " fill="rgb(45,74,126)"/><path d=" M 696.229 538.3 L 711.283 546.999 C 711.962 547.431 711.9 548.109 711.098 548.603 L 699.993 555.02 C 699.191 555.513 697.957 555.575 697.216 555.143 L 682.162 546.444 C 681.422 546.012 681.545 545.333 682.347 544.84 L 693.514 538.423 C 694.255 537.929 695.489 537.868 696.229 538.3 Z " fill="rgb(45,74,126)"/><path d=" M 547.169 452.232 L 535.57 445.507 C 534.83 445.075 533.596 445.137 532.794 445.631 L 521.688 452.047 C 520.886 452.541 520.763 453.219 521.503 453.651 L 533.102 460.376 C 533.842 460.808 535.076 460.746 535.878 460.253 L 546.984 453.836 C 547.786 453.343 547.848 452.664 547.169 452.232 Z " fill="rgb(45,74,126)"/><path d=" M 562.84 461.302 L 551.241 454.577 C 550.562 454.145 549.267 454.206 548.465 454.7 L 537.359 461.117 C 536.557 461.61 536.434 462.289 537.174 462.721 L 548.773 469.446 C 549.452 469.878 550.747 469.816 551.549 469.322 L 562.717 462.906 C 563.519 462.412 563.58 461.734 562.84 461.302 Z " fill="rgb(45,74,126)"/><path d=" M 578.573 470.371 L 566.974 463.646 C 566.295 463.214 564.999 463.276 564.197 463.77 L 553.03 470.186 C 552.228 470.68 552.105 471.358 552.845 471.79 L 564.444 478.515 C 565.184 478.947 566.418 478.885 567.22 478.392 L 578.326 471.975 C 579.19 471.543 579.313 470.803 578.573 470.371 Z " fill="rgb(45,74,126)"/><path d=" M 758.543 574.269 L 731.088 558.413 C 730.348 557.981 729.114 558.043 728.312 558.536 L 717.206 564.953 C 716.404 565.446 716.281 566.125 717.021 566.557 L 744.476 582.413 C 745.155 582.845 746.451 582.783 747.253 582.29 L 758.358 575.873 C 759.16 575.38 759.222 574.701 758.543 574.269 Z " fill="rgb(45,74,126)"/></g><g><path d=" M 811.047 530.711 L 818.198 534.857 L 822.647 537.436 C 823.387 537.868 824.621 537.806 825.423 537.313 L 830.976 534.104 C 831.778 533.611 831.901 532.932 831.161 532.5 L 819.562 525.775 C 818.821 525.343 817.587 525.405 816.785 525.899 L 811.233 529.107 C 810.431 529.539 810.369 530.279 811.047 530.711 Z " fill="rgb(45,74,126)"/><path d=" M 795.376 521.58 L 806.975 528.305 C 807.654 528.737 808.95 528.675 809.752 528.181 L 815.305 524.973 C 816.107 524.48 816.23 523.801 815.49 523.369 L 803.891 516.644 C 803.15 516.212 801.916 516.274 801.114 516.767 L 795.561 519.976 C 794.698 520.469 794.636 521.21 795.376 521.58 Z " fill="rgb(45,74,126)"/><path d=" M 779.644 512.51 L 791.243 519.235 C 791.983 519.667 793.217 519.605 794.019 519.112 L 799.572 515.904 C 800.374 515.41 800.497 514.731 799.757 514.299 L 788.158 507.574 C 787.417 507.143 786.184 507.204 785.381 507.698 L 779.829 510.906 C 779.027 511.4 778.903 512.14 779.644 512.51 Z " fill="rgb(45,74,126)"/><path d=" M 763.911 503.441 L 775.51 510.166 C 776.189 510.598 777.484 510.536 778.286 510.042 L 783.839 506.834 C 784.641 506.341 784.765 505.662 784.024 505.23 L 772.425 498.505 C 771.685 498.073 770.451 498.135 769.649 498.628 L 764.096 501.837 C 763.294 502.33 763.171 503.009 763.911 503.441 Z " fill="rgb(45,74,126)"/><path d=" M 748.178 494.371 L 759.777 501.096 C 760.518 501.528 761.751 501.466 762.554 500.973 L 768.106 497.765 C 768.908 497.271 769.032 496.592 768.291 496.161 L 756.692 489.436 C 756.014 489.004 754.718 489.065 753.916 489.559 L 748.363 492.767 C 747.561 493.261 747.438 493.939 748.178 494.371 Z " fill="rgb(45,74,126)"/><path d=" M 732.445 485.302 L 744.044 492.027 C 744.785 492.459 746.019 492.397 746.821 491.903 L 752.374 488.695 C 753.176 488.202 753.299 487.523 752.559 487.091 L 740.96 480.366 C 740.219 479.934 738.985 479.996 738.183 480.489 L 732.63 483.698 C 731.828 484.191 731.767 484.87 732.445 485.302 Z " fill="rgb(45,74,126)"/><path d=" M 716.713 476.232 L 728.312 482.957 C 729.052 483.389 730.286 483.328 731.088 482.834 L 736.641 479.626 C 737.443 479.132 737.566 478.453 736.826 478.022 L 725.227 471.297 C 724.548 470.865 723.252 470.926 722.45 471.42 L 716.898 474.628 C 716.096 475.06 716.034 475.8 716.713 476.232 Z " fill="rgb(45,74,126)"/><path d=" M 700.98 467.163 L 712.579 473.888 C 713.319 474.32 714.553 474.258 715.355 473.764 L 720.908 470.556 C 721.71 470.063 721.833 469.384 721.093 468.952 L 709.494 462.227 C 708.754 461.795 707.52 461.857 706.718 462.351 L 701.165 465.559 C 700.363 465.991 700.301 466.731 700.98 467.163 Z " fill="rgb(45,74,126)"/><path d=" M 685.247 458.032 L 696.846 464.757 C 697.586 465.189 698.82 465.127 699.622 464.633 L 705.175 461.425 C 705.977 460.931 706.101 460.253 705.36 459.821 L 693.761 453.096 C 693.021 452.664 691.787 452.726 690.985 453.219 L 685.432 456.428 C 684.63 456.921 684.568 457.662 685.247 458.032 Z " fill="rgb(45,74,126)"/><path d=" M 669.576 448.962 L 681.175 455.687 C 681.854 456.119 683.149 456.057 683.951 455.564 L 689.504 452.356 C 690.306 451.862 690.43 451.183 689.689 450.751 L 678.09 444.026 C 677.35 443.595 676.116 443.656 675.314 444.15 L 669.761 447.358 C 668.959 447.852 668.836 448.592 669.576 448.962 Z " fill="rgb(45,74,126)"/><path d=" M 653.843 439.893 L 665.442 446.618 C 666.183 447.05 667.417 446.988 668.219 446.494 L 673.771 443.286 C 674.573 442.793 674.697 442.114 673.957 441.682 L 662.357 434.957 C 661.617 434.525 660.383 434.587 659.581 435.08 L 654.028 438.289 C 653.226 438.782 653.103 439.461 653.843 439.893 Z " fill="rgb(45,74,126)"/><path d=" M 638.11 430.823 L 649.71 437.548 C 650.388 437.98 651.684 437.918 652.486 437.425 L 658.039 434.217 C 658.841 433.723 658.964 433.044 658.224 432.612 L 646.625 425.888 C 645.884 425.456 644.65 425.517 643.848 426.011 L 638.296 429.219 C 637.493 429.713 637.37 430.391 638.11 430.823 Z " fill="rgb(45,74,126)"/><path d=" M 622.378 421.754 L 633.977 428.479 C 634.655 428.911 635.951 428.849 636.753 428.355 L 642.306 425.147 C 643.108 424.654 643.231 423.975 642.491 423.543 L 630.892 416.818 C 630.152 416.386 628.918 416.448 628.116 416.941 L 622.563 420.15 C 621.761 420.582 621.637 421.322 622.378 421.754 Z " fill="rgb(45,74,126)"/><path d=" M 599.55 408.551 L 607.534 413.147 L 618.306 419.348 C 619.046 419.78 620.28 419.718 621.082 419.224 L 626.635 416.016 C 627.437 415.522 627.56 414.844 626.82 414.412 L 608.064 403.615 C 607.324 403.183 606.09 403.245 605.288 403.738 L 599.735 406.947 C 598.933 407.44 598.809 408.119 599.55 408.551 Z " fill="rgb(45,74,126)"/></g></g><path d=" M 610.22 190.439 L 610.22 374.361 C 610.22 378.669 613.249 383.915 616.981 386.068 L 857.327 524.742 C 865.547 529.485 872.22 525.63 872.22 516.141 L 872.22 337.789 C 872.22 330.198 866.881 320.955 860.306 317.161 L 625.42 181.66 C 617.031 176.82 610.22 180.754 610.22 190.439 Z " fill="rgb(45,74,126)"/><linearGradient id="_lgradient_3" x1="0.01576160623517464" y1="0.014334801775639408" x2="0.9451923076923078" y2="0.9579048890672798" gradientTransform="matrix(260,0,0,357.982,609.22,174.353)" gradientUnits="userSpaceOnUse"><stop offset="1.3043478260869565%" stop-opacity="1" style="stop-color:rgb(189,220,255)"/><stop offset="36.52173913043478%" stop-opacity="1" style="stop-color:rgb(157,199,243)"/><stop offset="100%" stop-opacity="1" style="stop-color:rgb(135,192,252)"/></linearGradient><path d=" M 609.22 189.891 L 609.22 374.45 C 609.22 378.727 612.227 383.936 615.931 386.074 L 857.866 525.779 C 864.132 529.397 869.22 526.46 869.22 519.224 L 869.22 338.119 C 869.22 330.583 863.921 321.405 857.394 317.637 L 622.676 182.122 C 615.249 177.834 609.22 181.315 609.22 189.891 Z " fill="url(#_lgradient_3)"/><clipPath id="_clipPath_AHNJe0ggzf767BEZ04046RFIVYXKMvNo"><path d=" M 609.22 189.891 L 609.22 374.45 C 609.22 378.727 612.227 383.936 615.931 386.074 L 857.866 525.779 C 864.132 529.397 869.22 526.46 869.22 519.224 L 869.22 338.119 C 869.22 330.583 863.921 321.405 857.394 317.637 L 622.676 182.122 C 615.249 177.834 609.22 181.315 609.22 189.891 Z " fill="url(#_lgradient_3)"/></clipPath><g clip-path="url(#_clipPath_AHNJe0ggzf767BEZ04046RFIVYXKMvNo)"><path d=" M 649.22 405.318 L 829.22 509.241 L 827.243 510.398 L 647.243 406.475 L 649.22 405.318 Z " fill="rgb(101,144,204)"/><ellipse vector-effect="non-scaling-stroke" cx="745.1847141708879" cy="259.58075566848805" rx="1.8085937500001137" ry="2.697916666666856" fill="rgb(45,74,126)"/></g><defs><filter id="YrzlZZi79nZ4h9BDVVVukY3ZwBwCKLkY" x="-200%" y="-200%" width="400%" height="400%" filterUnits="objectBoundingBox" color-interpolation-filters="sRGB"><feOffset xmlns="http://www.w3.org/2000/svg" in="SourceGraphic" dx="1" dy="0"/><feGaussianBlur xmlns="http://www.w3.org/2000/svg" stdDeviation="1.2880827188517086" result="pf_100_offsetBlur"/><feComposite xmlns="http://www.w3.org/2000/svg" in="SourceGraphic" in2="pf_100_offsetBlur" result="pf_100_inverse" operator="out"/><feFlood xmlns="http://www.w3.org/2000/svg" flood-color="#000000" flood-opacity="0.5" result="pf_100_color"/><feComposite xmlns="http://www.w3.org/2000/svg" in="pf_100_color" in2="pf_100_inverse" operator="in" result="pf_100_shadow"/><feComposite xmlns="http://www.w3.org/2000/svg" in="pf_100_shadow" in2="SourceGraphic" operator="over"/></filter></defs><g filter="url(#YrzlZZi79nZ4h9BDVVVukY3ZwBwCKLkY)"><linearGradient id="_lgradient_4" x1="0.8666075189466211" y1="0.2506119284464642" x2="0.6102933616357967" y2="1.294506164548129" gradientTransform="matrix(235,0,0,323.538,621.72,194.038)" gradientUnits="userSpaceOnUse"><stop offset="8.26086956521739%" stop-opacity="1" style="stop-color:rgb(255,255,255)"/><stop offset="89.56521739130436%" stop-opacity="1" style="stop-color:rgb(137,173,216)"/></linearGradient><path d=" M 621.72 194.038 L 621.72 381.899 L 856.72 517.576 L 856.72 329.715 L 621.72 194.038 Z " fill="url(#_lgradient_4)"/><clipPath id="_clipPath_v9i9h8vnOewP4zUL3v0bPvCdCQvsXCTX"><path d=" M 621.72 194.038 L 621.72 381.899 L 856.72 517.576 L 856.72 329.715 L 621.72 194.038 Z " fill="url(#_lgradient_4)"/></clipPath><g clip-path="url(#_clipPath_v9i9h8vnOewP4zUL3v0bPvCdCQvsXCTX)"/></g><path d=" M 645.407 403.047 L 643.157 404.53 L 823.157 508.453 L 825.47 507.114 L 645.407 403.047 Z " fill="rgb(45,74,126)"/></g><g><defs><filter id="mkEPKnghIvZxBUD5qo3k1kgQd0Qvkrb5" x="-200%" y="-200%" width="400%" height="400%" filterUnits="objectBoundingBox" color-interpolation-filters="sRGB"><feGaussianBlur xmlns="http://www.w3.org/2000/svg" stdDeviation="8.93070685070518"/></filter></defs><g filter="url(#mkEPKnghIvZxBUD5qo3k1kgQd0Qvkrb5)"><path d=" M 336.396 435.036 C 334.239 420.385 355.602 405.085 384.074 400.892 C 412.546 396.699 437.414 405.19 439.571 419.842 C 441.729 434.494 420.365 449.793 391.893 453.986 C 363.421 458.179 338.554 449.688 336.396 435.036 Z " fill="rgb(105,147,205)"/></g><linearGradient id="_lgradient_5" x1="0.9038694218099329" y1="0.37881302810464046" x2="0.7414050178897468" y2="0.4086970009122774" gradientTransform="matrix(54.531,0,0,98.82,379.658,335.48)" gradientUnits="userSpaceOnUse"><stop offset="0%" stop-opacity="1" style="stop-color:rgb(134,191,251)"/><stop offset="37.826086956521735%" stop-opacity="1" style="stop-color:rgb(121,173,233)"/><stop offset="40.869565217391305%" stop-opacity="1" style="stop-color:rgb(120,172,232)"/><stop offset="68.69565217391305%" stop-opacity="1" style="stop-color:rgb(114,162,222)"/><stop offset="89.56521739130436%" stop-opacity="1" style="stop-color:rgb(109,155,215)"/><stop offset="100%" stop-opacity="1" style="stop-color:rgb(102,145,204)"/></linearGradient><path d=" M 393.729 426.388 L 379.992 434.3 L 379.658 416.921 L 419.715 394.225 C 421.562 393.179 423.062 390.605 423.062 388.482 L 423.062 361.292 C 423.062 359.45 422.718 357.898 422.094 356.681 C 420.777 356.566 419.21 357.059 417.53 358.225 L 393.533 374.875 L 393.863 365.484 L 379.658 373.639 L 380.326 357.9 L 415.028 337.966 C 424.616 332.459 432.574 336.413 433.494 346.75 C 433.759 347.859 433.9 349.11 433.91 350.49 L 434.189 388.659 C 434.241 395.789 429.531 404.886 423.679 408.959 L 393.783 429.766 L 393.729 426.388 Z " fill-rule="evenodd" fill="url(#_lgradient_5)"/><linearGradient id="_lgradient_6" x1="0" y1="0.5" x2="1" y2="0.5" gradientTransform="matrix(86.234,0,0,106.547,334.111,347.344)" gradientUnits="userSpaceOnUse"><stop offset="0%" stop-opacity="1" style="stop-color:rgb(194,220,249)"/><stop offset="100%" stop-opacity="1" style="stop-color:rgb(140,176,218)"/></linearGradient><path d=" M 334.158 429.158 C 334.127 429.525 334.111 429.894 334.111 430.266 C 334.111 443.305 353.431 453.891 377.228 453.891 C 401.025 453.891 420.346 443.305 420.346 430.266 C 420.346 429.894 420.33 429.525 420.299 429.158 L 420.299 347.344 L 334.158 347.344 L 334.158 429.158 Z " fill-rule="evenodd" fill="url(#_lgradient_6)"/><ellipse vector-effect="non-scaling-stroke" cx="377.220565298389" cy="348.14065150182233" rx="43.12500000000006" ry="23.625" fill="rgb(134,191,251)"/><ellipse vector-effect="non-scaling-stroke" cx="376.8455652983864" cy="352.51565150182" rx="36.43750000000057" ry="18" fill="rgb(46,75,128)"/><path d=" M 334.096 347.836 C 334.096 334.525 353.503 323.719 377.408 323.719 C 401.313 323.719 420.721 334.525 420.721 347.836 C 420.721 361.147 401.313 371.953 377.408 371.953 C 353.503 371.953 334.096 361.147 334.096 347.836 Z  M 336.908 346.266 C 336.908 334.675 354.593 325.266 376.377 325.266 C 398.16 325.266 415.846 334.675 415.846 346.266 C 415.846 357.856 398.16 367.266 376.377 367.266 C 354.593 367.266 336.908 357.856 336.908 346.266 Z " fill-rule="evenodd" fill="rgb(227,241,253)"/></g><g><defs><filter id="1NU4zwntafvpN4EtIizDqACucYYxVQRp" x="-200%" y="-200%" width="400%" height="400%" filterUnits="objectBoundingBox" color-interpolation-filters="sRGB"><feGaussianBlur xmlns="http://www.w3.org/2000/svg" stdDeviation="5.452883509805566"/></filter></defs><g filter="url(#1NU4zwntafvpN4EtIizDqACucYYxVQRp)"><path d=" M 809.843 623.856 L 706.396 687.783 C 702.484 690.201 702.484 694.127 706.396 696.545 L 752.888 725.275 C 756.063 727.238 761.219 727.238 764.394 725.275 L 868.689 660.823 C 873.446 657.884 873.446 653.111 868.689 650.171 L 826.106 623.856 C 821.618 621.082 814.331 621.082 809.843 623.856 Z " fill="rgb(66,120,195)"/></g><path d=" M 851.682 648.68 L 706.746 684.993 C 697.466 687.318 696.659 693.088 704.945 697.869 L 749.582 723.629 C 752.742 725.453 757.873 725.452 761.032 723.628 L 866.731 662.602 C 871.465 659.87 871.95 655.059 867.815 651.866 L 867.815 651.866 C 863.913 648.854 856.684 647.426 851.682 648.68 Z " fill="rgb(45,74,126)"/><linearGradient id="_lgradient_7" x1="-0.06993186113597716" y1="1.1487410965937659" x2="1.2467348055306886" y2="-0.18397595158043134" gradientTransform="matrix(180,0,0,103.923,695.308,621.01)" gradientUnits="userSpaceOnUse"><stop offset="0%" stop-opacity="1" style="stop-color:rgb(45,74,126)"/><stop offset="100%" stop-opacity="1" style="stop-color:rgb(169,210,253)"/></linearGradient><path d=" M 807.216 625.682 L 702.361 686.219 C 698.468 688.467 698.468 692.117 702.361 694.365 L 749.583 721.628 C 752.742 723.452 757.873 723.452 761.032 721.628 L 866.731 660.602 C 871.465 657.87 871.465 653.432 866.731 650.7 L 823.399 625.682 C 818.933 623.103 811.682 623.103 807.216 625.682 Z " fill="url(#_lgradient_7)"/><linearGradient id="_lgradient_8" x1="-0.34697526479575586" y1="0.9989811460742367" x2="0.6243122971997712" y2="0.5720304963701213" gradientTransform="matrix(155.906,0,0,90.047,708.495,627.377)" gradientUnits="userSpaceOnUse"><stop offset="1.3043478260869565%" stop-opacity="1" style="stop-color:rgb(152,200,251)"/><stop offset="100%" stop-opacity="1" style="stop-color:rgb(255,255,255)"/></linearGradient><path d=" M 768.495 717.424 L 708.495 682.783 L 804.401 627.377 L 864.401 662.018 L 768.495 717.424 Z " fill="url(#_lgradient_8)"/></g><linearGradient id="_lgradient_9" x1="0.7804818794154044" y1="1.3605163405388794" x2="0.4372965750610609" y2="-0.19342280504046605" gradientTransform="matrix(43.708,0,0,76.258,338.481,273.641)" gradientUnits="userSpaceOnUse"><stop offset="0%" stop-opacity="1" style="stop-color:rgb(255,255,255)"/><stop offset="0%" stop-opacity="1" style="stop-color:rgb(255,255,255)"/><stop offset="100%" stop-opacity="0.2" style="stop-color:rgb(255,255,255)"/></linearGradient><path d=" M 367.137 273.641 Q 344.72 288.266 355.72 298.266 C 357.607 299.981 364.71 301.647 367.345 302.766 C 380.074 308.167 388.185 307.464 376.637 326.141 Q 362.294 349.336 360.571 349.898 Q 371.637 327.641 368.137 319.141 C 366.966 316.297 362.996 314.908 358.326 313.795 C 349.036 311.581 336.973 310.457 338.637 301.141 Q 341.137 287.141 367.137 273.641 Z " fill="url(#_lgradient_9)"/><linearGradient id="_lgradient_10" x1="0.5571033317907526" y1="1.585526315789474" x2="0.41392930491305546" y2="0.012375376767910895" gradientTransform="matrix(14.084,0,0,27.417,379.226,317.266)" gradientUnits="userSpaceOnUse"><stop offset="0%" stop-opacity="1" style="stop-color:rgb(255,255,255)"/><stop offset="98.69565217391305%" stop-opacity="0" style="stop-color:rgb(255,255,255)"/></linearGradient><path d=" M 387.318 317.266 Q 382.156 325.752 386.124 329.36 C 390.093 332.967 396.758 329.24 391.166 336.996 Q 385.574 344.753 384.973 344.682 Q 388.128 340.359 386.866 337.293 C 385.603 334.227 378.402 332.928 379.303 327.877 Q 380.205 322.827 387.318 317.266 Z " fill="url(#_lgradient_10)"/><linearGradient id="_lgradient_11" x1="0.677711803845" y1="1.1868829026451622" x2="0.47920909423795455" y2="0.12350799428632131" gradientTransform="matrix(26.798,0,0,52.167,377.309,265.849)" gradientUnits="userSpaceOnUse"><stop offset="0%" stop-opacity="1" style="stop-color:rgb(255,255,255)"/><stop offset="98.69565217391305%" stop-opacity="0" style="stop-color:rgb(255,255,255)"/></linearGradient><path d=" M 392.706 265.849 Q 382.885 281.997 390.435 288.861 C 397.986 295.725 410.667 288.633 400.028 303.391 Q 389.389 318.149 388.244 318.015 Q 394.249 309.79 391.846 303.955 C 389.444 298.121 375.741 295.649 377.457 286.039 Q 379.173 276.43 392.706 265.849 Z " fill="url(#_lgradient_11)"/><linearGradient id="_lgradient_12" x1="0.4942084942084931" y1="0.22566255575965496" x2="0.7162162162162105" y2="0.4529369869175781" gradientTransform="matrix(16.187,0,0,9.694,824.907,676.703)" gradientUnits="userSpaceOnUse"><stop offset="0%" stop-opacity="1" style="stop-color:rgb(45,74,126)"/><stop offset="56.086956521739125%" stop-opacity="1" style="stop-color:rgb(44,72,123)"/><stop offset="65.65217391304347%" stop-opacity="1" style="stop-color:rgb(43,70,119)"/><stop offset="100%" stop-opacity="1" style="stop-color:rgb(0,0,0)"/><stop offset="100%" stop-opacity="1" style="stop-color:rgb(0,0,0)"/></linearGradient><path d=" M 824.907 685.362 L 839.871 676.703 L 840.056 676.824 C 840.629 677.199 840.617 677.788 840.029 678.139 L 827.533 685.589 C 826.785 686.035 825.63 685.95 824.955 685.4 L 824.907 685.362 Z " fill="url(#_lgradient_12)"/><path d=" M 831.47 636.704 L 831.47 636.704 C 831.684 636.565 832.205 636.653 832.632 636.9 L 845.592 644.383 C 845.93 644.577 846.028 644.849 845.812 644.989 L 845.812 644.989 C 845.563 645.15 845.045 645.099 844.656 644.875 L 831.925 637.524 C 831.422 637.234 831.219 636.867 831.47 636.704 Z " fill="rgb(45,74,126)"/></g></svg>