<?xml version="1.0" standalone="no"?><!-- Generator: Gravit.io --><svg xmlns="http://www.w3.org/2000/svg" xmlns:xlink="http://www.w3.org/1999/xlink" style="isolation:isolate" viewBox="0 0 685.7 599.5" width="685.7" height="599.5"><defs><clipPath id="_clipPath_YsGzfapwstn4LvQMfmTyHGQZLaebVrsN"><rect width="685.7" height="599.5"/></clipPath></defs><g clip-path="url(#_clipPath_YsGzfapwstn4LvQMfmTyHGQZLaebVrsN)"><rect width="685.7" height="599.5" style="fill:rgb(0,0,0)" fill-opacity="0"/><path d="M 340.079 222.76 L 340.079 222.76 C 428.735 222.76 500.712 294.737 500.712 383.393 L 500.712 388.117 C 500.712 476.773 428.735 548.75 340.079 548.75 L 340.079 548.75 C 251.424 548.75 179.447 476.773 179.447 388.117 L 179.447 383.393 C 179.447 294.737 251.424 222.76 340.079 222.76 Z" style="stroke:none;fill:#85B2FC;stroke-miterlimit:10;"/><clipPath id="_clipPath_Dvekui3Q4G46ONQsj0rDiis5zSSclbLB"><path d="M 340.079 222.76 L 340.079 222.76 C 428.735 222.76 500.712 294.737 500.712 383.393 L 500.712 388.117 C 500.712 476.773 428.735 548.75 340.079 548.75 L 340.079 548.75 C 251.424 548.75 179.447 476.773 179.447 388.117 L 179.447 383.393 C 179.447 294.737 251.424 222.76 340.079 222.76 Z" style="stroke:none;fill:#85B2FC;stroke-miterlimit:10;"/></clipPath><g clip-path="url(#_clipPath_Dvekui3Q4G46ONQsj0rDiis5zSSclbLB)"><g><path d=" M 285.398 434.874 L 288.46 490.868 Q 274.024 500.055 274.461 505.742 C 274.899 511.429 302.896 533.301 337.892 533.301 Q 372.888 533.301 400.885 512.303 Q 407.884 496.118 402.197 490.868 Q 396.51 485.619 387.761 481.682 L 384.699 428.313 L 285.398 434.874 Z " fill="rgb(215,225,243)"/><linearGradient id="_lgradient_2" x1="0.1913043478260873" y1="0.550063760059889" x2="3.7391304347826075" y2="0.49728402895968865" gradientTransform="matrix(22.638,0,0,44.757,267.243,385.714)" gradientUnits="userSpaceOnUse"><stop offset="0%" stop-opacity="1" style="stop-color:rgb(230,235,247)"/><stop offset="100%" stop-opacity="1" style="stop-color:rgb(215,225,243)"/></linearGradient><path d=" M 276.889 386.711 Q 264.487 381.396 268.031 404.428 C 271.574 427.46 272.165 431.003 276.889 430.412 Q 281.614 429.822 289.881 422.144 L 276.889 386.711 Z " fill="url(#_lgradient_2)"/><linearGradient id="_lgradient_3" x1="2.433992094861662" y1="0.37333163016376814" x2="-1.7763568394002505e-15" y2="0.5000000000000002" gradientTransform="matrix(-22.638,0,0,44.757,400.907,385.714)" gradientUnits="userSpaceOnUse"><stop offset="0%" stop-opacity="1" style="stop-color:rgb(215,225,243)"/><stop offset="100%" stop-opacity="1" style="stop-color:rgb(230,235,247)"/></linearGradient><path d=" M 391.261 386.711 Q 403.663 381.396 400.119 404.428 C 396.576 427.46 395.986 431.003 391.261 430.412 Q 386.537 429.822 378.269 422.144 L 391.261 386.711 Z " fill="url(#_lgradient_3)"/><defs><filter id="0Ty7vagIwMczeMm08XB9agxx0zUhIaUs" x="-200%" y="-200%" width="400%" height="400%" filterUnits="objectBoundingBox" color-interpolation-filters="sRGB"><feGaussianBlur xmlns="http://www.w3.org/2000/svg" in="SourceGraphic" stdDeviation="7.299135406826348"/><feOffset xmlns="http://www.w3.org/2000/svg" dx="0" dy="3" result="pf_100_offsetBlur"/><feFlood xmlns="http://www.w3.org/2000/svg" flood-color="#000000" flood-opacity="0.03"/><feComposite xmlns="http://www.w3.org/2000/svg" in2="pf_100_offsetBlur" operator="in" result="pf_100_dropShadow"/><feBlend xmlns="http://www.w3.org/2000/svg" in="SourceGraphic" in2="pf_100_dropShadow" mode="normal"/></filter></defs><g filter="url(#0Ty7vagIwMczeMm08XB9agxx0zUhIaUs)"><ellipse vector-effect="non-scaling-stroke" cx="333.92743027351037" cy="384.7915119092222" rx="58.51475015299877" ry="92.27515268029674" fill="rgb(230,235,247)"/></g><path d=" M 275.127 385.516 Q 272.152 358.296 276.316 339.952 C 280.481 321.608 283.456 310.956 287.025 306.814 C 290.595 302.672 297.819 287.648 302.578 285.873 C 307.338 284.097 320.937 279.003 325.697 280.186 C 332.549 280.705 360.342 283.268 370.05 291.631 C 377.046 297.657 395.306 313.915 395.901 340.543 Q 396.495 367.172 392.926 392.616 Q 389.951 363.621 384.002 358.296 C 378.052 352.97 385.786 326.342 373.293 318.057 Q 360.799 309.773 338.191 317.466 Q 309.038 308.589 300.709 315.69 Q 292.38 322.791 295.95 344.686 Q 275.127 368.947 275.127 385.516 Z " fill="rgb(104,101,101)"/><path d=" M 288.7 490.65 Q 272.903 502.756 264.93 505.857 C 256.958 508.957 190.962 538.19 186.533 543.505 Q 182.104 548.82 489.491 545.719 Q 460.701 517.372 452.729 513.829 C 444.756 510.286 411.094 492.126 407.551 491.24 Q 404.007 490.354 387.718 481.201 Q 402.974 492.274 403.86 495.374 Q 403.86 511.024 398.545 513.681 C 393.23 516.339 368.131 530.217 355.729 531.103 C 343.327 531.989 309.813 526.821 298.74 522.835 C 291.801 520.337 275.904 516.418 277.184 504.823 Q 277.929 498.083 288.7 490.65 Z " fill="rgb(43,64,102)"/></g></g><line x1="75.028" y1="239.995" x2="189.91" y2="304.717" vector-effect="non-scaling-stroke" stroke-width="3" stroke-dasharray="1,17" stroke="rgb(182,192,210)" stroke-linejoin="round" stroke-linecap="round" stroke-miterlimit="3"/><line x1="610.931" y1="239.995" x2="496.049" y2="304.717" vector-effect="non-scaling-stroke" stroke-width="3" stroke-dasharray="1,17" stroke="rgb(182,192,210)" stroke-linejoin="round" stroke-linecap="round" stroke-miterlimit="3"/><line x1="208.518" y1="194.69" x2="263.532" y2="233.523" vector-effect="non-scaling-stroke" stroke-width="3" stroke-dasharray="1,17" stroke="rgb(182,192,210)" stroke-linejoin="round" stroke-linecap="round" stroke-miterlimit="3"/><line x1="477.441" y1="194.69" x2="422.427" y2="233.523" vector-effect="non-scaling-stroke" stroke-width="3" stroke-dasharray="1,17" stroke="rgb(182,192,210)" stroke-linejoin="round" stroke-linecap="round" stroke-miterlimit="3"/><line x1="340.389" y1="166.104" x2="340.389" y2="218.96" vector-effect="non-scaling-stroke" stroke-width="3" stroke-dasharray="1,17" stroke="rgb(182,192,210)" stroke-linejoin="round" stroke-linecap="round" stroke-miterlimit="3"/><path d="M 43.237 136.035 L 99.537 136.035 C 110.345 136.035 119.12 144.81 119.12 155.618 L 119.12 211.918 C 119.12 222.726 110.345 231.5 99.537 231.5 L 43.237 231.5 C 32.429 231.5 23.655 222.726 23.655 211.918 L 23.655 155.618 C 23.655 144.81 32.429 136.035 43.237 136.035 Z" style="stroke:none;fill:#9DA4FC;stroke-miterlimit:10;"/><path d="M 639.081 136.035 L 582.781 136.035 C 571.973 136.035 563.198 144.81 563.198 155.618 L 563.198 211.918 C 563.198 222.726 571.973 231.5 582.781 231.5 L 639.081 231.5 C 649.889 231.5 658.664 222.726 658.664 211.918 L 658.664 155.618 C 658.664 144.81 649.889 136.035 639.081 136.035 Z" style="stroke:none;fill:#9DA4FC;stroke-miterlimit:10;"/><path d="M 176.376 88.302 L 232.676 88.302 C 243.484 88.302 252.259 97.077 252.259 107.885 L 252.259 164.185 C 252.259 174.993 243.484 183.768 232.676 183.768 L 176.376 183.768 C 165.568 183.768 156.794 174.993 156.794 164.185 L 156.794 107.885 C 156.794 97.077 165.568 88.302 176.376 88.302 Z" style="stroke:none;fill:#9DA4FC;stroke-miterlimit:10;"/><path d="M 510.065 88.302 L 453.765 88.302 C 442.957 88.302 434.183 97.077 434.183 107.885 L 434.183 164.185 C 434.183 174.993 442.957 183.768 453.765 183.768 L 510.065 183.768 C 520.873 183.768 529.648 174.993 529.648 164.185 L 529.648 107.885 C 529.648 97.077 520.873 88.302 510.065 88.302 Z" style="stroke:none;fill:#9DA4FC;stroke-miterlimit:10;"/><path d="M 312.157 50.75 L 368.457 50.75 C 379.265 50.75 388.039 59.525 388.039 70.333 L 388.039 126.633 C 388.039 137.441 379.265 146.215 368.457 146.215 L 312.157 146.215 C 301.349 146.215 292.574 137.441 292.574 126.633 L 292.574 70.333 C 292.574 59.525 301.349 50.75 312.157 50.75 Z" style="stroke:none;fill:#9DA4FC;stroke-miterlimit:10;"/><path d=" M 484.711 107.011 Q 481.886 105.798 445.158 110.045 L 452.02 159.8 L 481.482 164.654 Q 487.536 108.225 484.711 107.011 Z " fill="rgb(235,235,235)"/><clipPath id="_clipPath_Nnbs5jGT1KxGPMo2nlGe2BQsVMNElvNP"><rect x="11.036" y="143.316" width="120.702" height="80.903" transform="matrix(1,0,0,1,0,0)" fill="rgb(255,255,255)"/></clipPath><g clip-path="url(#_clipPath_Nnbs5jGT1KxGPMo2nlGe2BQsVMNElvNP)"><g><clipPath id="_clipPath_kG1lxafec7Zj7lI4AwnRokwLBFUvUFUG"><rect x="34.851" y="143.316" width="73.074" height="80.903" transform="matrix(1,0,0,1,0,0)" fill="rgb(255,255,255)"/></clipPath><g clip-path="url(#_clipPath_kG1lxafec7Zj7lI4AwnRokwLBFUvUFUG)"><g><g><g><path d=" M 42.994 215.953 L 36.545 143.569 L 107.443 143.569 L 100.994 215.914 L 71.935 223.966" fill="rgb(157,164,252)"/><path d=" M 71.387 217.81 L 71.387 149.511 L 100.368 149.511 L 94.838 211.264" fill="rgb(157,164,252)"/><path d=" M 49.109 158.363 L 71.387 158.363 L 71.387 167.235 L 58.841 167.235 L 59.662 176.322 L 71.387 176.322 L 71.387 185.175 L 51.533 185.175 M 51.924 189.631 L 60.835 189.631 L 61.46 196.724 L 71.387 199.382 L 71.387 208.645 L 53.174 203.564" fill="rgb(235,235,235)"/><path d=" M 93.587 158.363 L 71.348 158.363 L 71.348 167.235 L 92.767 167.235 M 91.965 176.322 L 71.348 176.322 L 71.348 185.195 L 82.292 185.195 L 81.256 196.724 L 71.348 199.382 L 71.348 208.606 L 89.523 203.564" fill="rgb(255,255,255)"/></g></g></g></g></g></g><clipPath id="_clipPath_AESapsQVdOAjgh98cldX6YNqqprLCCiy"><rect x="144.175" y="95.584" width="120.702" height="80.903" transform="matrix(1,0,0,1,0,0)" fill="rgb(255,255,255)"/></clipPath><g clip-path="url(#_clipPath_AESapsQVdOAjgh98cldX6YNqqprLCCiy)"><g><clipPath id="_clipPath_qFv5YGLAiTsE38pGY777bSqMIbIYtuNv"><rect x="167.99" y="95.584" width="73.074" height="80.903" transform="matrix(1,0,0,1,0,0)" fill="rgb(255,255,255)"/></clipPath><g clip-path="url(#_clipPath_qFv5YGLAiTsE38pGY777bSqMIbIYtuNv)"><g><g><g><g><path d=" M 239.998 95.802 L 233.537 168.182 L 204.494 176.233 L 175.531 168.193 L 169.077 95.802 L 239.998 95.802 Z " fill="rgb(157,164,252)"/><path d=" M 228.005 163.573 L 233.527 101.721 L 204.537 101.721 L 204.537 170.079 L 228.005 163.573 Z " fill="rgb(157,164,252)"/><path d=" M 183.873 128.57 L 184.669 137.448 L 204.537 137.448 L 204.537 128.57 L 183.873 128.57 Z " fill="rgb(235,235,235)"/><path d=" M 204.537 110.599 L 204.507 110.599 L 182.274 110.599 L 183.081 119.478 L 204.537 119.478 L 204.537 110.599 Z " fill="rgb(235,235,235)"/><path d=" M 204.537 160.865 L 204.537 151.628 L 204.498 151.638 L 194.611 148.968 L 193.978 141.887 L 189.173 141.887 L 185.065 141.887 L 186.31 155.828 L 204.496 160.877 L 204.537 160.865 Z " fill="rgb(235,235,235)"/><path d=" M 215.439 137.448 L 214.409 148.963 L 204.507 151.636 L 204.507 160.872 L 222.708 155.828 L 222.842 154.328 L 224.928 130.954 L 225.144 128.57 L 226.747 110.599 L 204.507 110.599 L 204.507 119.478 L 217.017 119.478 L 216.21 128.57 L 204.507 128.57 L 204.507 137.448 L 215.439 137.448 Z " fill="rgb(255,255,255)"/></g></g></g></g></g></g></g><clipPath id="_clipPath_wUKC2EXHzJ9DkMECdaLUA9kFhihEmuRy"><rect x="419.191" y="98.483" width="120.702" height="80.903" transform="matrix(1,0,0,1,0,0)" fill="rgb(255,255,255)"/></clipPath><g clip-path="url(#_clipPath_wUKC2EXHzJ9DkMECdaLUA9kFhihEmuRy)"><g><clipPath id="_clipPath_bGCB0qY91IjklTmIptBoLowIUWAvRFCr"><rect x="438.694" y="98.483" width="73.074" height="80.903" transform="matrix(1,0,0,1,0,0)" fill="rgb(255,255,255)"/></clipPath><g clip-path="url(#_clipPath_bGCB0qY91IjklTmIptBoLowIUWAvRFCr)"><g><g><path d=" M 476.862 110.502 L 477.413 164.176 L 498.24 160.506 L 502.735 110.043 L 476.862 110.502 Z " fill="rgb(255,255,255)"/><g><path d=" M 446.365 171 L 439.782 98.531 L 510.702 98.558 L 504.175 170.945 L 475.187 179.132 L 446.365 171 Z  M 498.836 167.045 L 504.34 104.976 L 493.741 104.976 L 484.519 104.976 L 475.297 104.976 L 475.519 173.434 L 498.836 167.045 L 498.836 167.045 Z  M 472.587 114.075 L 465.533 114.075 L 465.45 151.223 L 451.759 147.489 L 451.786 155.98 L 472.587 161.595 L 472.587 114.075 L 472.587 114.075 Z " fill="rgb(157,164,252)"/><g style="opacity:0.986;"><g style="opacity:0.986;"><g opacity="0.986"><path d=" M 465.592 160.559 C 464.68 160.282 460.171 159.065 455.579 157.82 L 447.254 155.58 L 447.254 151.403 C 447.254 147.309 447.254 147.226 447.668 147.364 C 447.89 147.448 450.933 148.277 454.418 149.245 L 460.752 150.988 L 460.807 132.456 L 460.863 113.923 L 467.777 113.923 L 467.777 137.49 C 467.777 156.216 467.722 161.056 467.529 161.056 C 467.39 161.028 466.505 160.807 465.592 160.559 L 465.592 160.559 Z " fill="none"/></g></g></g><path d=" M 475.242 104.976 L 504.285 104.976 L 498.781 167.045 L 475.242 173.434 L 475.242 104.976 Z  M 497.287 156.645 L 499.195 133.438 L 485.089 135.014 L 485.089 122.622 L 500.136 122.568 L 500.745 114.103 L 478.036 114.214 L 478.34 145.027 L 492.059 142.677 L 491.866 149.536 L 478.036 153.215 L 478.174 161.623 L 497.287 156.645 Z " fill="rgb(157,164,252)"/></g></g></g></g></g></g><clipPath id="_clipPath_dhiulTbSL8YLMi8bBjeJmBtYytMWETqB"><rect x="572.306" y="157.879" width="77.249" height="51.778" transform="matrix(1,0,0,1,0,0)" fill="rgb(255,255,255)"/></clipPath><g clip-path="url(#_clipPath_dhiulTbSL8YLMi8bBjeJmBtYytMWETqB)"><g><g><path d=" M 636.137 187.459 C 633.843 187.472 631.849 188.024 630.179 188.841 C 629.566 187.628 628.954 186.547 628.846 185.754 C 628.726 184.829 628.582 184.265 628.726 183.159 C 628.87 182.054 629.518 180.481 629.507 180.361 C 629.495 180.241 629.362 179.676 628.041 179.664 C 626.72 179.652 625.579 179.917 625.447 180.265 C 625.315 180.613 625.063 181.406 624.894 182.223 C 624.666 183.424 622.252 187.712 620.871 189.958 C 620.426 189.081 620.042 188.313 619.957 187.7 C 619.838 186.775 619.693 186.21 619.838 185.105 C 619.982 184 620.63 182.427 620.618 182.307 C 620.606 182.186 620.474 181.622 619.153 181.61 C 617.832 181.598 616.69 181.862 616.558 182.211 C 616.426 182.559 616.282 183.376 616.006 184.169 C 615.73 184.961 612.523 192.12 611.682 193.97 C 611.25 194.918 610.877 195.675 610.613 196.192 C 610.613 196.192 610.613 196.192 610.613 196.192 C 610.613 196.192 610.601 196.228 610.565 196.288 C 610.337 196.732 610.204 196.972 610.204 196.972 C 610.204 196.972 610.204 196.972 610.204 196.984 C 610.024 197.309 609.832 197.609 609.736 197.609 C 609.664 197.609 609.532 196.744 609.76 195.567 C 610.241 193.081 611.381 189.213 611.37 189.081 C 611.37 189.009 611.586 188.336 610.625 187.988 C 609.688 187.64 609.352 188.216 609.268 188.216 C 609.183 188.216 609.123 188.421 609.123 188.421 C 609.123 188.421 610.168 184.073 607.129 184.073 C 605.232 184.073 602.613 186.15 601.316 188.024 C 600.499 188.469 598.758 189.417 596.896 190.438 C 596.188 190.835 595.455 191.231 594.77 191.603 C 594.722 191.555 594.674 191.495 594.626 191.447 C 590.951 187.52 584.152 184.745 584.44 179.472 C 584.548 177.55 585.209 172.506 597.497 166.38 C 607.61 161.395 615.658 162.776 617.051 165.839 C 619.045 170.212 612.739 178.331 602.289 179.508 C 598.301 179.952 596.211 178.415 595.683 177.839 C 595.13 177.238 595.046 177.202 594.842 177.322 C 594.506 177.502 594.722 178.043 594.842 178.355 C 595.155 179.172 596.44 180.613 598.614 181.322 C 600.535 181.946 605.208 182.295 610.865 180.109 C 617.195 177.658 622.144 170.848 620.69 165.143 C 619.237 159.353 609.628 157.444 600.535 160.674 C 595.13 162.596 589.269 165.623 585.053 169.563 C 580.044 174.247 579.252 178.319 579.576 180.025 C 580.741 186.078 589.089 190.018 592.428 192.937 C 592.26 193.033 592.103 193.117 591.971 193.189 C 590.302 194.018 583.936 197.345 582.35 200.864 C 580.549 204.852 582.639 207.71 584.02 208.095 C 588.308 209.284 592.716 207.146 595.082 203.615 C 597.449 200.083 597.161 195.495 596.067 193.393 C 596.055 193.369 596.043 193.345 596.019 193.321 C 596.452 193.069 596.896 192.805 597.328 192.552 C 598.181 192.048 599.022 191.58 599.743 191.195 C 599.334 192.312 599.034 193.645 598.89 195.567 C 598.71 197.825 599.635 200.756 600.848 201.909 C 601.388 202.414 602.025 202.425 602.433 202.425 C 603.851 202.425 604.487 201.249 605.196 199.855 C 606.06 198.149 606.841 196.168 606.841 196.168 C 606.841 196.168 605.868 201.525 608.511 201.525 C 609.472 201.525 610.445 200.276 610.877 199.639 C 610.877 199.651 610.877 199.651 610.877 199.651 C 610.877 199.651 610.901 199.615 610.949 199.531 C 611.045 199.375 611.105 199.279 611.105 199.279 C 611.105 199.279 611.105 199.266 611.105 199.255 C 611.49 198.582 612.354 197.057 613.64 194.522 C 615.297 191.255 616.895 187.171 616.895 187.171 C 616.895 187.171 617.039 188.168 617.531 189.826 C 617.819 190.799 618.42 191.868 618.901 192.901 C 618.516 193.441 618.276 193.741 618.276 193.741 C 618.276 193.741 618.276 193.741 618.288 193.753 C 617.976 194.162 617.64 194.606 617.267 195.039 C 615.958 196.6 614.396 198.39 614.18 198.906 C 613.928 199.519 613.988 199.963 614.469 200.324 C 614.817 200.588 615.441 200.624 616.078 200.588 C 617.255 200.504 618.084 200.216 618.492 200.035 C 619.129 199.807 619.873 199.459 620.57 198.942 C 621.855 197.993 622.636 196.636 622.564 194.847 C 622.528 193.862 622.204 192.876 621.807 191.952 C 621.927 191.784 622.036 191.615 622.155 191.447 C 624.186 188.48 625.759 185.225 625.759 185.225 C 625.759 185.225 625.903 186.223 626.395 187.88 C 626.636 188.721 627.128 189.634 627.561 190.522 C 625.651 192.072 624.474 193.874 624.053 195.051 C 623.297 197.237 623.885 198.222 625.002 198.45 C 625.507 198.558 626.228 198.318 626.756 198.089 C 627.428 197.873 628.221 197.501 628.978 196.949 C 630.263 195.999 631.501 194.678 631.428 192.889 C 631.392 192.072 631.176 191.267 630.876 190.486 C 632.497 189.814 634.587 189.442 637.254 189.754 C 642.971 190.426 644.1 193.993 643.884 195.495 C 643.668 196.997 642.467 197.813 642.07 198.066 C 641.674 198.318 641.542 198.402 641.578 198.582 C 641.626 198.846 641.818 198.834 642.154 198.786 C 642.623 198.702 645.157 197.573 645.265 194.81 C 645.445 191.279 642.082 187.424 636.137 187.459 Z  M 592.032 202.329 C 590.134 204.395 587.491 205.176 586.35 204.516 C 585.125 203.807 585.606 200.756 587.936 198.57 C 589.353 197.237 591.179 195.999 592.392 195.243 C 592.668 195.075 593.076 194.834 593.569 194.534 C 593.653 194.486 593.701 194.462 593.701 194.462 L 593.701 194.462 C 593.797 194.402 593.893 194.342 593.99 194.282 C 594.842 197.405 594.025 200.155 592.032 202.329 Z  M 605.845 192.937 C 605.184 194.546 603.803 198.666 602.962 198.438 C 602.241 198.245 601.797 195.123 602.818 192.036 C 603.334 190.486 604.427 188.637 605.064 187.916 C 606.097 186.763 607.238 186.378 607.514 186.847 C 607.862 187.459 606.253 191.928 605.845 192.937 Z  M 617.243 198.39 C 616.967 198.534 616.702 198.63 616.583 198.558 C 616.498 198.51 616.702 198.318 616.702 198.318 C 616.702 198.318 618.132 196.78 618.696 196.084 C 619.021 195.675 619.405 195.195 619.813 194.654 C 619.813 194.702 619.813 194.762 619.813 194.81 C 619.813 196.648 618.036 197.885 617.243 198.39 Z  M 626.035 196.384 C 625.831 196.24 625.867 195.759 626.552 194.258 C 626.816 193.669 627.441 192.684 628.51 191.736 C 628.63 192.12 628.714 192.492 628.702 192.841 C 628.69 195.159 627.032 196.024 626.035 196.384 Z " fill="rgb(255,255,255)"/></g></g></g><clipPath id="_clipPath_y0AF050DvGB1scSYb9MBrEP8DhvqM4bf"><rect x="279.728" y="58.259" width="120.702" height="80.903" transform="matrix(1,0,0,1,0,0)" fill="rgb(255,255,255)"/></clipPath><g clip-path="url(#_clipPath_y0AF050DvGB1scSYb9MBrEP8DhvqM4bf)"><g><clipPath id="_clipPath_4wpr27co4SCAVwE2bvuuIKmVhwA5N9uf"><rect x="300.854" y="72.429" width="79.99" height="53.615" transform="matrix(1,0,0,1,0,0)" fill="rgb(255,255,255)"/></clipPath><g clip-path="url(#_clipPath_4wpr27co4SCAVwE2bvuuIKmVhwA5N9uf)"><g><g><clipPath id="_clipPath_MQcdOXOLFmfkCapUZ6eAdmkOS10bIWLu"><rect x="301.082" y="72.429" width="79.99" height="53.615" transform="matrix(1,0,0,1,0,0)" fill="rgb(255,255,255)"/></clipPath><g clip-path="url(#_clipPath_MQcdOXOLFmfkCapUZ6eAdmkOS10bIWLu)"><g><g><g><g><g><path d=" M 311.428 75.134 L 371.956 75.134 C 372.384 75.134 372.731 75.481 372.731 75.909 L 372.731 112.87 C 372.731 113.298 372.384 113.645 371.956 113.645 L 311.428 113.645 C 311 113.645 310.653 113.298 310.653 112.87 L 310.653 75.909 C 310.653 75.481 311 75.134 311.428 75.134 L 311.428 75.134 L 311.428 75.134 Z  M 310.687 72.429 L 372.648 72.429 C 374.422 72.429 375.862 73.87 375.862 75.643 L 375.862 113.136 C 375.862 114.909 374.422 116.349 372.648 116.349 L 310.687 116.349 C 308.913 116.349 307.473 114.909 307.473 113.136 L 307.473 75.643 C 307.473 73.87 308.913 72.429 310.687 72.429 L 310.687 72.429 L 310.687 72.429 Z  M 340.425 73.788 C 340.425 73.445 340.703 73.167 341.046 73.167 C 341.389 73.167 341.668 73.445 341.668 73.788 C 341.668 74.131 341.389 74.409 341.046 74.409 C 340.703 74.409 340.425 74.131 340.425 73.788 Z " fill-rule="evenodd" fill="rgb(255,255,255)"/><path d=" M 334.04 116.751 L 303.852 116.751 C 303.025 116.751 302.354 117.064 302.354 117.449 L 302.354 117.449 C 302.354 119.463 305.864 121.099 310.188 121.099 L 372.73 121.099 C 376.598 121.099 379.739 119.494 379.739 117.516 L 379.739 117.516 C 379.739 117.094 379.067 116.751 378.24 116.751 L 348.792 116.751 L 348.792 117.475 L 334.04 117.475 L 334.04 116.751 L 334.04 116.751 Z " fill-rule="evenodd" fill="rgb(255,255,255)"/></g><g><path d=" M 303.777 81.627 L 339.537 81.627 C 341.025 81.627 342.233 82.834 342.233 84.322 L 342.233 107.193 C 342.233 108.681 341.025 109.889 339.537 109.889 L 303.777 109.889 C 302.289 109.889 301.082 108.681 301.082 107.193 L 301.082 84.322 C 301.082 82.834 302.289 81.627 303.777 81.627 Z  M 304.543 83.8 L 338.771 83.8 C 339.039 83.8 339.257 84.018 339.257 84.286 L 339.257 107.229 C 339.257 107.497 339.039 107.715 338.771 107.715 L 304.543 107.715 C 304.276 107.715 304.058 107.497 304.058 107.229 L 304.058 84.286 C 304.058 84.018 304.276 83.8 304.543 83.8 Z " fill-rule="evenodd" fill="rgb(255,255,255)"/><path d=" M 322.466 108.82 L 322.466 108.991 C 322.466 109.168 322.322 109.313 322.144 109.313 L 320.634 109.313 C 320.456 109.313 320.312 109.168 320.312 108.991 L 320.312 108.82 C 320.312 108.642 320.456 108.497 320.634 108.497 L 322.144 108.497 C 322.322 108.497 322.466 108.642 322.466 108.82 Z " fill="rgb(255,255,255)"/><circle vector-effect="non-scaling-stroke" cx="321.65730208381393" cy="82.77810497572507" r="0.26851786095096486" fill="rgb(255,255,255)"/><path d=" M 304.026 83.733 L 339.444 83.733 C 339.526 83.733 339.593 83.799 339.593 83.881 L 339.593 107.705 C 339.593 107.787 339.526 107.854 339.444 107.854 L 304.026 107.854 C 303.944 107.854 303.877 107.787 303.877 107.705 L 303.877 83.881 C 303.877 83.799 303.944 83.733 304.026 83.733 Z " fill="rgb(157,164,252)"/></g><g><path d=" M 359.347 98.916 L 368.996 98.916 C 370.062 98.916 370.927 99.781 370.927 100.846 L 370.927 123.954 C 370.927 125.019 370.062 125.885 368.996 125.885 L 359.347 125.885 C 358.281 125.885 357.416 125.019 357.416 123.954 L 357.416 100.846 C 357.416 99.781 358.281 98.916 359.347 98.916 Z " fill="rgb(255,255,255)"/><clipPath id="_clipPath_3QTqVoYF6mIYw4fQgLR4y9mEyBzacEN0"><path d=" M 141.102 -34.8 L 461.061 -34.8 L 461.061 179.659 L 141.102 179.659 L 141.102 -34.8 Z  M 359.347 98.916 L 368.996 98.916 C 370.062 98.916 370.927 99.781 370.927 100.846 L 370.927 123.954 C 370.927 125.019 370.062 125.885 368.996 125.885 L 359.347 125.885 C 358.281 125.885 357.416 125.019 357.416 123.954 L 357.416 100.846 C 357.416 99.781 358.281 98.916 359.347 98.916 Z " fill-rule="evenodd" fill="rgb(255,255,255)"/></clipPath><g clip-path="url(#_clipPath_3QTqVoYF6mIYw4fQgLR4y9mEyBzacEN0)"><g><clipPath id="_clipPath_80t1RHr1JxvXWfLXxOmyvkrtMuVIH2m9"><path d=" M 141.102 -34.8 L 461.061 -34.8 L 461.061 179.659 L 141.102 179.659 L 141.102 -34.8 Z  M 359.347 98.916 L 368.996 98.916 C 370.062 98.916 370.927 99.781 370.927 100.846 L 370.927 123.954 C 370.927 125.019 370.062 125.885 368.996 125.885 L 359.347 125.885 C 358.281 125.885 357.416 125.019 357.416 123.954 L 357.416 100.846 C 357.416 99.781 358.281 98.916 359.347 98.916 Z " fill-rule="evenodd" fill="rgb(255,255,255)"/></clipPath><g clip-path="url(#_clipPath_80t1RHr1JxvXWfLXxOmyvkrtMuVIH2m9)"><path d=" M 359.347 98.916 L 368.996 98.916 C 370.062 98.916 370.927 99.781 370.927 100.846 L 370.927 123.954 C 370.927 125.019 370.062 125.885 368.996 125.885 L 362.717 125.885 L 359.347 125.885 C 358.281 125.885 357.416 125.019 357.416 123.954 L 357.416 100.846 C 357.416 99.781 358.281 98.916 359.347 98.916 Z " fill="none" vector-effect="non-scaling-stroke" stroke-width="0.1" stroke="rgb(255,255,255)" stroke-linejoin="miter" stroke-linecap="square" stroke-miterlimit="3"/></g></g></g><rect x="357.416" y="101.685" width="13.51" height="21.43" transform="matrix(1,0,0,1,0,0)" fill="rgb(157,164,252)"/><path d=" M 362.629 100.251 L 365.715 100.251 C 365.849 100.251 365.957 100.305 365.957 100.371 L 365.957 100.371 C 365.957 100.437 365.849 100.492 365.715 100.492 L 362.629 100.492 C 362.495 100.492 362.386 100.437 362.386 100.371 L 362.386 100.371 C 362.386 100.305 362.495 100.251 362.629 100.251 Z " fill="rgb(157,164,252)"/><circle vector-effect="non-scaling-stroke" cx="360.6969952652123" cy="100.32423744993271" r="0.20704991687830443" fill="rgb(157,164,252)"/><circle vector-effect="non-scaling-stroke" cx="360.1292255712726" cy="100.32423744993271" r="0.20704991687830443" fill="rgb(157,164,252)"/><path d=" M 371.127 106.147 L 371.127 106.147 C 371.224 106.147 371.302 106.233 371.302 106.338 L 371.302 108.556 C 371.302 108.662 371.224 108.748 371.127 108.748 L 371.127 108.748 L 371.127 106.147 L 371.127 106.147 Z " fill="rgb(255,255,255)"/></g></g></g></g></g></g></g></g></g></g></g></g></svg>