<?xml version="1.0" standalone="no"?><!-- Generator: Gravit.io --><svg xmlns="http://www.w3.org/2000/svg" xmlns:xlink="http://www.w3.org/1999/xlink" style="isolation:isolate" viewBox="0 0 511.802 511.802" width="511.802" height="511.802"><defs><clipPath id="_clipPath_JxGNefasRsgVJjdEVutHiJ57aLpECFlF"><rect width="511.802" height="511.802"/></clipPath></defs><g clip-path="url(#_clipPath_JxGNefasRsgVJjdEVutHiJ57aLpECFlF)"><g><g><path d=" M 248.871 376.531 C 247.001 378.391 245.941 380.971 245.941 383.601 C 245.941 386.231 247.001 388.811 248.871 390.671 C 250.731 392.531 253.301 393.601 255.941 393.601 C 258.571 393.601 261.151 392.531 263.01 390.671 C 264.87 388.811 265.941 386.231 265.941 383.601 C 265.941 380.971 264.871 378.391 263.01 376.531 C 261.151 374.671 258.571 373.601 255.941 373.601 C 253.3 373.601 250.731 374.671 248.871 376.531 Z " fill="rgb(166,198,234)"/><path d=" M 370.901 407.601 C 368.271 407.601 365.691 408.671 363.831 410.531 C 361.971 412.391 360.901 414.971 360.901 417.601 C 360.901 420.231 361.97 422.811 363.831 424.671 C 365.691 426.531 368.271 427.601 370.901 427.601 C 373.531 427.601 376.111 426.531 377.97 424.671 C 379.83 422.811 380.901 420.231 380.901 417.601 C 380.901 414.971 379.831 412.391 377.97 410.531 C 376.111 408.671 373.531 407.601 370.901 407.601 Z " fill="rgb(166,198,234)"/><path d=" M 434.901 75.602 L 425.901 75.602 L 425.901 10 C 425.901 4.477 421.423 0 415.901 0 L 95.901 0 C 90.379 0 85.901 4.477 85.901 10 L 85.901 75.602 L 76.901 75.602 C 49.331 75.602 26.901 98.032 26.901 125.602 L 26.901 377.602 C 26.901 405.172 49.331 427.602 76.901 427.602 L 205.937 427.602 L 205.937 451.826 C 178.817 452.35 156.913 474.558 156.913 501.801 C 156.913 507.324 161.391 511.801 166.913 511.801 L 344.962 511.801 C 350.484 511.801 354.962 507.324 354.962 501.801 C 354.962 474.558 333.058 452.349 305.938 451.826 L 305.938 427.602 L 333.906 427.602 C 339.428 427.602 343.906 423.125 343.906 417.602 C 343.906 412.079 339.428 407.602 333.906 407.602 L 295.938 407.602 L 215.938 407.602 L 76.901 407.602 C 60.359 407.602 46.901 394.144 46.901 377.602 L 46.901 359.602 L 95.901 359.602 L 415.901 359.602 L 464.901 359.602 L 464.901 377.602 C 464.901 394.144 451.443 407.602 434.901 407.602 L 411.901 407.602 C 406.379 407.602 401.901 412.079 401.901 417.602 C 401.901 423.125 406.379 427.602 411.901 427.602 L 434.901 427.602 C 462.471 427.602 484.901 405.172 484.901 377.602 L 484.901 125.602 C 484.901 98.032 462.471 75.602 434.901 75.602 Z  M 333.248 491.802 L 178.626 491.802 C 182.753 480.161 193.875 471.802 206.912 471.802 L 304.961 471.802 C 317.999 471.802 329.121 480.161 333.248 491.802 Z  M 285.937 427.602 L 285.937 451.604 L 225.937 451.604 L 225.937 427.602 L 285.937 427.602 L 285.937 427.602 Z  M 405.901 20 L 405.901 64.8 L 105.901 64.8 L 105.901 20 L 405.901 20 L 405.901 20 Z  M 105.901 339.602 L 105.901 208.802 C 105.901 203.279 101.423 198.802 95.901 198.802 C 90.379 198.802 85.901 203.279 85.901 208.802 L 85.901 339.602 L 46.901 339.602 L 46.901 125.602 C 46.901 109.06 60.359 95.602 76.901 95.602 L 85.901 95.602 L 85.901 130.802 C 85.901 136.325 90.379 140.802 95.901 140.802 C 101.423 140.802 105.901 136.325 105.901 130.802 L 105.901 84.8 L 405.901 84.8 L 405.901 339.602 L 105.901 339.602 L 105.901 339.602 Z  M 425.901 339.602 L 425.901 95.602 L 434.901 95.602 C 451.443 95.602 464.901 109.06 464.901 125.602 L 464.901 339.602 L 425.901 339.602 L 425.901 339.602 Z " fill="rgb(166,198,234)"/><path d=" M 264.901 52.4 L 368.234 52.4 C 373.756 52.4 378.234 47.923 378.234 42.4 C 378.234 36.877 373.756 32.4 368.234 32.4 L 264.901 32.4 C 259.379 32.4 254.901 36.877 254.901 42.4 C 254.901 47.923 259.378 52.4 264.901 52.4 Z " fill="rgb(166,198,234)"/><path d=" M 167.63 52.401 C 170.26 52.401 172.84 51.331 174.7 49.471 C 176.56 47.611 177.63 45.031 177.63 42.401 C 177.63 39.771 176.561 37.191 174.7 35.331 C 172.84 33.471 170.26 32.401 167.63 32.401 C 164.99 32.401 162.42 33.471 160.561 35.331 C 158.701 37.191 157.63 39.761 157.63 42.401 C 157.63 45.031 158.7 47.611 160.561 49.471 C 162.42 51.331 165 52.401 167.63 52.401 Z " fill="rgb(166,198,234)"/><path d=" M 131.021 52.401 C 133.651 52.401 136.231 51.331 138.09 49.471 C 139.96 47.611 141.021 45.031 141.021 42.401 C 141.021 39.771 139.96 37.191 138.09 35.331 C 136.231 33.471 133.651 32.401 131.021 32.401 C 128.391 32.401 125.811 33.471 123.951 35.331 C 122.091 37.191 121.021 39.771 121.021 42.401 C 121.021 45.031 122.09 47.611 123.951 49.471 C 125.812 51.331 128.391 52.401 131.021 52.401 Z " fill="rgb(166,198,234)"/><path d=" M 204.231 52.401 C 206.871 52.401 209.441 51.331 211.3 49.471 C 213.17 47.611 214.231 45.031 214.231 42.401 C 214.231 39.771 213.17 37.191 211.3 35.331 C 209.441 33.471 206.861 32.401 204.231 32.401 C 201.601 32.401 199.021 33.471 197.161 35.331 C 195.301 37.191 194.231 39.771 194.231 42.401 C 194.231 45.031 195.3 47.611 197.161 49.471 C 199.022 51.331 201.601 52.401 204.231 52.401 Z " fill="rgb(166,198,234)"/><path d=" M 95.901 159.801 C 93.271 159.801 90.691 160.871 88.831 162.731 C 86.971 164.591 85.901 167.171 85.901 169.801 C 85.901 172.431 86.97 175.011 88.831 176.871 C 90.691 178.731 93.271 179.801 95.901 179.801 C 98.531 179.801 101.111 178.731 102.97 176.871 C 104.83 175.011 105.901 172.431 105.901 169.801 C 105.901 167.171 104.831 164.591 102.97 162.731 C 101.111 160.871 98.531 159.801 95.901 159.801 Z " fill="rgb(166,198,234)"/><path d=" M 201.783 163.188 C 197.877 159.283 191.547 159.283 187.64 163.188 L 143.585 207.243 C 139.68 211.148 139.68 217.48 143.585 221.386 L 187.64 265.441 C 189.593 267.394 192.152 268.37 194.711 268.37 C 197.27 268.37 199.829 267.394 201.782 265.441 C 205.687 261.536 205.687 255.204 201.782 251.298 L 164.799 214.315 L 201.782 177.332 C 205.688 173.426 205.688 167.094 201.783 163.188 Z " fill="rgb(166,198,234)"/><path d=" M 324.162 163.188 C 320.256 159.283 313.926 159.283 310.019 163.188 C 306.114 167.093 306.114 173.425 310.019 177.331 L 347.002 214.314 L 310.019 251.297 C 306.114 255.202 306.114 261.534 310.019 265.44 C 311.972 267.393 314.531 268.369 317.09 268.369 C 319.649 268.369 322.208 267.393 324.161 265.44 L 368.216 221.385 C 372.121 217.48 372.121 211.148 368.216 207.242 L 324.162 163.188 L 324.162 163.188 Z " fill="rgb(166,198,234)"/><path d=" M 279.303 162.167 C 274.25 159.924 268.346 162.199 266.104 167.245 L 227.42 254.309 C 225.178 259.356 227.451 265.266 232.498 267.508 C 233.818 268.094 235.196 268.372 236.553 268.372 C 240.385 268.372 244.041 266.157 245.698 262.43 L 284.382 175.366 C 286.624 170.318 284.35 164.409 279.303 162.167 Z " fill="rgb(166,198,234)"/></g></g></g></svg>