<?xml version="1.0" standalone="no"?><!-- Generator: Gravit.io --><svg xmlns="http://www.w3.org/2000/svg" xmlns:xlink="http://www.w3.org/1999/xlink" style="isolation:isolate" viewBox="0 0 512 512" width="512" height="512"><defs><clipPath id="_clipPath_ggq7YExEMj12CVazbVMG7VXregxOhvna"><rect width="512" height="512"/></clipPath></defs><g clip-path="url(#_clipPath_ggq7YExEMj12CVazbVMG7VXregxOhvna)"><g><g><path d=" M 502 437.901 L 495 437.901 L 495 385.627 C 505.308 377.966 512 365.701 512 351.901 C 512 338.101 505.308 325.836 495 318.175 L 495 183.913 C 495 156.343 472.57 133.913 445 133.913 L 426 133.913 L 426 10.099 C 426 4.577 421.522 0.099 416 0.099 L 96 0.099 C 90.478 0.099 86 4.577 86 10.099 L 86 133.913 L 67 133.913 C 39.43 133.913 17 156.343 17 183.913 L 17 437.901 L 10 437.901 C 4.478 437.901 0 442.379 0 447.901 L 0 461.901 C 0 489.471 22.43 511.901 50 511.901 L 462 511.901 C 489.57 511.901 512 489.471 512 461.901 L 512 447.901 C 512 442.379 507.522 437.901 502 437.901 Z  M 475 437.901 L 426 437.901 L 426 393.901 L 470 393.901 C 471.693 393.901 473.359 393.789 475 393.593 L 475 437.901 L 475 437.901 Z  M 470 329.901 C 482.131 329.901 492 339.77 492 351.901 C 492 364.032 482.131 373.901 470 373.901 L 458 373.901 L 458 329.901 L 470 329.901 L 470 329.901 Z  M 445 153.913 C 461.542 153.913 475 167.371 475 183.913 L 475 310.209 C 473.359 310.013 471.693 309.901 470 309.901 L 426 309.901 L 426 153.913 L 445 153.913 L 445 153.913 Z  M 406 20.099 L 406 64.899 L 106 64.899 L 106 20.099 L 406 20.099 L 406 20.099 Z  M 37 183.913 C 37 167.371 50.458 153.913 67 153.913 L 86 153.913 L 86 171.675 C 86 177.197 90.478 181.675 96 181.675 C 101.522 181.675 106 177.197 106 171.675 L 106 84.898 L 406 84.898 L 406 309.901 L 249 309.901 C 247.641 309.901 246.295 310.178 245.046 310.716 L 170.718 342.716 C 167.049 344.295 164.672 347.906 164.672 351.901 C 164.672 355.896 167.049 359.506 170.718 361.086 L 245.046 393.086 C 246.295 393.624 247.641 393.901 249 393.901 L 302.084 393.901 C 307.606 393.901 312.084 389.423 312.084 383.901 C 312.084 378.379 307.606 373.901 302.084 373.901 L 259 373.901 L 259 329.901 L 438 329.901 L 438 373.901 L 379.5 373.901 C 373.978 373.901 369.5 378.379 369.5 383.901 C 369.5 389.423 373.978 393.901 379.5 393.901 L 406 393.901 L 406 437.901 L 106 437.901 L 106 254.234 C 106 248.712 101.522 244.234 96 244.234 C 90.478 244.234 86 248.712 86 254.234 L 86 437.901 L 37 437.901 L 37 183.913 L 37 183.913 Z  M 199.961 351.901 L 239 335.094 L 239 368.708 L 199.961 351.901 L 199.961 351.901 Z  M 492 461.901 C 492 478.443 478.542 491.901 462 491.901 L 50 491.901 C 33.458 491.901 20 478.443 20 461.901 L 20 457.901 L 28.348 457.901 C 28.426 457.902 28.501 457.913 28.579 457.913 L 483.421 457.913 C 483.499 457.913 483.575 457.903 483.652 457.901 L 492 457.901 L 492 461.901 L 492 461.901 Z " fill="rgb(166,198,234)"/><path d=" M 274 464.901 L 237.917 464.901 C 232.395 464.901 227.917 469.379 227.917 474.901 C 227.917 480.423 232.395 484.901 237.917 484.901 L 274 484.901 C 279.522 484.901 284 480.423 284 474.901 C 284 469.379 279.522 464.901 274 464.901 Z " fill="rgb(166,198,234)"/><path d=" M 265 52.499 L 368.333 52.499 C 373.855 52.499 378.333 48.021 378.333 42.499 C 378.333 36.977 373.855 32.499 368.333 32.499 L 265 32.499 C 259.478 32.499 255 36.977 255 42.499 C 255 48.021 259.478 52.499 265 52.499 Z " fill="rgb(166,198,234)"/><path d=" M 167.729 52.5 C 170.359 52.5 172.929 51.43 174.799 49.569 C 176.659 47.71 177.729 45.13 177.729 42.5 C 177.729 39.87 176.66 37.29 174.799 35.43 C 172.939 33.56 170.359 32.5 167.729 32.5 C 165.099 32.5 162.519 33.56 160.66 35.43 C 158.8 37.29 157.729 39.87 157.729 42.5 C 157.729 45.13 158.799 47.71 160.66 49.569 C 162.52 51.43 165.1 52.5 167.729 52.5 Z " fill="rgb(166,198,234)"/><path d=" M 131.12 52.5 C 133.75 52.5 136.33 51.43 138.189 49.569 C 140.049 47.71 141.12 45.13 141.12 42.5 C 141.12 39.87 140.05 37.29 138.189 35.43 C 136.33 33.56 133.75 32.5 131.12 32.5 C 128.49 32.5 125.91 33.56 124.05 35.43 C 122.19 37.29 121.12 39.87 121.12 42.5 C 121.12 45.13 122.189 47.71 124.05 49.569 C 125.91 51.43 128.49 52.5 131.12 52.5 Z " fill="rgb(166,198,234)"/><path d=" M 204.33 52.5 C 206.96 52.5 209.54 51.43 211.399 49.569 C 213.269 47.71 214.33 45.13 214.33 42.5 C 214.33 39.87 213.269 37.29 211.399 35.43 C 209.54 33.56 206.969 32.5 204.33 32.5 C 201.7 32.5 199.12 33.56 197.26 35.43 C 195.4 37.29 194.33 39.87 194.33 42.5 C 194.33 45.13 195.399 47.71 197.26 49.569 C 199.12 51.43 201.7 52.5 204.33 52.5 Z " fill="rgb(166,198,234)"/><path d=" M 96 223.569 C 98.63 223.569 101.21 222.5 103.069 220.639 C 104.929 218.78 106 216.2 106 213.569 C 106 210.939 104.93 208.359 103.069 206.5 C 101.21 204.63 98.63 203.569 96 203.569 C 93.37 203.569 90.79 204.63 88.93 206.5 C 87.07 208.359 86 210.93 86 213.569 C 86 216.2 87.069 218.78 88.93 220.639 C 90.79 222.5 93.37 223.569 96 223.569 Z " fill="rgb(166,198,234)"/><path d=" M 338.34 393.899 C 340.97 393.899 343.54 392.83 345.41 390.969 C 347.269 389.109 348.34 386.53 348.34 383.899 C 348.34 381.269 347.27 378.689 345.41 376.83 C 343.55 374.97 340.97 373.899 338.34 373.899 C 335.7 373.899 333.12 374.969 331.27 376.83 C 329.4 378.689 328.34 381.269 328.34 383.899 C 328.34 386.53 329.4 389.109 331.27 390.969 C 333.13 392.83 335.7 393.899 338.34 393.899 Z " fill="rgb(166,198,234)"/><path d=" M 144 236.898 L 368.333 236.898 C 373.855 236.898 378.333 232.42 378.333 226.898 L 378.333 122.898 C 378.333 117.376 373.855 112.898 368.333 112.898 L 144 112.898 C 138.478 112.898 134 117.376 134 122.898 L 134 226.898 C 134 232.421 138.478 236.898 144 236.898 Z  M 297.738 216.163 L 279.142 197.567 L 306 170.71 L 352.188 216.898 L 298.402 216.898 C 298.195 216.646 297.975 216.399 297.738 216.163 Z  M 257.925 204.635 C 257.926 204.636 257.927 204.638 257.929 204.639 C 257.931 204.64 257.932 204.641 257.933 204.643 L 270.189 216.899 L 168.143 216.899 L 219.166 165.876 L 257.925 204.635 L 257.925 204.635 Z  M 358.333 132.898 L 358.333 194.757 L 313.071 149.495 C 309.165 145.591 302.835 145.591 298.928 149.495 L 265 183.425 L 226.237 144.662 C 222.332 140.759 216.002 140.758 212.094 144.662 L 154 202.756 L 154 132.898 L 358.333 132.898 L 358.333 132.898 Z " fill="rgb(166,198,234)"/><path d=" M 144 284.901 L 188.333 284.901 C 193.855 284.901 198.333 280.423 198.333 274.901 C 198.333 269.379 193.855 264.901 188.333 264.901 L 144 264.901 C 138.478 264.901 134 269.379 134 274.901 C 134 280.423 138.478 284.901 144 284.901 Z " fill="rgb(166,198,234)"/><path d=" M 278.167 264.901 L 233.833 264.901 C 228.311 264.901 223.833 269.379 223.833 274.901 C 223.833 280.423 228.311 284.901 233.833 284.901 L 278.167 284.901 C 283.689 284.901 288.167 280.423 288.167 274.901 C 288.167 269.379 283.689 264.901 278.167 264.901 Z " fill="rgb(166,198,234)"/><path d=" M 368 264.901 L 323.667 264.901 C 318.145 264.901 313.667 269.379 313.667 274.901 C 313.667 280.423 318.145 284.901 323.667 284.901 L 368 284.901 C 373.522 284.901 378 280.423 378 274.901 C 378 269.379 373.522 264.901 368 264.901 Z " fill="rgb(166,198,234)"/></g></g></g></svg>