<?xml version="1.0" standalone="no"?><!-- Generator: Gravit.io --><svg xmlns="http://www.w3.org/2000/svg" xmlns:xlink="http://www.w3.org/1999/xlink" style="isolation:isolate" viewBox="0 0 685.7 599.5" width="685.7" height="599.5"><defs><clipPath id="_clipPath_NS1QgQ1Gl1byyyIZ8xePSA8lKeNjf7KZ"><rect width="685.7" height="599.5"/></clipPath></defs><g clip-path="url(#_clipPath_NS1QgQ1Gl1byyyIZ8xePSA8lKeNjf7KZ)"><clipPath id="_clipPath_cjkUyUTDUdGfwGMc9dogAAmXocCY97aE"><rect x="0" y="0" width="685.7" height="599.5" transform="matrix(1,0,0,1,0,0)" fill="rgb(255,255,255)"/></clipPath><g clip-path="url(#_clipPath_cjkUyUTDUdGfwGMc9dogAAmXocCY97aE)"><g><clipPath id="_clipPath_YNIpgWfmJJPTF6aroqC8JD38gulIPZtI"><rect x="68.256" y="50.952" width="113.844" height="76.306" transform="matrix(1,0,0,1,0,0)" fill="rgb(255,255,255)"/></clipPath><g clip-path="url(#_clipPath_YNIpgWfmJJPTF6aroqC8JD38gulIPZtI)"><g><g><clipPath id="_clipPath_hpH9rqjB0VIw1xC4WvK86cMHZgej7pxE"><rect x="90.717" y="50.952" width="68.922" height="76.306" transform="matrix(1,0,0,1,0,0)" fill="rgb(255,255,255)"/></clipPath><g clip-path="url(#_clipPath_hpH9rqjB0VIw1xC4WvK86cMHZgej7pxE)"><g><g><g><g><path d=" M 97.825 119.462 L 91.743 51.191 L 158.613 51.191 L 152.531 119.425 L 125.122 127.019" fill="rgb(93,103,218)"/><path d=" M 125.178 121.213 L 125.178 56.794 L 152.512 56.794 L 147.296 115.038" fill="rgb(122,131,241)"/><path d=" M 104.165 65.143 L 125.178 65.143 L 125.178 73.511 L 113.345 73.511 L 114.119 82.082 L 125.178 82.082 L 125.178 90.432 L 106.451 90.432 M 106.82 94.635 L 115.225 94.635 L 115.814 101.325 L 125.178 103.832 L 125.178 112.568 L 108 107.776" fill="rgb(235,235,235)"/><path d=" M 146.117 65.143 L 125.141 65.143 L 125.141 73.511 L 145.342 73.511 M 144.587 82.082 L 125.141 82.082 L 125.141 90.451 L 135.463 90.451 L 134.486 101.325 L 125.141 103.832 L 125.141 112.531 L 142.283 107.776" fill="rgb(255,255,255)"/></g></g></g></g></g></g></g></g><clipPath id="_clipPath_6VjYK0K0HDW0ZM18hHUTSObE5xoXmIbX"><rect x="501.148" y="89.105" width="113.844" height="76.306" transform="matrix(1,0,0,1,0,0)" fill="rgb(255,255,255)"/></clipPath><g clip-path="url(#_clipPath_6VjYK0K0HDW0ZM18hHUTSObE5xoXmIbX)"><g><g><clipPath id="_clipPath_t9jBJMHDkW13kzadg6W5tCvRFuzEt1Uk"><rect x="523.609" y="89.105" width="68.922" height="76.306" transform="matrix(1,0,0,1,0,0)" fill="rgb(255,255,255)"/></clipPath><g clip-path="url(#_clipPath_t9jBJMHDkW13kzadg6W5tCvRFuzEt1Uk)"><g><g><g><g><g><path d=" M 591.526 89.31 L 585.432 157.578 L 558.039 165.172 L 530.722 157.588 L 524.635 89.31 L 591.526 89.31 Z " fill="rgb(93,103,218)"/><path d=" M 580.214 153.231 L 585.422 94.893 L 558.08 94.893 L 558.08 159.367 L 580.214 153.231 Z " fill="rgb(122,131,241)"/><path d=" M 538.59 120.217 L 539.34 128.591 L 558.08 128.591 L 558.08 120.217 L 538.59 120.217 Z " fill="rgb(235,235,235)"/><path d=" M 558.08 103.267 L 558.051 103.267 L 537.082 103.267 L 537.843 111.642 L 558.08 111.642 L 558.08 103.267 Z " fill="rgb(235,235,235)"/><path d=" M 558.08 150.677 L 558.08 141.965 L 558.043 141.975 L 548.717 139.456 L 548.121 132.778 L 543.589 132.778 L 539.714 132.778 L 540.888 145.927 L 558.041 150.688 L 558.08 150.677 Z " fill="rgb(235,235,235)"/><path d=" M 568.362 128.591 L 567.391 139.451 L 558.051 141.972 L 558.051 150.684 L 575.218 145.927 L 575.344 144.511 L 577.312 122.465 L 577.516 120.217 L 579.028 103.267 L 558.051 103.267 L 558.051 111.642 L 569.851 111.642 L 569.089 120.217 L 558.051 120.217 L 558.051 128.591 L 568.362 128.591 Z " fill="rgb(255,255,255)"/></g></g></g></g></g></g></g></g></g><clipPath id="_clipPath_qc8mo6IPnpRQwy20guHOKbMxS1z5U3oV"><rect x="31.14" y="432.336" width="113.844" height="76.306" transform="matrix(1,0,0,1,0,0)" fill="rgb(255,255,255)"/></clipPath><g clip-path="url(#_clipPath_qc8mo6IPnpRQwy20guHOKbMxS1z5U3oV)"><g><g><clipPath id="_clipPath_5z2okJ6UxvyMIDgDfcoDMZFz9HX0qQTD"><rect x="53.601" y="432.336" width="68.922" height="76.306" transform="matrix(1,0,0,1,0,0)" fill="rgb(255,255,255)"/></clipPath><g clip-path="url(#_clipPath_5z2okJ6UxvyMIDgDfcoDMZFz9HX0qQTD)"><g><g><g><path d=" M 89.601 443.672 L 90.12 494.297 L 109.764 490.835 L 114.004 443.24 L 89.601 443.672 Z " fill="rgb(255,255,255)"/><g><path d=" M 60.836 500.733 L 54.627 432.382 L 121.518 432.407 L 115.361 500.681 L 88.02 508.403 L 60.836 500.733 Z  M 110.326 497.002 L 115.518 438.46 L 105.521 438.46 L 96.823 438.46 L 88.124 438.46 L 88.334 503.029 L 110.326 497.002 L 110.326 497.002 Z  M 85.568 447.043 L 78.915 447.043 L 78.837 482.08 L 65.924 478.558 L 65.949 486.567 L 85.568 491.863 L 85.568 447.043 L 85.568 447.043 Z " fill="rgb(93,103,218)"/><g style="opacity:0.986;"><g style="opacity:0.986;"><g style="opacity:0.986;"><g opacity="0.986"><path d=" M 78.971 490.885 C 78.11 490.624 73.858 489.476 69.527 488.302 L 61.674 486.189 L 61.674 482.25 C 61.674 478.389 61.674 478.31 62.066 478.44 C 62.274 478.519 65.145 479.301 68.432 480.214 L 74.406 481.858 L 74.458 464.379 L 74.51 446.899 L 81.032 446.899 L 81.032 469.127 C 81.032 486.789 80.98 491.355 80.798 491.355 C 80.667 491.328 79.832 491.119 78.971 490.885 L 78.971 490.885 Z " fill="none"/></g></g></g></g><path d=" M 88.073 438.46 L 115.465 438.46 L 110.274 497.002 L 88.073 503.029 L 88.073 438.46 Z  M 108.865 487.193 L 110.665 465.305 L 97.36 466.792 L 97.36 455.104 L 111.552 455.053 L 112.126 447.069 L 90.708 447.173 L 90.994 476.236 L 103.935 474.019 L 103.752 480.488 L 90.708 483.958 L 90.838 491.889 L 108.865 487.193 Z " fill="rgb(122,131,241)"/></g></g></g></g></g></g></g></g><clipPath id="_clipPath_ZwsT9ukf4l9NSZk3DJgJmcGGQCX80dgt"><rect x="540.716" y="473.259" width="113.844" height="76.306" transform="matrix(1,0,0,1,0,0)" fill="rgb(255,255,255)"/></clipPath><g clip-path="url(#_clipPath_ZwsT9ukf4l9NSZk3DJgJmcGGQCX80dgt)"><g><g><g><path d=" M 634.784 516.853 C 631.403 516.87 628.465 517.685 626.004 518.888 C 625.101 517.101 624.199 515.507 624.04 514.339 C 623.863 512.976 623.65 512.144 623.863 510.515 C 624.075 508.887 625.03 506.568 625.013 506.391 C 624.995 506.215 624.8 505.383 622.853 505.365 C 620.906 505.347 619.224 505.736 619.03 506.25 C 618.836 506.763 618.464 507.932 618.216 509.135 C 617.879 510.905 614.322 517.224 612.286 520.534 C 611.631 519.243 611.065 518.11 610.94 517.207 C 610.764 515.844 610.551 515.012 610.764 513.383 C 610.976 511.755 611.932 509.436 611.914 509.259 C 611.897 509.082 611.702 508.25 609.754 508.232 C 607.807 508.215 606.126 508.604 605.931 509.117 C 605.737 509.631 605.524 510.834 605.117 512.003 C 604.71 513.171 599.984 523.721 598.744 526.447 C 598.107 527.845 597.558 528.961 597.169 529.721 C 597.169 529.721 597.169 529.721 597.169 529.721 C 597.169 529.721 597.152 529.775 597.098 529.863 C 596.762 530.518 596.567 530.872 596.567 530.872 C 596.567 530.872 596.567 530.872 596.567 530.89 C 596.302 531.368 596.019 531.81 595.877 531.81 C 595.771 531.81 595.576 530.536 595.912 528.801 C 596.621 525.137 598.302 519.437 598.285 519.243 C 598.285 519.136 598.603 518.145 597.187 517.632 C 595.806 517.118 595.31 517.968 595.187 517.968 C 595.062 517.968 594.974 518.269 594.974 518.269 C 594.974 518.269 596.514 511.861 592.035 511.861 C 589.239 511.861 585.38 514.923 583.468 517.685 C 582.265 518.34 579.698 519.738 576.955 521.243 C 575.91 521.827 574.83 522.411 573.821 522.96 C 573.75 522.889 573.68 522.8 573.609 522.729 C 568.192 516.941 558.173 512.852 558.598 505.082 C 558.757 502.249 559.731 494.815 577.839 485.787 C 592.744 478.441 604.604 480.477 606.657 484.99 C 609.595 491.434 600.302 503.4 584.902 505.135 C 579.025 505.789 575.945 503.524 575.166 502.674 C 574.352 501.789 574.228 501.736 573.927 501.913 C 573.432 502.178 573.75 502.975 573.927 503.435 C 574.388 504.639 576.282 506.763 579.486 507.807 C 582.317 508.728 589.204 509.241 597.541 506.02 C 606.87 502.409 614.162 492.372 612.02 483.964 C 609.879 475.432 595.718 472.618 582.317 477.379 C 574.352 480.211 565.714 484.672 559.501 490.478 C 552.119 497.382 550.951 503.382 551.429 505.896 C 553.146 514.817 565.448 520.623 570.369 524.924 C 570.121 525.066 569.891 525.19 569.697 525.296 C 567.237 526.518 557.855 531.421 555.518 536.607 C 552.863 542.484 555.943 546.697 557.979 547.264 C 564.298 549.016 570.794 545.865 574.281 540.661 C 577.769 535.457 577.344 528.695 575.733 525.597 C 575.715 525.562 575.697 525.526 575.662 525.491 C 576.299 525.119 576.955 524.73 577.591 524.358 C 578.849 523.615 580.087 522.924 581.15 522.358 C 580.548 524.004 580.105 525.969 579.893 528.801 C 579.627 532.129 580.99 536.448 582.778 538.148 C 583.575 538.891 584.513 538.908 585.114 538.908 C 587.204 538.908 588.141 537.174 589.186 535.121 C 590.46 532.607 591.611 529.686 591.611 529.686 C 591.611 529.686 590.177 537.581 594.071 537.581 C 595.488 537.581 596.922 535.74 597.558 534.802 C 597.558 534.82 597.558 534.82 597.558 534.82 C 597.558 534.82 597.594 534.766 597.665 534.642 C 597.806 534.412 597.895 534.271 597.895 534.271 C 597.895 534.271 597.895 534.253 597.895 534.236 C 598.461 533.244 599.736 530.996 601.63 527.261 C 604.073 522.446 606.427 516.428 606.427 516.428 C 606.427 516.428 606.639 517.897 607.365 520.34 C 607.79 521.774 608.675 523.349 609.383 524.871 C 608.817 525.668 608.462 526.11 608.462 526.11 C 608.462 526.11 608.462 526.11 608.48 526.128 C 608.02 526.73 607.524 527.385 606.975 528.022 C 605.046 530.323 602.745 532.961 602.427 533.722 C 602.054 534.625 602.143 535.28 602.851 535.811 C 603.364 536.2 604.285 536.253 605.223 536.2 C 606.958 536.076 608.179 535.652 608.781 535.386 C 609.719 535.05 610.817 534.537 611.843 533.775 C 613.737 532.377 614.888 530.377 614.781 527.739 C 614.729 526.287 614.251 524.836 613.666 523.473 C 613.844 523.225 614.003 522.977 614.18 522.729 C 617.172 518.357 619.49 513.56 619.49 513.56 C 619.49 513.56 619.703 515.03 620.428 517.472 C 620.783 518.712 621.508 520.057 622.146 521.366 C 619.331 523.65 617.596 526.305 616.976 528.04 C 615.861 531.262 616.729 532.713 618.375 533.049 C 619.119 533.209 620.181 532.855 620.959 532.518 C 621.951 532.2 623.119 531.651 624.234 530.837 C 626.128 529.438 627.952 527.491 627.845 524.854 C 627.792 523.65 627.474 522.464 627.031 521.313 C 629.421 520.322 632.5 519.774 636.43 520.233 C 644.856 521.225 646.52 526.482 646.201 528.695 C 645.883 530.908 644.113 532.111 643.529 532.483 C 642.945 532.855 642.75 532.978 642.802 533.244 C 642.873 533.634 643.157 533.616 643.652 533.545 C 644.343 533.421 648.077 531.757 648.237 527.686 C 648.503 522.482 643.546 516.8 634.784 516.853 Z  M 569.785 538.767 C 566.989 541.811 563.094 542.962 561.413 541.989 C 559.607 540.944 560.315 536.448 563.749 533.226 C 565.838 531.262 568.529 529.438 570.316 528.323 C 570.723 528.075 571.325 527.721 572.051 527.279 C 572.175 527.208 572.246 527.172 572.246 527.172 L 572.246 527.172 C 572.387 527.084 572.529 526.996 572.671 526.907 C 573.927 531.51 572.724 535.563 569.785 538.767 Z  M 590.142 524.924 C 589.168 527.297 587.133 533.368 585.893 533.032 C 584.831 532.748 584.177 528.146 585.681 523.597 C 586.442 521.313 588.053 518.587 588.991 517.525 C 590.514 515.826 592.195 515.259 592.602 515.95 C 593.115 516.853 590.744 523.438 590.142 524.924 Z  M 606.94 532.961 C 606.533 533.173 606.143 533.315 605.967 533.209 C 605.843 533.138 606.143 532.855 606.143 532.855 C 606.143 532.855 608.25 530.589 609.082 529.562 C 609.56 528.961 610.126 528.252 610.728 527.456 C 610.728 527.527 610.728 527.615 610.728 527.686 C 610.728 530.394 608.108 532.217 606.94 532.961 Z  M 619.898 530.005 C 619.597 529.793 619.65 529.084 620.658 526.871 C 621.048 526.004 621.968 524.553 623.544 523.155 C 623.721 523.721 623.845 524.27 623.827 524.783 C 623.81 528.199 621.367 529.474 619.898 530.005 Z " fill="rgb(93,103,218)"/></g></g></g></g><linearGradient id="_lgradient_3" x1="0" y1="0.5" x2="1" y2="0.5"><stop offset="0%" stop-opacity="1" style="stop-color:rgb(93,103,218)"/><stop offset="100%" stop-opacity="1" style="stop-color:rgb(122,131,241)"/></linearGradient><circle vector-effect="non-scaling-stroke" cx="319.56220182981957" cy="294.6635345323044" r="108.99999999999994" fill="none" stroke-width="12" stroke="url(#_lgradient_3)" stroke-linejoin="miter" stroke-linecap="square" stroke-miterlimit="3"/><circle vector-effect="non-scaling-stroke" cx="125.1778583954756" cy="88.08793819194283" r="67.07559634036159" fill="none" stroke-width="12" stroke="rgb(97,107,221)" stroke-linejoin="miter" stroke-linecap="square" stroke-miterlimit="3"/><linearGradient id="_lgradient_4" x1="0" y1="0.5" x2="1" y2="0.5"><stop offset="0%" stop-opacity="1" style="stop-color:rgb(93,103,218)"/><stop offset="100%" stop-opacity="1" style="stop-color:rgb(123,132,241)"/></linearGradient><circle vector-effect="non-scaling-stroke" cx="597.6377981701808" cy="511.41206180805705" r="67.07559634036159" fill="none" stroke-width="12" stroke="url(#_lgradient_4)" stroke-linejoin="miter" stroke-linecap="square" stroke-miterlimit="3"/><circle vector-effect="non-scaling-stroke" cx="88.06220182981927" cy="470.4891308726658" r="67.07559634036159" fill="none" stroke-width="12" stroke="rgb(96,106,220)" stroke-linejoin="miter" stroke-linecap="square" stroke-miterlimit="3"/><clipPath id="_clipPath_1Pke8J98alrRrj14fzLa2Avhz3mDey7R"><rect x="249.541" y="247.731" width="140.042" height="93.866" transform="matrix(1,0,0,1,0,0)" fill="rgb(255,255,255)"/></clipPath><g clip-path="url(#_clipPath_1Pke8J98alrRrj14fzLa2Avhz3mDey7R)"><g><g><clipPath id="_clipPath_laYvaJqU8qzs1EclnW2128uOW0sBgDqy"><rect x="249.541" y="247.731" width="140.042" height="93.866" transform="matrix(1,0,0,1,0,0)" fill="rgb(255,255,255)"/></clipPath><g clip-path="url(#_clipPath_laYvaJqU8qzs1EclnW2128uOW0sBgDqy)"><g><g><g><clipPath id="_clipPath_pX1aOPxsdH2qyMYug7Ble1Q39ZVHamgr"><rect x="249.541" y="247.731" width="140.042" height="93.866" transform="matrix(1,0,0,1,0,0)" fill="rgb(255,255,255)"/></clipPath><g clip-path="url(#_clipPath_pX1aOPxsdH2qyMYug7Ble1Q39ZVHamgr)"><g><g><g><g><g><g><path d=" M 266.975 252.918 L 372.944 252.918 C 373.694 252.918 374.302 253.525 374.302 254.275 L 374.302 318.985 C 374.302 319.733 373.694 320.341 372.944 320.341 L 266.975 320.341 C 266.227 320.341 265.619 319.733 265.619 318.985 L 265.619 254.275 C 265.619 253.525 266.227 252.918 266.975 252.918 L 266.975 252.918 L 266.975 252.918 Z  M 265.678 248.183 L 374.157 248.183 C 377.262 248.183 379.784 250.705 379.784 253.81 L 379.784 319.449 C 379.784 322.555 377.262 325.075 374.157 325.075 L 265.678 325.075 C 262.573 325.075 260.051 322.555 260.051 319.449 L 260.051 253.81 C 260.051 250.705 262.573 248.183 265.678 248.183 L 265.678 248.183 L 265.678 248.183 Z  M 317.742 250.562 C 317.742 249.962 318.23 249.474 318.83 249.474 C 319.43 249.474 319.918 249.962 319.918 250.562 C 319.918 251.162 319.43 251.649 318.83 251.649 C 318.23 251.649 317.742 251.162 317.742 250.562 Z " fill-rule="evenodd" fill="rgb(95,104,219)"/><path d=" M 306.563 325.779 L 253.713 325.779 C 252.265 325.779 251.089 326.327 251.089 327.001 L 251.089 327.001 C 251.089 330.528 257.235 333.391 264.806 333.391 L 374.301 333.391 C 381.073 333.391 386.571 330.581 386.571 327.119 L 386.571 327.119 C 386.571 326.38 385.395 325.779 383.947 325.779 L 332.391 325.779 L 332.391 327.047 L 306.563 327.047 L 306.563 325.779 L 306.563 325.779 Z " fill-rule="evenodd" fill="rgb(121,130,240)"/></g><g><path d=" M 253.581 264.285 L 316.188 264.285 C 318.793 264.285 320.907 266.399 320.907 269.004 L 320.907 309.046 C 320.907 311.65 318.793 313.765 316.188 313.765 L 253.581 313.765 C 250.977 313.765 248.862 311.65 248.862 309.046 L 248.862 269.004 C 248.862 266.399 250.977 264.285 253.581 264.285 Z  M 254.923 268.091 L 314.847 268.091 C 315.316 268.091 315.697 268.472 315.697 268.941 L 315.697 309.109 C 315.697 309.578 315.316 309.959 314.847 309.959 L 254.923 309.959 C 254.454 309.959 254.073 309.578 254.073 309.109 L 254.073 268.941 C 254.073 268.472 254.454 268.091 254.923 268.091 Z " fill-rule="evenodd" fill="rgb(95,104,219)"/><path d=" M 286.301 311.893 L 286.301 312.193 C 286.301 312.504 286.048 312.757 285.737 312.757 L 283.093 312.757 C 282.781 312.757 282.529 312.504 282.529 312.193 L 282.529 311.893 C 282.529 311.582 282.781 311.329 283.093 311.329 L 285.737 311.329 C 286.048 311.329 286.301 311.582 286.301 311.893 Z " fill="rgb(255,255,255)"/><circle vector-effect="non-scaling-stroke" cx="284.8849420099959" cy="266.3013017491011" r="0.4701068819956049" fill="rgb(255,255,255)"/><path d=" M 254.017 267.972 L 307.042 267.972 L 316.026 267.972 C 316.169 267.972 316.286 268.089 316.286 268.233 L 316.286 309.942 C 316.286 310.086 316.169 310.202 316.026 310.202 L 254.017 310.202 C 253.873 310.202 253.756 310.086 253.756 309.942 L 253.756 268.233 C 253.756 268.089 253.873 267.972 254.017 267.972 Z " fill="rgb(255,255,255)"/></g><g><path d=" M 351.202 294.555 L 368.097 294.555 C 369.962 294.555 371.476 296.069 371.476 297.934 L 371.476 338.391 C 371.476 340.255 369.962 341.77 368.097 341.77 L 351.202 341.77 C 349.337 341.77 347.823 340.255 347.823 338.391 L 347.823 297.934 C 347.823 296.069 349.337 294.555 351.202 294.555 Z " fill="rgb(95,104,219)"/><clipPath id="_clipPath_CL83o9Nvr2XZBZZ0yZX3EcXpmpNwaQNZ"><path d=" M -30.888 60.452 L 529.279 60.452 L 529.279 435.915 L -30.888 435.915 L -30.888 60.452 Z  M 351.202 294.555 L 368.097 294.555 C 369.962 294.555 371.476 296.069 371.476 297.934 L 371.476 338.391 C 371.476 340.255 369.962 341.77 368.097 341.77 L 351.202 341.77 C 349.337 341.77 347.823 340.255 347.823 338.391 L 347.823 297.934 C 347.823 296.069 349.337 294.555 351.202 294.555 Z " fill-rule="evenodd" fill="rgb(255,255,255)"/></clipPath><g clip-path="url(#_clipPath_CL83o9Nvr2XZBZZ0yZX3EcXpmpNwaQNZ)"><g><g><clipPath id="_clipPath_xGkb2yxKUCNvZtRjQOliG3xzoO4YRpwK"><path d=" M -30.888 60.452 L 529.279 60.452 L 529.279 435.915 L -30.888 435.915 L -30.888 60.452 Z  M 351.202 294.555 L 368.097 294.555 C 369.962 294.555 371.476 296.069 371.476 297.934 L 371.476 338.391 C 371.476 340.255 369.962 341.77 368.097 341.77 L 351.202 341.77 C 349.337 341.77 347.823 340.255 347.823 338.391 L 347.823 297.934 C 347.823 296.069 349.337 294.555 351.202 294.555 Z " fill-rule="evenodd" fill="rgb(255,255,255)"/></clipPath><g clip-path="url(#_clipPath_xGkb2yxKUCNvZtRjQOliG3xzoO4YRpwK)"><g><clipPath id="_clipPath_AWlrnNUcHtiotplHci3dfj9ZDefZlE53"><path d=" M -1371.067 -1199 L 1371.733 -1199 L 1371.733 1199 L -1371.067 1199 L -1371.067 -1199 Z  M 351.202 294.555 L 368.097 294.555 C 369.962 294.555 371.476 296.069 371.476 297.934 L 371.476 338.391 C 371.476 340.255 369.962 341.77 368.097 341.77 L 351.202 341.77 C 349.337 341.77 347.823 340.255 347.823 338.391 L 347.823 297.934 C 347.823 296.069 349.337 294.555 351.202 294.555 Z " fill-rule="evenodd" fill="rgb(255,255,255)"/></clipPath><g clip-path="url(#_clipPath_AWlrnNUcHtiotplHci3dfj9ZDefZlE53)"><mask id="_mask_ziwnG99lw5KlbQdBEL7t71lCgfrJ8Fum" x="-200%" y="-200%" width="400%" height="400%"><rect x="-200%" y="-200%" width="400%" height="400%" style="fill:white;"/><path d=" M 351.202 294.555 L 368.097 294.555 C 369.962 294.555 371.476 296.069 371.476 297.934 L 371.476 338.391 C 371.476 340.255 369.962 341.77 368.097 341.77 L 351.202 341.77 C 349.337 341.77 347.823 340.255 347.823 338.391 L 347.823 297.934 C 347.823 296.069 349.337 294.555 351.202 294.555 Z " fill="black" stroke="none"/></mask><path d=" M 351.202 294.555 L 368.097 294.555 C 369.962 294.555 371.476 296.069 371.476 297.934 L 371.476 338.391 C 371.476 340.255 369.962 341.77 368.097 341.77 L 351.202 341.77 C 349.337 341.77 347.823 340.255 347.823 338.391 L 347.823 297.934 C 347.823 296.069 349.337 294.555 351.202 294.555 Z " fill="none" mask="url(#_mask_ziwnG99lw5KlbQdBEL7t71lCgfrJ8Fum)" vector-effect="non-scaling-stroke" stroke-width="0.8" stroke="rgb(95,104,219)" stroke-linejoin="miter" stroke-linecap="square" stroke-miterlimit="2"/></g></g></g></g></g></g><rect x="347.823" y="299.403" width="23.653" height="37.518" transform="matrix(1,0,0,1,0,0)" fill="rgb(255,255,255)"/><path d=" M 356.949 296.891 L 362.351 296.891 C 362.586 296.891 362.776 296.986 362.776 297.103 L 362.776 297.103 C 362.776 297.218 362.586 297.313 362.351 297.313 L 356.949 297.313 C 356.714 297.313 356.523 297.218 356.523 297.103 L 356.523 297.103 C 356.523 296.986 356.714 296.891 356.949 296.891 Z " fill="rgb(235,235,235)"/><circle vector-effect="non-scaling-stroke" cx="353.5669072390791" cy="297.02014331635763" r="0.3624920535877436" fill="rgb(235,235,235)"/><circle vector-effect="non-scaling-stroke" cx="352.5728860608814" cy="297.02014331635763" r="0.3624920535877436" fill="rgb(235,235,235)"/><path d=" M 371.827 307.214 L 371.827 307.214 C 371.996 307.214 372.133 307.364 372.133 307.549 L 372.133 311.432 C 372.133 311.618 371.996 311.768 371.827 311.768 L 371.827 311.768 L 371.827 307.214 L 371.827 307.214 Z " fill="rgb(166,198,234)"/></g></g></g></g></g></g></g></g></g></g></g></g></g></g><circle vector-effect="non-scaling-stroke" cx="170.3445250621424" cy="333.4135345323044" r="5" fill="rgb(94,104,219)"/><circle vector-effect="non-scaling-stroke" cx="465.42785839547554" cy="446.2885345323044" r="5" fill="rgb(119,128,238)"/><circle vector-effect="non-scaling-stroke" cx="402.03202506214234" cy="158.4135345323046" r="5" fill="rgb(117,126,237)"/><circle vector-effect="non-scaling-stroke" cx="120.67785839547562" cy="190.08020119897122" r="5" fill="rgb(97,106,221)"/></g></g><path d=" M 529.251 513.333 L 498.584 513.333 C 479.451 513.333 463.917 497.8 463.917 478.667 L 463.917 375.333 C 463.917 360.984 452.276 349.781 437.936 350.333 L 411.917 351.333" fill="none" vector-effect="non-scaling-stroke" stroke-width="2" stroke="rgb(119,128,238)" stroke-linejoin="miter" stroke-linecap="square" stroke-miterlimit="3"/><path d=" M 86.584 404 L 86.584 362 C 86.584 346.178 99.429 333.333 115.251 333.333 L 170.584 333.333 L 215.251 333.333" fill="none" vector-effect="non-scaling-stroke" stroke-width="2" stroke="rgb(94,104,219)" stroke-linejoin="miter" stroke-linecap="square" stroke-miterlimit="3"/><path d=" M 119.251 156 L 119.251 193.333 C 119.251 213.57 135.68 230 155.917 230 L 229.917 230" fill="none" vector-effect="non-scaling-stroke" stroke-width="2" stroke="rgb(97,107,221)" stroke-linejoin="miter" stroke-linecap="square" stroke-miterlimit="3"/><path d=" M 489.917 122.667 L 421.25 123.183 C 410.212 123.266 401.129 132.294 400.98 143.332 L 399.917 222" fill="none" vector-effect="non-scaling-stroke" stroke-width="2" stroke="rgb(117,126,237)" stroke-linejoin="miter" stroke-linecap="square" stroke-miterlimit="3"/><linearGradient id="_lgradient_5" x1="0" y1="0.5" x2="1" y2="0.5"><stop offset="0%" stop-opacity="1" style="stop-color:rgb(93,103,218)"/><stop offset="100%" stop-opacity="1" style="stop-color:rgb(123,132,241)"/></linearGradient><circle vector-effect="non-scaling-stroke" cx="557.999303851999" cy="127.2579481908703" r="67.07559634036159" fill="none" stroke-width="12" stroke="url(#_lgradient_5)" stroke-linejoin="miter" stroke-linecap="square" stroke-miterlimit="3"/></g></svg>