<?xml version="1.0" standalone="no"?><!-- Generator: Gravit.io --><svg xmlns="http://www.w3.org/2000/svg" xmlns:xlink="http://www.w3.org/1999/xlink" style="isolation:isolate" viewBox="0 0 512 512" width="512" height="512"><defs><clipPath id="_clipPath_SfRdd1VyObyBjv0tCiAy73qnDMihxCC7"><rect width="512" height="512"/></clipPath></defs><g clip-path="url(#_clipPath_SfRdd1VyObyBjv0tCiAy73qnDMihxCC7)"><g><g><path d=" M 357 256.13 C 357 253.5 355.93 250.92 354.07 249.06 C 352.21 247.19 349.63 246.13 347 246.13 C 344.37 246.13 341.79 247.19 339.93 249.06 C 338.07 250.92 337 253.5 337 256.13 C 337 258.76 338.07 261.34 339.93 263.2 C 341.79 265.06 344.37 266.13 347 266.13 C 349.63 266.13 352.21 265.06 354.07 263.2 C 355.93 261.34 357 258.76 357 256.13 Z " fill="rgb(166,198,234)"/><path d=" M 93.07 325.46 C 94.93 323.6 96 321.02 96 318.39 C 96 315.76 94.93 313.18 93.07 311.32 C 91.21 309.46 88.63 308.39 86 308.39 C 83.37 308.39 80.79 309.46 78.93 311.32 C 77.07 313.18 76 315.76 76 318.39 C 76 321.02 77.07 323.6 78.93 325.46 C 80.79 327.32 83.37 328.39 86 328.39 C 88.63 328.39 91.21 327.32 93.07 325.46 Z " fill="rgb(166,198,234)"/><path d=" M 82 348 C 36.785 348 0 384.785 0 430 C 0 475.215 36.785 512 82 512 C 127.215 512 164 475.215 164 430 C 164 384.785 127.215 348 82 348 Z  M 82 492 C 47.813 492 20 464.187 20 430 C 20 395.813 47.813 368 82 368 C 116.187 368 144 395.813 144 430 C 144 464.187 116.187 492 82 492 Z " fill="rgb(166,198,234)"/><path d=" M 436 348.243 L 436 256.127 C 436 250.604 431.523 246.127 426 246.127 L 384 246.127 C 378.477 246.127 374 250.604 374 256.127 C 374 261.65 378.477 266.127 384 266.127 L 416 266.127 L 416 349.22 C 377.435 355.885 348 389.559 348 430 C 348 475.215 384.785 512 430 512 C 475.215 512 512 475.215 512 430 C 512 386.805 478.421 351.329 436 348.243 Z  M 430 492 C 395.813 492 368 464.187 368 430 C 368 395.813 395.813 368 430 368 C 464.187 368 492 395.813 492 430 C 492 464.187 464.187 492 430 492 Z " fill="rgb(166,198,234)"/><path d=" M 257.557 386 L 237.698 386 C 232.175 386 227.698 390.477 227.698 396 L 227.698 430 L 227.698 464 C 227.698 469.523 232.175 474 237.698 474 L 257.557 474 C 272.445 474 284.557 461.888 284.557 447 C 284.557 440.562 282.289 434.645 278.513 430 C 282.288 425.355 284.557 419.438 284.557 413 C 284.557 398.112 272.444 386 257.557 386 Z  M 247.697 406 L 257.556 406 C 261.416 406 264.556 409.14 264.556 413 C 264.556 416.86 261.416 420 257.556 420 L 247.697 420 L 247.697 406 L 247.697 406 Z  M 257.557 454 L 247.698 454 L 247.698 440 L 257.557 440 C 261.417 440 264.557 443.14 264.557 447 C 264.557 450.86 261.417 454 257.557 454 Z " fill="rgb(166,198,234)"/><path d=" M 265.861 348.598 C 265.945 348.077 266 347.546 266 347 L 266 266.127 L 304.333 266.127 C 309.856 266.127 314.333 261.65 314.333 256.127 C 314.333 250.604 309.856 246.127 304.333 246.127 L 266 246.127 L 266 220 L 323.854 220 C 336.272 220 346.375 209.897 346.375 197.48 L 346.375 63.5 C 346.375 60.848 345.321 58.304 343.446 56.429 L 289.946 2.929 C 288.07 1.054 285.526 0 282.874 0 L 188.146 0 C 175.728 0 165.625 10.103 165.625 22.52 L 165.625 197.48 C 165.625 209.897 175.728 220 188.146 220 L 246 220 L 246 246.127 L 86 246.127 C 80.477 246.127 76 250.604 76 256.127 L 76 281.5 C 76 287.023 80.477 291.5 86 291.5 C 91.523 291.5 96 287.023 96 281.5 L 96 266.127 L 246 266.127 L 246 347 C 246 347.556 246.057 348.098 246.144 348.629 C 205.623 353.572 174.127 388.166 174.127 430 C 174.127 475.215 210.912 512 256.127 512 C 301.342 512 338.127 475.215 338.127 430 C 338.127 388.08 306.501 353.429 265.861 348.598 Z  M 312.232 53.5 L 295.394 53.5 C 294.004 53.5 292.874 52.37 292.874 50.98 L 292.874 34.142 L 312.232 53.5 L 312.232 53.5 Z  M 185.626 197.48 L 185.626 22.52 C 185.626 21.13 186.757 20 188.147 20 L 272.875 20 L 272.875 50.98 C 272.875 63.397 282.978 73.5 295.395 73.5 L 326.375 73.5 L 326.375 197.48 C 326.375 198.87 325.244 200 323.854 200 L 188.146 200 C 186.757 200 185.626 198.87 185.626 197.48 Z  M 256.127 492 C 221.94 492 194.127 464.187 194.127 430 C 194.127 395.813 221.94 368 256.127 368 C 290.314 368 318.127 395.813 318.127 430 C 318.127 464.187 290.314 492 256.127 492 Z " fill="rgb(166,198,234)"/><path d=" M 108.616 438.066 L 91.385 391.215 C 89.938 387.281 86.191 384.667 82 384.667 C 77.809 384.667 74.062 387.281 72.615 391.215 L 55.384 438.066 C 50.387 438.622 46.5 442.855 46.5 448 C 46.5 450.647 47.536 453.047 49.216 454.836 L 47.115 460.548 C 45.209 465.731 47.865 471.479 53.049 473.385 C 58.231 475.291 63.98 472.635 65.886 467.451 L 69.362 458 L 94.639 458 L 98.115 467.452 C 99.603 471.497 103.428 474.003 107.501 474.003 C 108.647 474.003 109.814 473.804 110.952 473.385 C 116.136 471.479 118.792 465.731 116.886 460.548 L 114.785 454.836 C 116.464 453.047 117.501 450.647 117.501 448 C 117.5 442.855 113.613 438.622 108.616 438.066 Z  M 76.717 438 L 82 423.637 L 87.283 438 L 76.717 438 L 76.717 438 Z " fill="rgb(166,198,234)"/><path d=" M 426 406 C 430.648 406 434.43 409.782 434.43 414.43 C 434.43 419.953 438.907 424.43 444.43 424.43 C 449.953 424.43 454.43 419.953 454.43 414.43 C 454.43 398.754 441.677 386 426 386 C 410.323 386 397.57 398.753 397.57 414.43 L 397.57 445.571 C 397.57 461.247 410.323 474.001 426 474.001 C 441.677 474.001 454.43 461.248 454.43 445.571 C 454.43 440.048 449.953 435.571 444.43 435.571 C 438.907 435.571 434.43 440.048 434.43 445.571 C 434.43 450.219 430.648 454.001 426 454.001 C 421.352 454.001 417.57 450.219 417.57 445.571 L 417.57 414.43 C 417.57 409.782 421.352 406 426 406 Z " fill="rgb(166,198,234)"/></g></g></g></svg>