<?xml version="1.0" standalone="no"?><!-- Generator: Gravit.io --><svg xmlns="http://www.w3.org/2000/svg" xmlns:xlink="http://www.w3.org/1999/xlink" style="isolation:isolate" viewBox="0 0 54 48.819" width="54" height="48.819"><defs><clipPath id="_clipPath_VAQJx0didRWzgub7H4s9Lh5cOrm5AYQM"><rect width="54" height="48.819"/></clipPath></defs><g clip-path="url(#_clipPath_VAQJx0didRWzgub7H4s9Lh5cOrm5AYQM)"><clipPath id="_clipPath_rGfzxZxSzMsQRkCLOTxDqU9FkkNTN1ks"><rect x="0" y="-0.125" width="54" height="48.819" transform="matrix(1,0,0,1,0,0)" fill="rgb(255,255,255)"/></clipPath><g clip-path="url(#_clipPath_rGfzxZxSzMsQRkCLOTxDqU9FkkNTN1ks)"><g><rect x="0" y="-0.125" width="54" height="48.819" transform="matrix(1,0,0,1,0,0)" fill="none"/><mask id="_mask_2QlsXnOCtTxALod01tjwsgQOSzVLtyf8"><path d=" M 44.747 47.169 C 46.334 46.526 47.799 45.678 49.078 44.646 C 52.227 42.107 54 38.66 54 35.067 L 54 11.272 C 54 8.25 52.509 5.35 49.859 3.212 C 47.211 1.075 43.614 -0.125 39.867 -0.125 L 13.599 -0.125 C 9.994 -0.125 6.533 1.03 3.984 3.085 C 1.435 5.141 0 7.934 0 10.842 L 0 38.722 L 0 41.948 L 8 41.948 L 8 38.722 L 8 10.842 C 8 9.644 8.592 8.493 9.64 7.648 C 10.69 6.801 12.117 6.326 13.599 6.326 L 39.867 6.326 C 41.491 6.326 43.054 6.846 44.203 7.773 C 45.352 8.7 46 9.96 46 11.272 L 46 35.067 C 46 36.948 45.072 38.755 43.422 40.086 C 42.551 40.787 41.516 41.327 40.388 41.676 C 36.777 42.54 33.46 41.899 31.968 40.284 Q 30.751 38.965 30.81 35.824 L 30.81 35.824 L 30.81 25.427 L 43.285 25.427 L 43.285 18.459 L 30.81 18.459 L 30.81 9.748 L 20.426 11.097 L 20.426 35.937 L 20.426 35.937 Q 20.426 38.803 21.088 41.163 L 21.088 41.163 L 21.088 41.163 Q 21.75 43.524 23.423 45.181 L 23.423 45.181 L 23.423 45.181 Q 25.096 46.839 27.883 47.767 L 27.883 47.767 L 27.883 47.767 Q 29.699 48.37 32.134 48.581 L 32.134 48.614 L 32.547 48.614 Q 33.671 48.694 34.922 48.694 L 34.922 48.694 L 34.922 48.694 Q 36.374 48.694 37.629 48.609 C 40.084 48.559 42.476 48.075 44.644 47.211 Q 44.696 47.194 44.749 47.177 L 44.749 47.177 L 44.747 47.169 Z " fill-rule="evenodd" fill="white" stroke="none"/></mask><path d=" M 44.747 47.169 C 46.334 46.526 47.799 45.678 49.078 44.646 C 52.227 42.107 54 38.66 54 35.067 L 54 11.272 C 54 8.25 52.509 5.35 49.859 3.212 C 47.211 1.075 43.614 -0.125 39.867 -0.125 L 13.599 -0.125 C 9.994 -0.125 6.533 1.03 3.984 3.085 C 1.435 5.141 0 7.934 0 10.842 L 0 38.722 L 0 41.948 L 8 41.948 L 8 38.722 L 8 10.842 C 8 9.644 8.592 8.493 9.64 7.648 C 10.69 6.801 12.117 6.326 13.599 6.326 L 39.867 6.326 C 41.491 6.326 43.054 6.846 44.203 7.773 C 45.352 8.7 46 9.96 46 11.272 L 46 35.067 C 46 36.948 45.072 38.755 43.422 40.086 C 42.551 40.787 41.516 41.327 40.388 41.676 C 36.777 42.54 33.46 41.899 31.968 40.284 Q 30.751 38.965 30.81 35.824 L 30.81 35.824 L 30.81 25.427 L 43.285 25.427 L 43.285 18.459 L 30.81 18.459 L 30.81 9.748 L 20.426 11.097 L 20.426 35.937 L 20.426 35.937 Q 20.426 38.803 21.088 41.163 L 21.088 41.163 L 21.088 41.163 Q 21.75 43.524 23.423 45.181 L 23.423 45.181 L 23.423 45.181 Q 25.096 46.839 27.883 47.767 L 27.883 47.767 L 27.883 47.767 Q 29.699 48.37 32.134 48.581 L 32.134 48.614 L 32.547 48.614 Q 33.671 48.694 34.922 48.694 L 34.922 48.694 L 34.922 48.694 Q 36.374 48.694 37.629 48.609 C 40.084 48.559 42.476 48.075 44.644 47.211 Q 44.696 47.194 44.749 47.177 L 44.749 47.177 L 44.747 47.169 Z " fill-rule="evenodd" fill="rgb(45,74,126)" mask="url(#_mask_2QlsXnOCtTxALod01tjwsgQOSzVLtyf8)" vector-effect="non-scaling-stroke" stroke-width="3" stroke="rgb(255,255,255)" stroke-linejoin="miter" stroke-linecap="butt" stroke-miterlimit="4"/></g></g></g></svg>