<?xml version="1.0" standalone="no"?><!-- Generator: Gravit.io --><svg xmlns="http://www.w3.org/2000/svg" xmlns:xlink="http://www.w3.org/1999/xlink" style="isolation:isolate" viewBox="0 0 54 48.819" width="54" height="48.819"><defs><clipPath id="_clipPath_6hoL5NdaRAv5CH8dB0RI8K6XuMAYTSP5"><rect width="54" height="48.819"/></clipPath></defs><g clip-path="url(#_clipPath_6hoL5NdaRAv5CH8dB0RI8K6XuMAYTSP5)"><rect width="54" height="48.819" style="fill:rgb(0,0,0)" fill-opacity="0"/><path d=" M 44.747 47.294 C 46.334 46.651 47.799 45.803 49.078 44.771 C 52.227 42.232 54 38.785 54 35.192 L 54 11.397 C 54 8.375 52.509 5.475 49.859 3.337 C 47.211 1.2 43.614 0 39.867 0 L 13.599 0 C 9.994 0 6.533 1.155 3.984 3.21 C 1.435 5.266 0 8.059 0 10.967 L 0 38.847 L 0 42.073 L 8 42.073 L 8 38.847 L 8 10.967 C 8 9.769 8.592 8.618 9.64 7.773 C 10.69 6.926 12.117 6.451 13.599 6.451 L 39.867 6.451 C 41.491 6.451 43.054 6.971 44.203 7.898 C 45.352 8.825 46 10.085 46 11.397 L 46 35.192 C 46 37.073 45.072 38.88 43.422 40.211 C 42.551 40.912 41.516 41.452 40.388 41.801 C 36.777 42.665 33.46 42.024 31.968 40.409 Q 30.751 39.09 30.81 35.949 L 30.81 35.949 L 30.81 25.552 L 43.285 25.552 L 43.285 18.584 L 30.81 18.584 L 30.81 9.873 L 20.426 11.222 L 20.426 36.062 L 20.426 36.062 Q 20.426 38.928 21.088 41.288 L 21.088 41.288 L 21.088 41.288 Q 21.75 43.649 23.423 45.306 L 23.423 45.306 L 23.423 45.306 Q 25.096 46.964 27.883 47.892 L 27.883 47.892 L 27.883 47.892 Q 29.699 48.495 32.134 48.706 L 32.134 48.739 L 32.547 48.739 Q 33.671 48.819 34.922 48.819 L 34.922 48.819 L 34.922 48.819 Q 36.374 48.819 37.629 48.734 C 40.084 48.684 42.476 48.2 44.644 47.336 Q 44.696 47.319 44.749 47.302 L 44.749 47.302 L 44.747 47.294 Z " fill-rule="evenodd" fill="rgb(45,74,126)"/></g></svg>