<?xml version="1.0" standalone="no"?><!-- Generator: Gravit.io --><svg xmlns="http://www.w3.org/2000/svg" xmlns:xlink="http://www.w3.org/1999/xlink" style="isolation:isolate" viewBox="0 0 204.803 204.803" width="204.803" height="204.803"><defs><clipPath id="_clipPath_EPfVuaHR6jqGKVhdmYS0mrssHkrgpiGj"><rect width="204.803" height="204.803"/></clipPath></defs><g clip-path="url(#_clipPath_EPfVuaHR6jqGKVhdmYS0mrssHkrgpiGj)"><clipPath id="_clipPath_uVRPxe8UdjxGky7zmiecCDjHmMpRutKE"><rect x="0" y="0" width="204.803" height="204.803" transform="matrix(1,0,0,1,0,0)" fill="rgb(255,255,255)"/></clipPath><g clip-path="url(#_clipPath_uVRPxe8UdjxGky7zmiecCDjHmMpRutKE)"><g><clipPath id="_clipPath_ABjXNylWd9NasAcGF0luzQ1ForhGZogs"><rect x="1.014" y="-0.562" width="204.803" height="204.803" transform="matrix(1,0,0,1,0,0)" fill="rgb(255,255,255)"/></clipPath><g clip-path="url(#_clipPath_ABjXNylWd9NasAcGF0luzQ1ForhGZogs)"><g><g><rect x="0.008" y="0" width="204.803" height="204.803" transform="matrix(1,0,0,1,0,0)" fill="none"/><path d=" M 44.119 0 L 160.7 0 C 185.045 0 204.811 19.766 204.811 44.111 L 204.811 160.692 C 204.811 185.037 185.045 204.803 160.7 204.803 L 44.119 204.803 C 19.774 204.803 0.008 185.037 0.008 160.692 L 0.008 44.111 C 0.008 19.766 19.774 0 44.119 0 Z " fill="rgb(157,164,252)"/></g></g></g></g></g><rect x="28.326" y="95.022" width="25.875" height="67.103" transform="matrix(1,0,0,1,0,0)" fill="rgb(255,255,255)"/><rect x="68.276" y="121.545" width="25.875" height="40.58" transform="matrix(1,0,0,1,0,0)" fill="rgb(255,255,255)"/><rect x="108.227" y="109.609" width="25.875" height="52.516" transform="matrix(1,0,0,1,0,0)" fill="rgb(255,255,255)"/><rect x="150.602" y="84" width="25.875" height="78.125" transform="matrix(1,0,0,1,0,0)" fill="rgb(255,255,255)"/><circle vector-effect="non-scaling-stroke" cx="41.63825" cy="71.5625" r="7.6875" fill="none" stroke-width="2" stroke="rgb(255,255,255)" stroke-linejoin="miter" stroke-linecap="square" stroke-miterlimit="3"/><circle vector-effect="non-scaling-stroke" cx="81.58899999999998" cy="99.5625" r="7.6875" fill="none" stroke-width="2" stroke="rgb(255,255,255)" stroke-linejoin="miter" stroke-linecap="square" stroke-miterlimit="3"/><circle vector-effect="non-scaling-stroke" cx="121.53975" cy="91.1875" r="7.6875" fill="none" stroke-width="2" stroke="rgb(255,255,255)" stroke-linejoin="miter" stroke-linecap="square" stroke-miterlimit="3"/><circle vector-effect="non-scaling-stroke" cx="163.91474999999997" cy="59.1875" r="7.6875" fill="none" stroke-width="2" stroke="rgb(255,255,255)" stroke-linejoin="miter" stroke-linecap="square" stroke-miterlimit="3"/><line x1="48" y1="76.688" x2="72.938" y2="97.5" vector-effect="non-scaling-stroke" stroke-width="3" stroke="rgb(255,255,255)" stroke-linejoin="miter" stroke-linecap="square" stroke-miterlimit="3"/><line x1="90.375" y1="99" x2="113.063" y2="93.375" vector-effect="non-scaling-stroke" stroke-width="3" stroke="rgb(255,255,255)" stroke-linejoin="miter" stroke-linecap="square" stroke-miterlimit="3"/><line x1="129.094" y1="87.625" x2="156.667" y2="63.333" vector-effect="non-scaling-stroke" stroke-width="3" stroke="rgb(255,255,255)" stroke-linejoin="miter" stroke-linecap="square" stroke-miterlimit="3"/></g></svg>