<?xml version="1.0" standalone="no"?><!-- Generator: Gravit.io --><svg xmlns="http://www.w3.org/2000/svg" xmlns:xlink="http://www.w3.org/1999/xlink" style="isolation:isolate" viewBox="0 0 204.803 204.803" width="204.803" height="204.803"><defs><clipPath id="_clipPath_IQnJ98eajZjpKOEtkwvbAB6de3YIQevH"><rect width="204.803" height="204.803"/></clipPath></defs><g clip-path="url(#_clipPath_IQnJ98eajZjpKOEtkwvbAB6de3YIQevH)"><clipPath id="_clipPath_DDPrp45nLfxro5HmK5T0qZzQffazE7rc"><rect x="1.014" y="-0.562" width="204.803" height="204.803" transform="matrix(1,0,0,1,0,0)" fill="rgb(255,255,255)"/></clipPath><g clip-path="url(#_clipPath_DDPrp45nLfxro5HmK5T0qZzQffazE7rc)"><g><rect x="0.008" y="0" width="204.803" height="204.803" transform="matrix(1,0,0,1,0,0)" fill="none"/><path d=" M 44.119 0 L 160.7 0 C 185.045 0 204.811 19.766 204.811 44.111 L 204.811 160.692 C 204.811 185.037 185.045 204.803 160.7 204.803 L 44.119 204.803 C 19.774 204.803 0.008 185.037 0.008 160.692 L 0.008 44.111 C 0.008 19.766 19.774 0 44.119 0 Z " fill="rgb(157,164,252)"/></g></g><path d="M 27.274 30.5 L 60.226 30.5 C 63.068 30.5 65.375 32.807 65.375 35.649 L 65.375 68.601 C 65.375 71.443 63.068 73.75 60.226 73.75 L 27.274 73.75 C 24.432 73.75 22.125 71.443 22.125 68.601 L 22.125 35.649 C 22.125 32.807 24.432 30.5 27.274 30.5 Z" style="fill:none;stroke:#EBEBEB;stroke-width:2;stroke-linecap:square;stroke-miterlimit:2;"/><line x1="30.125" y1="44.75" x2="58.125" y2="44.75" vector-effect="non-scaling-stroke" stroke-width="2" stroke="rgb(235,235,235)" stroke-linejoin="miter" stroke-linecap="square" stroke-miterlimit="3"/><line x1="89.416" y1="168.272" x2="117.416" y2="168.272" vector-effect="non-scaling-stroke" stroke-width="2" stroke="rgb(235,235,235)" stroke-linejoin="miter" stroke-linecap="square" stroke-miterlimit="3"/><line x1="30.125" y1="52.125" x2="58.125" y2="52.125" vector-effect="non-scaling-stroke" stroke-width="2" stroke="rgb(235,235,235)" stroke-linejoin="miter" stroke-linecap="square" stroke-miterlimit="3"/><line x1="30.125" y1="59.667" x2="46.125" y2="59.667" vector-effect="non-scaling-stroke" stroke-width="2" stroke="rgb(235,235,235)" stroke-linejoin="miter" stroke-linecap="square" stroke-miterlimit="3"/><path d="M 71.661 161.445 L 135.171 161.445 C 138.242 161.445 140.735 163.938 140.735 167.009 L 140.735 169.534 C 140.735 172.605 138.242 175.098 135.171 175.098 L 71.661 175.098 C 68.59 175.098 66.096 172.605 66.096 169.534 L 66.096 167.009 C 66.096 163.938 68.59 161.445 71.661 161.445 Z" style="fill:none;stroke:#EBEBEB;stroke-width:2;stroke-linecap:square;stroke-miterlimit:2;"/><path d="M 146.418 45.625 L 160.707 45.625 C 163.49 45.625 165.75 47.885 165.75 50.668 L 165.75 64.957 C 165.75 67.74 163.49 70 160.707 70 L 146.418 70 C 143.635 70 141.375 67.74 141.375 64.957 L 141.375 50.668 C 141.375 47.885 143.635 45.625 146.418 45.625 Z" style="fill:none;stroke:#EBEBEB;stroke-width:2;stroke-linecap:square;stroke-miterlimit:2;"/><circle vector-effect="non-scaling-stroke" cx="153.5625" cy="57.8125" r="2.5078125" fill="rgb(235,235,235)"/><circle vector-effect="non-scaling-stroke" cx="100.44191407407412" cy="101.70120919765066" r="37.44815831802099" fill="rgb(255,255,255)"/><path d=" M 74.451 139.149 C 74.451 124.653 86.221 112.883 100.717 112.883 C 115.214 112.883 126.984 124.653 126.984 139.149 L 74.451 139.149 Z " fill-rule="evenodd" fill="rgb(157,164,252)"/><circle vector-effect="non-scaling-stroke" cx="100.71749567877288" cy="99.35382982312893" r="11.104767447538833" fill="rgb(157,164,252)"/><circle vector-effect="non-scaling-stroke" cx="100.44191407407408" cy="101.97679080234937" r="37.448158318020994" fill="none" stroke-width="2" stroke="rgb(255,255,255)" stroke-linejoin="miter" stroke-linecap="square" stroke-miterlimit="3"/></g></svg>