<?xml version="1.0" standalone="no"?><!-- Generator: Gravit.io --><svg xmlns="http://www.w3.org/2000/svg" xmlns:xlink="http://www.w3.org/1999/xlink" style="isolation:isolate" viewBox="0 0 204.803 204.803" width="204.803" height="204.803"><defs><clipPath id="_clipPath_Sn9qLFqJDLr71oJCnxl7DQFaN9SG5dG6"><rect width="204.803" height="204.803"/></clipPath></defs><g clip-path="url(#_clipPath_Sn9qLFqJDLr71oJCnxl7DQFaN9SG5dG6)"><rect width="204.803" height="204.803" style="fill:rgb(0,0,0)" fill-opacity="0"/><path d="M 44.111 0 L 160.692 0 C 185.037 0 204.803 19.766 204.803 44.111 L 204.803 160.692 C 204.803 185.037 185.037 204.803 160.692 204.803 L 44.111 204.803 C 19.766 204.803 0 185.037 0 160.692 L 0 44.111 C 0 19.766 19.766 0 44.111 0 Z" style="stroke:none;fill:#9DA4FC;stroke-miterlimit:10;"/><path d="M 27.892 50.068 L 176.911 50.068 C 179.941 50.068 182.402 52.528 182.402 55.558 L 182.402 149.245 C 182.402 152.275 179.941 154.735 176.911 154.735 L 27.892 154.735 C 24.862 154.735 22.402 152.275 22.402 149.245 L 22.402 55.558 C 22.402 52.528 24.862 50.068 27.892 50.068 Z" style="fill:none;stroke:#FFFFFF;stroke-width:3;stroke-linecap:square;stroke-miterlimit:2;"/><path d="M 35.27 59.573 L 169.533 59.573 C 171.116 59.573 172.402 60.859 172.402 62.442 L 172.402 142.361 C 172.402 143.944 171.116 145.23 169.533 145.23 L 35.27 145.23 C 33.687 145.23 32.402 143.944 32.402 142.361 L 32.402 62.442 C 32.402 60.859 33.687 59.573 35.27 59.573 Z" style="fill:none;stroke:#FFFFFF;stroke-width:3;stroke-linecap:square;stroke-miterlimit:2;"/><path d="M 27.892 50.068 L 176.911 50.068 C 179.941 50.068 182.402 52.528 182.402 55.558 L 182.402 149.245 C 182.402 152.275 179.941 154.735 176.911 154.735 L 27.892 154.735 C 24.862 154.735 22.402 152.275 22.402 149.245 L 22.402 55.558 C 22.402 52.528 24.862 50.068 27.892 50.068 Z" style="fill:none;stroke:#FFFFFF;stroke-width:3;stroke-linecap:square;stroke-miterlimit:2;"/><path d=" M 32.902 110.902 L 56.225 93.251 C 63.773 87.539 74.738 88.873 80.696 96.229 L 118.902 143.402" fill="none" vector-effect="non-scaling-stroke" stroke-width="3" stroke="rgb(255,255,255)" stroke-linejoin="miter" stroke-linecap="square" stroke-miterlimit="3"/><path d=" M 100.902 119.728 L 118.25 106.599 C 123.864 102.351 132.02 103.343 136.451 108.815 L 164.868 143.902" fill="none" vector-effect="non-scaling-stroke" stroke-width="3" stroke="rgb(255,255,255)" stroke-linejoin="miter" stroke-linecap="square" stroke-miterlimit="3"/><line x1="32.902" y1="123.902" x2="49.402" y2="123.902" vector-effect="non-scaling-stroke" stroke-width="3" stroke="rgb(255,255,255)" stroke-linejoin="miter" stroke-linecap="square" stroke-miterlimit="3"/><line x1="32.902" y1="133.402" x2="59.902" y2="133.402" vector-effect="non-scaling-stroke" stroke-width="3" stroke="rgb(255,255,255)" stroke-linejoin="miter" stroke-linecap="square" stroke-miterlimit="3"/><circle vector-effect="non-scaling-stroke" cx="148.40151515151507" cy="87.40151515151506" r="9.5" fill="rgb(235,235,235)"/><line x1="35.402" y1="39.902" x2="169.402" y2="39.902" vector-effect="non-scaling-stroke" stroke-width="2" stroke="rgb(255,255,255)" stroke-linejoin="miter" stroke-linecap="square" stroke-miterlimit="3"/><line x1="119.735" y1="166.235" x2="179.068" y2="166.235" vector-effect="non-scaling-stroke" stroke-width="2" stroke="rgb(255,255,255)" stroke-linejoin="miter" stroke-linecap="square" stroke-miterlimit="3"/><line x1="120.402" y1="176.902" x2="179.735" y2="176.902" vector-effect="non-scaling-stroke" stroke-width="2" stroke="rgb(255,255,255)" stroke-linejoin="miter" stroke-linecap="square" stroke-miterlimit="3"/><line x1="120.402" y1="186.235" x2="179.735" y2="186.235" vector-effect="non-scaling-stroke" stroke-width="2" stroke="rgb(255,255,255)" stroke-linejoin="miter" stroke-linecap="square" stroke-miterlimit="3"/><circle vector-effect="non-scaling-stroke" cx="131.90151515151518" cy="166.0681818181817" r="3.5" fill="rgb(93,103,218)" stroke-width="2" stroke="rgb(255,255,255)" stroke-linejoin="miter" stroke-linecap="square" stroke-miterlimit="3"/><circle vector-effect="non-scaling-stroke" cx="157.9640151515153" cy="176.5681818181817" r="3.5" fill="rgb(93,103,218)" stroke-width="2" stroke="rgb(255,255,255)" stroke-linejoin="miter" stroke-linecap="square" stroke-miterlimit="3"/><circle vector-effect="non-scaling-stroke" cx="144.27651515151518" cy="186.3181818181817" r="3.5" fill="rgb(93,103,218)" stroke-width="2" stroke="rgb(255,255,255)" stroke-linejoin="miter" stroke-linecap="square" stroke-miterlimit="3"/></g></svg>